  0
SECTION
  2
HEADER
  9
$ACADVER
  1
AC1024
  9
$ACADMAINTVER
 70
     6
  9
$DWGCODEPAGE
  3
ANSI_1252
  9
$INSBASE
 10
0.0
 20
0.0
 30
0.0
  9
$EXTMIN
 10
1.000000000000000E+20
 20
1.000000000000000E+20
 30
1.000000000000000E+20
  9
$EXTMAX
 10
-1.000000000000000E+20
 20
-1.000000000000000E+20
 30
-1.000000000000000E+20
  9
$LIMMIN
 10
0.0
 20
0.0
  9
$LIMMAX
 10
12.0
 20
9.0
  9
$ORTHOMODE
 70
     0
  9
$REGENMODE
 70
     1
  9
$FILLMODE
 70
     1
  9
$QTEXTMODE
 70
     0
  9
$MIRRTEXT
 70
     1
  9
$LTSCALE
 40
1.0
  9
$ATTMODE
 70
     1
  9
$TEXTSIZE
 40
0.2
  9
$TRACEWID
 40
0.05
  9
$TEXTSTYLE
  7
Standard
  9
$CLAYER
  8
0
  9
$CELTYPE
  6
ByLayer
  9
$CECOLOR
 62
   256
  9
$CELTSCALE
 40
1.0
  9
$DISPSILH
 70
     0
  9
$DIMSCALE
 40
1.0
  9
$DIMASZ
 40
0.18
  9
$DIMEXO
 40
0.0625
  9
$DIMDLI
 40
0.38
  9
$DIMRND
 40
0.0
  9
$DIMDLE
 40
0.0
  9
$DIMEXE
 40
0.18
  9
$DIMTP
 40
0.0
  9
$DIMTM
 40
0.0
  9
$DIMTXT
 40
0.18
  9
$DIMCEN
 40
0.09
  9
$DIMTSZ
 40
0.0
  9
$DIMTOL
 70
     0
  9
$DIMLIM
 70
     0
  9
$DIMTIH
 70
     1
  9
$DIMTOH
 70
     1
  9
$DIMSE1
 70
     0
  9
$DIMSE2
 70
     0
  9
$DIMTAD
 70
     0
  9
$DIMZIN
 70
     0
  9
$DIMBLK
  1

  9
$DIMASO
 70
     1
  9
$DIMSHO
 70
     1
  9
$DIMPOST
  1

  9
$DIMAPOST
  1

  9
$DIMALT
 70
     0
  9
$DIMALTD
 70
     2
  9
$DIMALTF
 40
25.4
  9
$DIMLFAC
 40
1.0
  9
$DIMTOFL
 70
     0
  9
$DIMTVP
 40
0.0
  9
$DIMTIX
 70
     0
  9
$DIMSOXD
 70
     0
  9
$DIMSAH
 70
     0
  9
$DIMBLK1
  1

  9
$DIMBLK2
  1

  9
$DIMSTYLE
  2
Standard
  9
$DIMCLRD
 70
     0
  9
$DIMCLRE
 70
     0
  9
$DIMCLRT
 70
     0
  9
$DIMTFAC
 40
1.0
  9
$DIMGAP
 40
0.09
  9
$DIMJUST
 70
     0
  9
$DIMSD1
 70
     0
  9
$DIMSD2
 70
     0
  9
$DIMTOLJ
 70
     1
  9
$DIMTZIN
 70
     0
  9
$DIMALTZ
 70
     0
  9
$DIMALTTZ
 70
     0
  9
$DIMUPT
 70
     0
  9
$DIMDEC
 70
     4
  9
$DIMTDEC
 70
     4
  9
$DIMALTU
 70
     2
  9
$DIMALTTD
 70
     2
  9
$DIMTXSTY
  7
Standard
  9
$DIMAUNIT
 70
     0
  9
$DIMADEC
 70
     0
  9
$DIMALTRND
 40
0.0
  9
$DIMAZIN
 70
     0
  9
$DIMDSEP
 70
    46
  9
$DIMATFIT
 70
     3
  9
$DIMFRAC
 70
     0
  9
$DIMLDRBLK
  1

  9
$DIMLUNIT
 70
     2
  9
$DIMLWD
 70
    -2
  9
$DIMLWE
 70
    -2
  9
$DIMTMOVE
 70
     0
  9
$DIMFXL
 40
1.0
  9
$DIMFXLON
 70
     0
  9
$DIMJOGANG
 40
0.7853981633974483
  9
$DIMTFILL
 70
     0
  9
$DIMTFILLCLR
 70
     0
  9
$DIMARCSYM
 70
     0
  9
$DIMLTYPE
  6

  9
$DIMLTEX1
  6

  9
$DIMLTEX2
  6

  9
$DIMTXTDIRECTION
 70
     0
  9
$LUNITS
 70
     2
  9
$LUPREC
 70
     4
  9
$SKETCHINC
 40
0.1
  9
$FILLETRAD
 40
0.5
  9
$AUNITS
 70
     0
  9
$AUPREC
 70
     0
  9
$MENU
  1
.
  9
$ELEVATION
 40
0.0
  9
$PELEVATION
 40
0.0
  9
$THICKNESS
 40
0.0
  9
$LIMCHECK
 70
     0
  9
$CHAMFERA
 40
0.5
  9
$CHAMFERB
 40
0.5
  9
$CHAMFERC
 40
1.0
  9
$CHAMFERD
 40
0.0
  9
$SKPOLY
 70
     0
  9
$TDCREATE
 40
2459720.490639931
  9
$TDUCREATE
 40
2459720.657306597
  9
$TDUPDATE
 40
2459720.490640903
  9
$TDUUPDATE
 40
2459720.657307569
  9
$TDINDWG
 40
0.0000000116
  9
$TDUSRTIMER
 40
0.0000000116
  9
$USRTIMER
 70
     1
  9
$ANGBASE
 50
0.0
  9
$ANGDIR
 70
     0
  9
$PDMODE
 70
     0
  9
$PDSIZE
 40
0.0
  9
$PLINEWID
 40
0.0
  9
$SPLFRAME
 70
     0
  9
$SPLINETYPE
 70
     6
  9
$SPLINESEGS
 70
     8
  9
$HANDSEED
  5
CC
  9
$SURFTAB1
 70
     6
  9
$SURFTAB2
 70
     6
  9
$SURFTYPE
 70
     6
  9
$SURFU
 70
     6
  9
$SURFV
 70
     6
  9
$UCSBASE
  2

  9
$UCSNAME
  2

  9
$UCSORG
 10
0.0
 20
0.0
 30
0.0
  9
$UCSXDIR
 10
1.0
 20
0.0
 30
0.0
  9
$UCSYDIR
 10
0.0
 20
1.0
 30
0.0
  9
$UCSORTHOREF
  2

  9
$UCSORTHOVIEW
 70
     0
  9
$UCSORGTOP
 10
0.0
 20
0.0
 30
0.0
  9
$UCSORGBOTTOM
 10
0.0
 20
0.0
 30
0.0
  9
$UCSORGLEFT
 10
0.0
 20
0.0
 30
0.0
  9
$UCSORGRIGHT
 10
0.0
 20
0.0
 30
0.0
  9
$UCSORGFRONT
 10
0.0
 20
0.0
 30
0.0
  9
$UCSORGBACK
 10
0.0
 20
0.0
 30
0.0
  9
$PUCSBASE
  2

  9
$PUCSNAME
  2

  9
$PUCSORG
 10
0.0
 20
0.0
 30
0.0
  9
$PUCSXDIR
 10
1.0
 20
0.0
 30
0.0
  9
$PUCSYDIR
 10
0.0
 20
1.0
 30
0.0
  9
$PUCSORTHOREF
  2

  9
$PUCSORTHOVIEW
 70
     0
  9
$PUCSORGTOP
 10
0.0
 20
0.0
 30
0.0
  9
$PUCSORGBOTTOM
 10
0.0
 20
0.0
 30
0.0
  9
$PUCSORGLEFT
 10
0.0
 20
0.0
 30
0.0
  9
$PUCSORGRIGHT
 10
0.0
 20
0.0
 30
0.0
  9
$PUCSORGFRONT
 10
0.0
 20
0.0
 30
0.0
  9
$PUCSORGBACK
 10
0.0
 20
0.0
 30
0.0
  9
$USERI1
 70
     0
  9
$USERI2
 70
     0
  9
$USERI3
 70
     0
  9
$USERI4
 70
     0
  9
$USERI5
 70
     0
  9
$USERR1
 40
0.0
  9
$USERR2
 40
0.0
  9
$USERR3
 40
0.0
  9
$USERR4
 40
0.0
  9
$USERR5
 40
0.0
  9
$WORLDVIEW
 70
     1
  9
$SHADEDGE
 70
     3
  9
$SHADEDIF
 70
    70
  9
$TILEMODE
 70
     1
  9
$MAXACTVP
 70
    64
  9
$PINSBASE
 10
0.0
 20
0.0
 30
0.0
  9
$PLIMCHECK
 70
     0
  9
$PEXTMIN
 10
1.000000000000000E+20
 20
1.000000000000000E+20
 30
1.000000000000000E+20
  9
$PEXTMAX
 10
-1.000000000000000E+20
 20
-1.000000000000000E+20
 30
-1.000000000000000E+20
  9
$PLIMMIN
 10
0.0
 20
0.0
  9
$PLIMMAX
 10
12.0
 20
9.0
  9
$UNITMODE
 70
     0
  9
$VISRETAIN
 70
     1
  9
$PLINEGEN
 70
     0
  9
$PSLTSCALE
 70
     1
  9
$TREEDEPTH
 70
  3020
  9
$CMLSTYLE
  2
Standard
  9
$CMLJUST
 70
     0
  9
$CMLSCALE
 40
1.0
  9
$PROXYGRAPHICS
 70
     1
  9
$MEASUREMENT
 70
     0
  9
$CELWEIGHT
370
    -1
  9
$ENDCAPS
280
     0
  9
$JOINSTYLE
280
     0
  9
$LWDISPLAY
290
     1
  9
$INSUNITS
 70
     0
  9
$HYPERLINKBASE
  1

  9
$STYLESHEET
  1

  9
$XEDIT
290
     1
  9
$CEPSNTYPE
380
     0
  9
$PSTYLEMODE
290
     1
  9
$FINGERPRINTGUID
  2
{80680E8E-3431-4443-981F-B12FD1A2ECF2}
  9
$VERSIONGUID
  2
{FAEB1C32-E019-11D5-929B-00C0DF256EC4}
  9
$EXTNAMES
290
     1
  9
$PSVPSCALE
 40
0.0
  9
$OLESTARTUP
290
     0
  9
$SORTENTS
280
   127
  9
$INDEXCTL
280
     0
  9
$HIDETEXT
280
     1
  9
$XCLIPFRAME
280
     2
  9
$HALOGAP
280
     0
  9
$OBSCOLOR
 70
   257
  9
$OBSLTYPE
280
     0
  9
$INTERSECTIONDISPLAY
280
     0
  9
$INTERSECTIONCOLOR
 70
   257
  9
$DIMASSOC
280
     2
  9
$PROJECTNAME
  1

  9
$CAMERADISPLAY
290
     0
  9
$LENSLENGTH
 40
50.0
  9
$CAMERAHEIGHT
 40
0.0
  9
$STEPSPERSEC
 40
2.0
  9
$STEPSIZE
 40
6.0
  9
$3DDWFPREC
 40
2.0
  9
$PSOLWIDTH
 40
0.25
  9
$PSOLHEIGHT
 40
4.0
  9
$LOFTANG1
 40
1.570796326794897
  9
$LOFTANG2
 40
1.570796326794897
  9
$LOFTMAG1
 40
0.0
  9
$LOFTMAG2
 40
0.0
  9
$LOFTPARAM
 70
     7
  9
$LOFTNORMALS
280
     1
  9
$LATITUDE
 40
37.795
  9
$LONGITUDE
 40
-122.394
  9
$NORTHDIRECTION
 40
0.0
  9
$TIMEZONE
 70
 -8000
  9
$LIGHTGLYPHDISPLAY
280
     1
  9
$TILEMODELIGHTSYNCH
280
     1
  9
$CMATERIAL
347
3C
  9
$SOLIDHIST
280
     1
  9
$SHOWHIST
280
     1
  9
$DWFFRAME
280
     2
  9
$DGNFRAME
280
     2
  9
$REALWORLDSCALE
290
     1
  9
$INTERFERECOLOR
 62
   256
  9
$CSHADOW
280
     0
  9
$SHADOWPLANELOCATION
 40
0.0
  0
ENDSEC
  0
SECTION
  2
CLASSES
  0
CLASS
  1
ACDBDICTIONARYWDFLT
  2
AcDbDictionaryWithDefault
  3
ObjectDBX Classes
 90
        0
 91
        4
280
     0
281
     0
  0
CLASS
  1
VISUALSTYLE
  2
AcDbVisualStyle
  3
ObjectDBX Classes
 90
     4095
 91
        4
280
     0
281
     0
  0
CLASS
  1
MATERIAL
  2
AcDbMaterial
  3
ObjectDBX Classes
 90
     1153
 91
        4
280
     0
281
     0
  0
CLASS
  1
SUN
  2
AcDbSun
  3
SCENEOE
 90
     1024
 91
        4
280
     0
281
     0
  0
ENDSEC
  0
SECTION
  2
TABLES
  0
TABLE
  2
VPORT
  5
8
330
0
100
AcDbSymbolTable
 70
     1
  0
VPORT
  5
29
330
8
100
AcDbSymbolTableRecord
100
AcDbViewportTableRecord
  2
*Active
 70
     0
 10
0.0
 20
0.0
 11
1.0
 21
1.0
 12
0.0
 22
0.0
 13
0.0
 23
0.0
 14
0.5
 24
0.5
 15
0.5
 25
0.5
 16
0.0
 26
0.0
 36
1.0
 17
394.1978021978034
 27
702.4175824175823
 37
0.0
 40
298.2857142857147
 41
1.811671087533156
 42
50.0
 43
0.0
 44
0.0
 50
0.0
 51
0.0
 71
     0
 72
   100
 73
     1
 74
     3
 75
     0
 76
     0
 77
     0
 78
     0
281
     0
 65
     1
110
0.0
120
0.0
130
0.0
111
1.0
121
0.0
131
0.0
112
0.0
122
1.0
132
0.0
 79
     0
146
0.0
 60
     3
 61
     5
292
     1
282
     1
141
0.0
142
0.0
 63
   250
361
3F
  0
ENDTAB
  0
TABLE
  2
LTYPE
  5
5
330
0
100
AcDbSymbolTable
 70
     1
  0
LTYPE
  5
14
330
5
100
AcDbSymbolTableRecord
100
AcDbLinetypeTableRecord
  2
ByBlock
 70
     0
  3

 72
    65
 73
     0
 40
0.0
  0
LTYPE
  5
15
330
5
100
AcDbSymbolTableRecord
100
AcDbLinetypeTableRecord
  2
ByLayer
 70
     0
  3

 72
    65
 73
     0
 40
0.0
  0
LTYPE
  5
16
330
5
100
AcDbSymbolTableRecord
100
AcDbLinetypeTableRecord
  2
Continuous
 70
     0
  3
Solid line
 72
    65
 73
     0
 40
0.0
  0
ENDTAB
  0
TABLE
  2
LAYER
  5
2
330
0
100
AcDbSymbolTable
 70
     1
  0
LAYER
  5
10
330
2
100
AcDbSymbolTableRecord
100
AcDbLayerTableRecord
  2
0
 70
     0
 62
     7
  6
Continuous
370
    -3
390
F
347
3E
  0
ENDTAB
  0
TABLE
  2
STYLE
  5
3
330
0
100
AcDbSymbolTable
 70
     1
  0
STYLE
  5
11
330
3
100
AcDbSymbolTableRecord
100
AcDbTextStyleTableRecord
  2
Standard
 70
     0
 40
0.0
 41
1.0
 50
0.0
 71
     0
 42
0.2
  3
txt
  4

  0
ENDTAB
  0
TABLE
  2
VIEW
  5
6
330
0
100
AcDbSymbolTable
 70
     0
  0
ENDTAB
  0
TABLE
  2
UCS
  5
7
330
0
100
AcDbSymbolTable
 70
     0
  0
ENDTAB
  0
TABLE
  2
APPID
  5
9
330
0
100
AcDbSymbolTable
 70
     1
  0
APPID
  5
12
330
9
100
AcDbSymbolTableRecord
100
AcDbRegAppTableRecord
  2
ACAD
 70
     0
  0
ENDTAB
  0
TABLE
  2
DIMSTYLE
  5
A
330
0
100
AcDbSymbolTable
 70
     1
100
AcDbDimStyleTable
  0
DIMSTYLE
105
27
330
A
100
AcDbSymbolTableRecord
100
AcDbDimStyleTableRecord
  2
Standard
 70
     0
178
     0
340
11
  0
ENDTAB
  0
TABLE
  2
BLOCK_RECORD
  5
1
330
0
100
AcDbSymbolTable
 70
    10
  0
BLOCK_RECORD
  5
1F
330
1
100
AcDbSymbolTableRecord
100
AcDbBlockTableRecord
  2
*Model_Space
340
22
 70
     0
280
     1
281
     0
  0
BLOCK_RECORD
  5
1B
330
1
100
AcDbSymbolTableRecord
100
AcDbBlockTableRecord
  2
*Paper_Space
340
1E
 70
     0
280
     1
281
     0
  0
BLOCK_RECORD
  5
23
330
1
100
AcDbSymbolTableRecord
100
AcDbBlockTableRecord
  2
*Paper_Space0
340
26
 70
     0
280
     1
281
     0
  0
BLOCK_RECORD
  5
40
330
1
100
AcDbSymbolTableRecord
100
AcDbBlockTableRecord
  2
block 2
340
0
102
{BLKREFS
331
41
102
}
 70
     0
280
     1
281
     0
  0
BLOCK_RECORD
  5
46
330
1
100
AcDbSymbolTableRecord
100
AcDbBlockTableRecord
  2
block 3
340
0
102
{BLKREFS
331
47
102
}
 70
     0
280
     1
281
     0
  0
BLOCK_RECORD
  5
59
330
1
100
AcDbSymbolTableRecord
100
AcDbBlockTableRecord
  2
block 4
340
0
102
{BLKREFS
331
5A
102
}
 70
     0
280
     1
281
     0
  0
BLOCK_RECORD
  5
6A
330
1
100
AcDbSymbolTableRecord
100
AcDbBlockTableRecord
  2
block 5
340
0
102
{BLKREFS
331
6B
102
}
 70
     0
280
     1
281
     0
  0
BLOCK_RECORD
  5
73
330
1
100
AcDbSymbolTableRecord
100
AcDbBlockTableRecord
  2
block 6
340
0
102
{BLKREFS
331
74
102
}
 70
     0
280
     1
281
     0
  0
BLOCK_RECORD
  5
7F
330
1
100
AcDbSymbolTableRecord
100
AcDbBlockTableRecord
  2
block 7
340
0
102
{BLKREFS
331
80
102
}
 70
     0
280
     1
281
     0
  0
BLOCK_RECORD
  5
8B
330
1
100
AcDbSymbolTableRecord
100
AcDbBlockTableRecord
  2
block 8
340
0
102
{BLKREFS
331
8C
102
}
 70
     0
280
     1
281
     0
  0
BLOCK_RECORD
  5
9D
330
1
100
AcDbSymbolTableRecord
100
AcDbBlockTableRecord
  2
block 9
340
0
102
{BLKREFS
331
9E
102
}
 70
     0
280
     1
281
     0
  0
BLOCK_RECORD
  5
B2
330
1
100
AcDbSymbolTableRecord
100
AcDbBlockTableRecord
  2
block 10
340
0
102
{BLKREFS
331
B3
102
}
 70
     0
280
     1
281
     0
  0
ENDTAB
  0
ENDSEC
  0
SECTION
  2
BLOCKS
  0
BLOCK
  5
20
330
1F
100
AcDbEntity
  8
0
100
AcDbBlockBegin
  2
*Model_Space
 70
     0
 10
0.0
 20
0.0
 30
0.0
  3
*Model_Space
  1

  0
ENDBLK
  5
21
330
1F
100
AcDbEntity
  8
0
100
AcDbBlockEnd
  0
BLOCK
  5
1C
330
1B
100
AcDbEntity
 67
     1
  8
0
100
AcDbBlockBegin
  2
*Paper_Space
 70
     0
 10
0.0
 20
0.0
 30
0.0
  3
*Paper_Space
  1

  0
ENDBLK
  5
1D
330
1B
100
AcDbEntity
 67
     1
  8
0
100
AcDbBlockEnd
  0
BLOCK
  5
24
330
23
100
AcDbEntity
  8
0
100
AcDbBlockBegin
  2
*Paper_Space0
 70
     0
 10
0.0
 20
0.0
 30
0.0
  3
*Paper_Space0
  1

  0
ENDBLK
  5
25
330
23
100
AcDbEntity
  8
0
100
AcDbBlockEnd
  0
BLOCK
  5
42
330
40
100
AcDbEntity
  8
0
100
AcDbBlockBegin
  2
block 2
 70
     0
 10
0.0
 20
0.0
 30
0.0
  3
block 2
  1

  0
SPLINE
  5
44
330
40
100
AcDbEntity
  8
0
370
     0
100
AcDbSpline
210
0.0
220
0.0
230
1.0
 70
    11
 71
     3
 72
    53
 73
    49
 74
     0
 42
0.0000000001
 43
0.0000000001
 12
1.0
 22
0.0
 32
0.0
 13
1.0
 23
0.0
 33
0.0
 40
0.0
 40
0.0
 40
0.0
 40
0.0
 40
1.0
 40
1.0
 40
1.0
 40
2.0
 40
2.0
 40
2.0
 40
3.0
 40
3.0
 40
3.0
 40
4.0
 40
4.0
 40
4.0
 40
5.0
 40
5.0
 40
5.0
 40
6.0
 40
6.0
 40
6.0
 40
7.0
 40
7.0
 40
7.0
 40
8.0
 40
8.0
 40
8.0
 40
9.0
 40
9.0
 40
9.0
 40
10.0
 40
10.0
 40
10.0
 40
11.0
 40
11.0
 40
11.0
 40
12.0
 40
12.0
 40
12.0
 40
13.0
 40
13.0
 40
13.0
 40
14.0
 40
14.0
 40
14.0
 40
15.0
 40
15.0
 40
15.0
 40
16.0
 40
16.0
 40
16.0
 40
16.0
 10
554.0750391582715
 20
630.2920828183242
 30
0.0
 10
553.6314228398896
 20
629.7504671204642
 30
0.0
 10
553.1878617089933
 20
629.2088289751382
 30
0.0
 10
552.9389214789735
 20
628.5880289401075
 30
0.0
 10
552.6899812489482
 20
627.9672289050768
 30
0.0
 10
552.6311365191232
 20
627.2691076833007
 30
0.0
 10
552.5722917893072
 20
626.5709864615246
 30
0.0
 10
552.6311367107883
 20
625.8728649140903
 30
0.0
 10
552.6899816322712
 20
625.1747433666606
 30
0.0
 10
552.9389219394616
 20
624.5539428689626
 30
0.0
 10
553.1878622466447
 20
623.9331423712638
 30
0.0
 10
553.6314231115193
 20
623.3915035310993
 30
0.0
 10
554.0750391582715
 20
622.849887136088
 30
0.0
 10
554.616648973064
 20
622.4062544334911
 30
0.0
 10
555.1582812639062
 20
621.9626769883835
 30
0.0
 10
555.7790827032859
 20
621.7137372754623
 30
0.0
 10
556.3998841426601
 20
621.4647975625412
 30
0.0
 10
557.0980127975017
 20
621.4059671805117
 30
0.0
 10
557.7961414523488
 20
621.347136798483
 30
0.0
 10
558.4822286552226
 20
621.4088680551713
 30
0.0
 10
559.1683158580963
 20
621.4705993118641
 30
0.0
 10
559.776707493922
 20
621.7207042184818
 30
0.0
 10
560.385099129755
 20
621.9708091250995
 30
0.0
 10
560.9153584288597
 20
622.4103466339293
 30
0.0
 10
561.4456164933563
 20
622.849887136088
 30
0.0
 10
561.8892331256684
 20
623.391503230223
 30
0.0
 10
562.3327945639958
 20
623.933141774457
 30
0.0
 10
562.5817347048469
 20
624.5539423403034
 30
0.0
 10
562.8306748456926
 20
625.1747429061506
 30
0.0
 10
562.8895193540138
 20
625.8728646838372
 30
0.0
 10
562.9483638623278
 20
626.5709864615246
 30
0.0
 10
562.8895191325046
 20
627.2691076833007
 30
0.0
 10
562.8306744026795
 20
627.9672289050768
 30
0.0
 10
562.5817341726597
 20
628.5880289401075
 30
0.0
 10
562.3327939426345
 20
629.2088289751382
 30
0.0
 10
561.8892328117436
 20
629.7504671204642
 30
0.0
 10
561.4456164933563
 20
630.2920828183242
 30
0.0
 10
560.9153580614966
 20
630.731622263057
 30
0.0
 10
560.385098394665
 20
631.1711587135906
 30
0.0
 10
559.7767067382065
 20
631.4212630748061
 30
0.0
 10
559.1683150817462
 20
631.6713674360253
 30
0.0
 10
558.4822282670484
 20
631.73309881166
 30
0.0
 10
557.7961414523488
 20
631.7948301872948
 30
0.0
 10
557.0980131856122
 20
631.7359996802952
 30
0.0
 10
556.3998849188756
 20
631.6771691732956
 30
0.0
 10
555.7790834619482
 20
631.4282300009381
 30
0.0
 10
555.1582820050226
 20
631.179290828577
 30
0.0
 10
554.6166493429191
 20
630.735714453971
 30
0.0
 10
554.0750391582715
 20
630.2920828183242
 30
0.0
  0
HATCH
  5
45
330
40
100
AcDbEntity
  8
0
 62
     7
420
 16777215
100
AcDbHatch
 10
0.0
 20
0.0
 30
0.0
210
0.0
220
0.0
230
1.0
  2
SOLID
 70
     1
 71
     0
 91
        1
 92
        1
 93
        1
 72
     4
 94
        3
 73
     0
 74
     1
 95
       53
 96
       49
 40
0.0
 40
0.0
 40
0.0
 40
0.0
 40
1.0
 40
1.0
 40
1.0
 40
2.0
 40
2.0
 40
2.0
 40
3.0
 40
3.0
 40
3.0
 40
4.0
 40
4.0
 40
4.0
 40
5.0
 40
5.0
 40
5.0
 40
6.0
 40
6.0
 40
6.0
 40
7.0
 40
7.0
 40
7.0
 40
8.0
 40
8.0
 40
8.0
 40
9.0
 40
9.0
 40
9.0
 40
10.0
 40
10.0
 40
10.0
 40
11.0
 40
11.0
 40
11.0
 40
12.0
 40
12.0
 40
12.0
 40
13.0
 40
13.0
 40
13.0
 40
14.0
 40
14.0
 40
14.0
 40
15.0
 40
15.0
 40
15.0
 40
16.0
 40
16.0
 40
16.0
 40
16.0
 10
554.0750391582715
 20
630.2920828183242
 10
553.6314228398896
 20
629.7504671204642
 10
553.1878617089933
 20
629.2088289751382
 10
552.9389214789735
 20
628.5880289401075
 10
552.6899812489482
 20
627.9672289050768
 10
552.6311365191232
 20
627.2691076833007
 10
552.5722917893072
 20
626.5709864615246
 10
552.6311367107883
 20
625.8728649140903
 10
552.6899816322712
 20
625.1747433666606
 10
552.9389219394616
 20
624.5539428689626
 10
553.1878622466447
 20
623.9331423712638
 10
553.6314231115193
 20
623.3915035310993
 10
554.0750391582715
 20
622.849887136088
 10
554.616648973064
 20
622.4062544334911
 10
555.1582812639062
 20
621.9626769883835
 10
555.7790827032859
 20
621.7137372754623
 10
556.3998841426601
 20
621.4647975625412
 10
557.0980127975017
 20
621.4059671805117
 10
557.7961414523488
 20
621.347136798483
 10
558.4822286552226
 20
621.4088680551713
 10
559.1683158580963
 20
621.4705993118641
 10
559.776707493922
 20
621.7207042184818
 10
560.385099129755
 20
621.9708091250995
 10
560.9153584288597
 20
622.4103466339293
 10
561.4456164933563
 20
622.849887136088
 10
561.8892331256684
 20
623.391503230223
 10
562.3327945639958
 20
623.933141774457
 10
562.5817347048469
 20
624.5539423403034
 10
562.8306748456926
 20
625.1747429061506
 10
562.8895193540138
 20
625.8728646838372
 10
562.9483638623278
 20
626.5709864615246
 10
562.8895191325046
 20
627.2691076833007
 10
562.8306744026795
 20
627.9672289050768
 10
562.5817341726597
 20
628.5880289401075
 10
562.3327939426345
 20
629.2088289751382
 10
561.8892328117436
 20
629.7504671204642
 10
561.4456164933563
 20
630.2920828183242
 10
560.9153580614966
 20
630.731622263057
 10
560.385098394665
 20
631.1711587135906
 10
559.7767067382065
 20
631.4212630748061
 10
559.1683150817462
 20
631.6713674360253
 10
558.4822282670484
 20
631.73309881166
 10
557.7961414523488
 20
631.7948301872948
 10
557.0980131856122
 20
631.7359996802952
 10
556.3998849188756
 20
631.6771691732956
 10
555.7790834619482
 20
631.4282300009381
 10
555.1582820050226
 20
631.179290828577
 10
554.6166493429191
 20
630.735714453971
 10
554.0750391582715
 20
630.2920828183242
 97
        0
 97
        0
 75
     2
 76
     1
 98
        0
  0
ENDBLK
  5
43
330
40
100
AcDbEntity
  8
0
100
AcDbBlockEnd
  0
BLOCK
  5
48
330
46
100
AcDbEntity
  8
0
100
AcDbBlockBegin
  2
block 3
 70
     0
 10
0.0
 20
0.0
 30
0.0
  3
block 3
  1

  0
POLYLINE
  5
4A
330
46
100
AcDbEntity
  8
0
370
     0
100
AcDb2dPolyline
 66
     1
 10
0.0
 20
0.0
 30
0.0
  0
VERTEX
  5
4B
330
4A
100
AcDbEntity
  8
0
370
     0
100
AcDbVertex
100
AcDb2dVertex
 10
172.9488658287091
 20
576.693974579468
 30
0.0
  0
VERTEX
  5
4C
330
4A
100
AcDbEntity
  8
0
370
     0
100
AcDbVertex
100
AcDb2dVertex
 10
150.9800795915644
 20
601.525143543482
 30
0.0
  0
VERTEX
  5
4D
330
4A
100
AcDbEntity
  8
0
370
     0
100
AcDbVertex
100
AcDb2dVertex
 10
172.5910679882263
 20
626.4278655440039
 30
0.0
  0
VERTEX
  5
4E
330
4A
100
AcDbEntity
  8
0
370
     0
100
AcDbVertex
100
AcDb2dVertex
 10
162.3580485538259
 20
626.4278655440039
 30
0.0
  0
VERTEX
  5
4F
330
4A
100
AcDbEntity
  8
0
370
     0
100
AcDbVertex
100
AcDb2dVertex
 10
143.0369710885079
 20
603.7434865937976
 30
0.0
  0
VERTEX
  5
50
330
4A
100
AcDbEntity
  8
0
370
     0
100
AcDbVertex
100
AcDb2dVertex
 10
143.0369710885079
 20
626.4278655440039
 30
0.0
  0
VERTEX
  5
51
330
4A
100
AcDbEntity
  8
0
370
     0
100
AcDbVertex
100
AcDb2dVertex
 10
134.879182693101
 20
626.4278655440039
 30
0.0
  0
VERTEX
  5
52
330
4A
100
AcDbEntity
  8
0
370
     0
100
AcDbVertex
100
AcDb2dVertex
 10
134.879182693101
 20
576.693974579468
 30
0.0
  0
VERTEX
  5
53
330
4A
100
AcDbEntity
  8
0
370
     0
100
AcDbVertex
100
AcDb2dVertex
 10
143.0369710885079
 20
576.693974579468
 30
0.0
  0
VERTEX
  5
54
330
4A
100
AcDbEntity
  8
0
370
     0
100
AcDbVertex
100
AcDb2dVertex
 10
143.0369710885079
 20
598.9489967143763
 30
0.0
  0
VERTEX
  5
55
330
4A
100
AcDbEntity
  8
0
370
     0
100
AcDbVertex
100
AcDb2dVertex
 10
162.2864925484128
 20
576.693974579468
 30
0.0
  0
VERTEX
  5
56
330
4A
100
AcDbEntity
  8
0
370
     0
100
AcDbVertex
100
AcDb2dVertex
 10
172.9488658287091
 20
576.693974579468
 30
0.0
  0
SEQEND
  5
58
330
4A
100
AcDbEntity
  8
0
370
     0
  0
HATCH
  5
57
330
46
100
AcDbEntity
  8
0
 62
     7
420
 16777215
100
AcDbHatch
 10
0.0
 20
0.0
 30
0.0
210
0.0
220
0.0
230
1.0
  2
SOLID
 70
     1
 71
     0
 91
        1
 92
        1
 93
       11
 72
     1
 10
172.9488658287091
 20
576.693974579468
 11
150.9800795915644
 21
601.525143543482
 72
     1
 10
150.9800795915644
 20
601.525143543482
 11
172.5910679882263
 21
626.4278655440039
 72
     1
 10
172.5910679882263
 20
626.4278655440039
 11
162.3580485538259
 21
626.4278655440039
 72
     1
 10
162.3580485538259
 20
626.4278655440039
 11
143.0369710885079
 21
603.7434865937976
 72
     1
 10
143.0369710885079
 20
603.7434865937976
 11
143.0369710885079
 21
626.4278655440039
 72
     1
 10
143.0369710885079
 20
626.4278655440039
 11
134.879182693101
 21
626.4278655440039
 72
     1
 10
134.879182693101
 20
626.4278655440039
 11
134.879182693101
 21
576.693974579468
 72
     1
 10
134.879182693101
 20
576.693974579468
 11
143.0369710885079
 21
576.693974579468
 72
     1
 10
143.0369710885079
 20
576.693974579468
 11
143.0369710885079
 21
598.9489967143763
 72
     1
 10
143.0369710885079
 20
598.9489967143763
 11
162.2864925484128
 21
576.693974579468
 72
     1
 10
162.2864925484128
 20
576.693974579468
 11
172.9488658287091
 21
576.693974579468
 97
        0
 75
     2
 76
     1
 98
        0
  0
ENDBLK
  5
49
330
46
100
AcDbEntity
  8
0
100
AcDbBlockEnd
  0
BLOCK
  5
5B
330
59
100
AcDbEntity
  8
0
100
AcDbBlockBegin
  2
block 4
 70
     0
 10
0.0
 20
0.0
 30
0.0
  3
block 4
  1

  0
POLYLINE
  5
5D
330
59
100
AcDbEntity
  8
0
370
     0
100
AcDb2dPolyline
 66
     1
 10
0.0
 20
0.0
 30
0.0
  0
VERTEX
  5
5E
330
5D
100
AcDbEntity
  8
0
370
     0
100
AcDbVertex
100
AcDb2dVertex
 10
334.8881400732007
 20
626.4278655440039
 30
0.0
  0
VERTEX
  5
5F
330
5D
100
AcDbEntity
  8
0
370
     0
100
AcDbVertex
100
AcDb2dVertex
 10
323.367029413077
 20
602.0260593330986
 30
0.0
  0
VERTEX
  5
60
330
5D
100
AcDbEntity
  8
0
370
     0
100
AcDbVertex
100
AcDb2dVertex
 10
311.8459662509158
 20
626.4278655440039
 30
0.0
  0
VERTEX
  5
61
330
5D
100
AcDbEntity
  8
0
370
     0
100
AcDbVertex
100
AcDb2dVertex
 10
302.7579022821865
 20
626.4278655440039
 30
0.0
  0
VERTEX
  5
62
330
5D
100
AcDbEntity
  8
0
370
     0
100
AcDbVertex
100
AcDb2dVertex
 10
319.2881470897391
 20
594.7269786309807
 30
0.0
  0
VERTEX
  5
63
330
5D
100
AcDbEntity
  8
0
370
     0
100
AcDbVertex
100
AcDb2dVertex
 10
319.2881470897391
 20
576.693974579468
 30
0.0
  0
VERTEX
  5
64
330
5D
100
AcDbEntity
  8
0
370
     0
100
AcDbVertex
100
AcDb2dVertex
 10
327.445935485146
 20
576.693974579468
 30
0.0
  0
VERTEX
  5
65
330
5D
100
AcDbEntity
  8
0
370
     0
100
AcDbVertex
100
AcDb2dVertex
 10
327.445935485146
 20
594.7269786309807
 30
0.0
  0
VERTEX
  5
66
330
5D
100
AcDbEntity
  8
0
370
     0
100
AcDbVertex
100
AcDb2dVertex
 10
343.9046242872846
 20
626.4278655440039
 30
0.0
  0
VERTEX
  5
67
330
5D
100
AcDbEntity
  8
0
370
     0
100
AcDbVertex
100
AcDb2dVertex
 10
334.8881400732007
 20
626.4278655440039
 30
0.0
  0
SEQEND
  5
69
330
5D
100
AcDbEntity
  8
0
370
     0
  0
HATCH
  5
68
330
59
100
AcDbEntity
  8
0
 62
     7
420
 16777215
100
AcDbHatch
 10
0.0
 20
0.0
 30
0.0
210
0.0
220
0.0
230
1.0
  2
SOLID
 70
     1
 71
     0
 91
        1
 92
        1
 93
        9
 72
     1
 10
334.8881400732007
 20
626.4278655440039
 11
323.367029413077
 21
602.0260593330986
 72
     1
 10
323.367029413077
 20
602.0260593330986
 11
311.8459662509158
 21
626.4278655440039
 72
     1
 10
311.8459662509158
 20
626.4278655440039
 11
302.7579022821865
 21
626.4278655440039
 72
     1
 10
302.7579022821865
 20
626.4278655440039
 11
319.2881470897391
 21
594.7269786309807
 72
     1
 10
319.2881470897391
 20
594.7269786309807
 11
319.2881470897391
 21
576.693974579468
 72
     1
 10
319.2881470897391
 20
576.693974579468
 11
327.445935485146
 21
576.693974579468
 72
     1
 10
327.445935485146
 20
576.693974579468
 11
327.445935485146
 21
594.7269786309807
 72
     1
 10
327.445935485146
 20
594.7269786309807
 11
343.9046242872846
 21
626.4278655440039
 72
     1
 10
343.9046242872846
 20
626.4278655440039
 11
334.8881400732007
 21
626.4278655440039
 97
        0
 75
     2
 76
     1
 98
        0
  0
ENDBLK
  5
5C
330
59
100
AcDbEntity
  8
0
100
AcDbBlockEnd
  0
BLOCK
  5
6C
330
6A
100
AcDbEntity
  8
0
100
AcDbBlockBegin
  2
block 5
 70
     0
 10
0.0
 20
0.0
 30
0.0
  3
block 5
  1

  0
SPLINE
  5
6E
330
6A
100
AcDbEntity
  8
0
370
     0
100
AcDbSpline
210
0.0
220
0.0
230
1.0
 70
    11
 71
     3
 72
    83
 73
    79
 74
     0
 42
0.0000000001
 43
0.0000000001
 12
1.0
 22
0.0
 32
0.0
 13
1.0
 23
0.0
 33
0.0
 40
0.0
 40
0.0
 40
0.0
 40
0.0
 40
1.0
 40
1.0
 40
1.0
 40
2.0
 40
2.0
 40
2.0
 40
3.0
 40
3.0
 40
3.0
 40
4.0
 40
4.0
 40
4.0
 40
5.0
 40
5.0
 40
5.0
 40
6.0
 40
6.0
 40
6.0
 40
7.0
 40
7.0
 40
7.0
 40
8.0
 40
8.0
 40
8.0
 40
9.0
 40
9.0
 40
9.0
 40
10.0
 40
10.0
 40
10.0
 40
11.0
 40
11.0
 40
11.0
 40
12.0
 40
12.0
 40
12.0
 40
13.0
 40
13.0
 40
13.0
 40
14.0
 40
14.0
 40
14.0
 40
15.0
 40
15.0
 40
15.0
 40
16.0
 40
16.0
 40
16.0
 40
17.0
 40
17.0
 40
17.0
 40
18.0
 40
18.0
 40
18.0
 40
19.0
 40
19.0
 40
19.0
 40
20.0
 40
20.0
 40
20.0
 40
21.0
 40
21.0
 40
21.0
 40
22.0
 40
22.0
 40
22.0
 40
23.0
 40
23.0
 40
23.0
 40
24.0
 40
24.0
 40
24.0
 40
25.0
 40
25.0
 40
25.0
 40
26.0
 40
26.0
 40
26.0
 40
26.0
 10
621.0547854551387
 20
616.1232901041931
 30
0.0
 10
621.0547854551387
 20
616.1232901041931
 30
0.0
 10
621.0547854551387
 20
576.693974579468
 30
0.0
 10
621.0547854551387
 20
576.693974579468
 30
0.0
 10
621.0547854551387
 20
576.693974579468
 30
0.0
 10
629.2125975992822
 20
576.693974579468
 30
0.0
 10
629.2125975992822
 20
576.693974579468
 30
0.0
 10
629.2125975992822
 20
576.693974579468
 30
0.0
 10
629.2125975992822
 20
598.7343168225234
 30
0.0
 10
629.2125975992822
 20
598.7343168225234
 30
0.0
 10
629.2759649396448
 20
600.2219019048043
 30
0.0
 10
629.3393322797838
 20
601.7094869869306
 30
0.0
 10
629.7669027758693
 20
603.070018173381
 30
0.0
 10
630.1944732719621
 20
604.4305493598295
 30
0.0
 10
631.0426572694869
 20
605.6443476499408
 30
0.0
 10
631.8960546877352
 20
606.8563272149731
 30
0.0
 10
632.9495851270531
 20
607.7195942160106
 30
0.0
 10
634.003729057411
 20
608.5813290257502
 30
0.0
 10
635.2186721887756
 20
609.0414684999523
 30
0.0
 10
636.4336153201457
 20
609.5016079741545
 30
0.0
 10
637.7964982280373
 20
609.5922684719717
 30
0.0
 10
639.1593811359344
 20
609.6829289697889
 30
0.0
 10
640.5177083926574
 20
609.5934033703161
 30
0.0
 10
641.8760356493804
 20
609.5038777708505
 30
0.0
 10
643.0852234284521
 20
609.0442000369931
 30
0.0
 10
644.2944112075311
 20
608.5845223031338
 30
0.0
 10
645.340987841566
 20
607.7212568447994
 30
0.0
 10
646.3868939576078
 20
606.8563272149731
 30
0.0
 10
647.2302985586666
 20
605.6412066307585
 30
0.0
 10
648.068361732765
 20
604.4242456693028
 30
0.0
 10
648.4898733537848
 20
603.0637627609485
 30
0.0
 10
648.9113849747991
 20
601.7032798525925
 30
0.0
 10
648.9730086952277
 20
600.2187983376352
 30
0.0
 10
649.0346324156562
 20
598.7343168226816
 30
0.0
 10
649.0346324158672
 20
598.7343168225234
 30
0.0
 10
649.0346324158672
 20
576.693974579468
 30
0.0
 10
649.0346324158672
 20
576.693974579468
 30
0.0
 10
649.0346324158672
 20
576.693974579468
 30
0.0
 10
657.1208173068972
 20
576.693974579468
 30
0.0
 10
657.1208173068972
 20
576.693974579468
 30
0.0
 10
657.1208173068972
 20
576.693974579468
 30
0.0
 10
657.1208173068972
 20
599.9508282941042
 30
0.0
 10
657.1208173068972
 20
599.9508282941042
 30
0.0
 10
657.0590895618861
 20
601.5439449500955
 30
0.0
 10
656.9973618169006
 20
603.1370616062668
 30
0.0
 10
656.661517135637
 20
604.666011260113
 30
0.0
 10
656.3256724543753
 20
606.1949609139592
 30
0.0
 10
655.6865200384382
 20
607.652910401308
 30
0.0
 10
655.0456218915406
 20
609.1104512370621
 30
0.0
 10
654.300757283363
 20
610.2818261961329
 30
0.0
 10
653.555892675191
 20
611.4532011552037
 30
0.0
 10
652.5972429454523
 20
612.4087890621186
 30
0.0
 10
651.6385932157154
 20
613.3643769690334
 30
0.0
 10
650.4618402704018
 20
614.0998192941988
 30
0.0
 10
649.2850428123056
 20
614.8352166897621
 30
0.0
 10
647.9564158149915
 20
615.4154745883079
 30
0.0
 10
646.6276899920649
 20
615.9953128855586
 30
0.0
 10
645.2371242606605
 20
616.3125866120772
 30
0.0
 10
643.8465585292615
 20
616.6298603385949
 30
0.0
 10
642.3974555286768
 20
616.6985920905945
 30
0.0
 10
640.9483525280848
 20
616.7673238425941
 30
0.0
 10
639.8096040396194
 20
616.7129951173338
 30
0.0
 10
638.6708555511523
 20
616.6586663920725
 30
0.0
 10
637.5674548656007
 20
616.4329929674577
 30
0.0
 10
636.4640541800472
 20
616.2073195428429
 30
0.0
 10
635.3965754098717
 20
615.8075184700474
 30
0.0
 10
634.3291013793096
 20
615.407694422488
 30
0.0
 10
633.3633347353789
 20
614.927308797226
 30
0.0
 10
632.3975680914536
 20
614.4469231719668
 30
0.0
 10
631.5433815047309
 20
613.8167412284429
 30
0.0
 10
630.6891949180081
 20
613.186559284919
 30
0.0
 10
629.9508538567625
 20
612.4008546284849
 30
0.0
 10
629.2125975995059
 20
611.6150361226173
 30
0.0
 10
629.2125975992822
 20
611.6150361225373
 30
0.0
 10
629.2125975992822
 20
616.1232901041931
 30
0.0
 10
629.2125975992822
 20
616.1232901041931
 30
0.0
 10
629.2125975992822
 20
616.1232901041931
 30
0.0
 10
621.0547854551387
 20
616.1232901041931
 30
0.0
 10
621.0547854551387
 20
616.1232901041931
 30
0.0
  0
HATCH
  5
6F
330
6A
100
AcDbEntity
  8
0
 62
     7
420
 16777215
100
AcDbHatch
 10
0.0
 20
0.0
 30
0.0
210
0.0
220
0.0
230
1.0
  2
SOLID
 70
     1
 71
     0
 91
        1
 92
        1
 93
        1
 72
     4
 94
        3
 73
     0
 74
     1
 95
       83
 96
       79
 40
0.0
 40
0.0
 40
0.0
 40
0.0
 40
1.0
 40
1.0
 40
1.0
 40
2.0
 40
2.0
 40
2.0
 40
3.0
 40
3.0
 40
3.0
 40
4.0
 40
4.0
 40
4.0
 40
5.0
 40
5.0
 40
5.0
 40
6.0
 40
6.0
 40
6.0
 40
7.0
 40
7.0
 40
7.0
 40
8.0
 40
8.0
 40
8.0
 40
9.0
 40
9.0
 40
9.0
 40
10.0
 40
10.0
 40
10.0
 40
11.0
 40
11.0
 40
11.0
 40
12.0
 40
12.0
 40
12.0
 40
13.0
 40
13.0
 40
13.0
 40
14.0
 40
14.0
 40
14.0
 40
15.0
 40
15.0
 40
15.0
 40
16.0
 40
16.0
 40
16.0
 40
17.0
 40
17.0
 40
17.0
 40
18.0
 40
18.0
 40
18.0
 40
19.0
 40
19.0
 40
19.0
 40
20.0
 40
20.0
 40
20.0
 40
21.0
 40
21.0
 40
21.0
 40
22.0
 40
22.0
 40
22.0
 40
23.0
 40
23.0
 40
23.0
 40
24.0
 40
24.0
 40
24.0
 40
25.0
 40
25.0
 40
25.0
 40
26.0
 40
26.0
 40
26.0
 40
26.0
 10
621.0547854551387
 20
616.1232901041931
 10
621.0547854551387
 20
616.1232901041931
 10
621.0547854551387
 20
576.693974579468
 10
621.0547854551387
 20
576.693974579468
 10
621.0547854551387
 20
576.693974579468
 10
629.2125975992822
 20
576.693974579468
 10
629.2125975992822
 20
576.693974579468
 10
629.2125975992822
 20
576.693974579468
 10
629.2125975992822
 20
598.7343168225234
 10
629.2125975992822
 20
598.7343168225234
 10
629.2759649396448
 20
600.2219019048043
 10
629.3393322797838
 20
601.7094869869306
 10
629.7669027758693
 20
603.070018173381
 10
630.1944732719621
 20
604.4305493598295
 10
631.0426572694869
 20
605.6443476499408
 10
631.8960546877352
 20
606.8563272149731
 10
632.9495851270531
 20
607.7195942160106
 10
634.003729057411
 20
608.5813290257502
 10
635.2186721887756
 20
609.0414684999523
 10
636.4336153201457
 20
609.5016079741545
 10
637.7964982280373
 20
609.5922684719717
 10
639.1593811359344
 20
609.6829289697889
 10
640.5177083926574
 20
609.5934033703161
 10
641.8760356493804
 20
609.5038777708505
 10
643.0852234284521
 20
609.0442000369931
 10
644.2944112075311
 20
608.5845223031338
 10
645.340987841566
 20
607.7212568447994
 10
646.3868939576078
 20
606.8563272149731
 10
647.2302985586666
 20
605.6412066307585
 10
648.068361732765
 20
604.4242456693028
 10
648.4898733537848
 20
603.0637627609485
 10
648.9113849747991
 20
601.7032798525925
 10
648.9730086952277
 20
600.2187983376352
 10
649.0346324156562
 20
598.7343168226816
 10
649.0346324158672
 20
598.7343168225234
 10
649.0346324158672
 20
576.693974579468
 10
649.0346324158672
 20
576.693974579468
 10
649.0346324158672
 20
576.693974579468
 10
657.1208173068972
 20
576.693974579468
 10
657.1208173068972
 20
576.693974579468
 10
657.1208173068972
 20
576.693974579468
 10
657.1208173068972
 20
599.9508282941042
 10
657.1208173068972
 20
599.9508282941042
 10
657.0590895618861
 20
601.5439449500955
 10
656.9973618169006
 20
603.1370616062668
 10
656.661517135637
 20
604.666011260113
 10
656.3256724543753
 20
606.1949609139592
 10
655.6865200384382
 20
607.652910401308
 10
655.0456218915406
 20
609.1104512370621
 10
654.300757283363
 20
610.2818261961329
 10
653.555892675191
 20
611.4532011552037
 10
652.5972429454523
 20
612.4087890621186
 10
651.6385932157154
 20
613.3643769690334
 10
650.4618402704018
 20
614.0998192941988
 10
649.2850428123056
 20
614.8352166897621
 10
647.9564158149915
 20
615.4154745883079
 10
646.6276899920649
 20
615.9953128855586
 10
645.2371242606605
 20
616.3125866120772
 10
643.8465585292615
 20
616.6298603385949
 10
642.3974555286768
 20
616.6985920905945
 10
640.9483525280848
 20
616.7673238425941
 10
639.8096040396194
 20
616.7129951173338
 10
638.6708555511523
 20
616.6586663920725
 10
637.5674548656007
 20
616.4329929674577
 10
636.4640541800472
 20
616.2073195428429
 10
635.3965754098717
 20
615.8075184700474
 10
634.3291013793096
 20
615.407694422488
 10
633.3633347353789
 20
614.927308797226
 10
632.3975680914536
 20
614.4469231719668
 10
631.5433815047309
 20
613.8167412284429
 10
630.6891949180081
 20
613.186559284919
 10
629.9508538567625
 20
612.4008546284849
 10
629.2125975995059
 20
611.6150361226173
 10
629.2125975992822
 20
611.6150361225373
 10
629.2125975992822
 20
616.1232901041931
 10
629.2125975992822
 20
616.1232901041931
 10
629.2125975992822
 20
616.1232901041931
 10
621.0547854551387
 20
616.1232901041931
 10
621.0547854551387
 20
616.1232901041931
 97
        0
 97
        0
 75
     2
 76
     1
 98
        0
  0
ENDBLK
  5
6D
330
6A
100
AcDbEntity
  8
0
100
AcDbBlockEnd
  0
BLOCK
  5
75
330
73
100
AcDbEntity
  8
0
100
AcDbBlockBegin
  2
block 6
 70
     0
 10
0.0
 20
0.0
 30
0.0
  3
block 6
  1

  0
POLYLINE
  5
77
330
73
100
AcDbEntity
  8
0
370
     0
100
AcDb2dPolyline
 66
     1
 10
0.0
 20
0.0
 30
0.0
  0
VERTEX
  5
78
330
77
100
AcDbEntity
  8
0
370
     0
100
AcDbVertex
100
AcDb2dVertex
 10
553.6456556251305
 20
576.693974579468
 30
0.0
  0
VERTEX
  5
79
330
77
100
AcDbEntity
  8
0
370
     0
100
AcDbVertex
100
AcDb2dVertex
 10
561.8034677697651
 20
576.693974579468
 30
0.0
  0
VERTEX
  5
7A
330
77
100
AcDbEntity
  8
0
370
     0
100
AcDbVertex
100
AcDb2dVertex
 10
561.8034677697651
 20
616.1232901041931
 30
0.0
  0
VERTEX
  5
7B
330
77
100
AcDbEntity
  8
0
370
     0
100
AcDbVertex
100
AcDb2dVertex
 10
553.6456556251305
 20
616.1232901041931
 30
0.0
  0
VERTEX
  5
7C
330
77
100
AcDbEntity
  8
0
370
     0
100
AcDbVertex
100
AcDb2dVertex
 10
553.6456556251305
 20
576.693974579468
 30
0.0
  0
SEQEND
  5
7E
330
77
100
AcDbEntity
  8
0
370
     0
  0
HATCH
  5
7D
330
73
100
AcDbEntity
  8
0
 62
     7
420
 16777215
100
AcDbHatch
 10
0.0
 20
0.0
 30
0.0
210
0.0
220
0.0
230
1.0
  2
SOLID
 70
     1
 71
     0
 91
        1
 92
        1
 93
        4
 72
     1
 10
553.6456556251305
 20
576.693974579468
 11
561.8034677697651
 21
576.693974579468
 72
     1
 10
561.8034677697651
 20
576.693974579468
 11
561.8034677697651
 21
616.1232901041931
 72
     1
 10
561.8034677697651
 20
616.1232901041931
 11
553.6456556251305
 21
616.1232901041931
 72
     1
 10
553.6456556251305
 20
616.1232901041931
 11
553.6456556251305
 21
576.693974579468
 97
        0
 75
     2
 76
     1
 98
        0
  0
ENDBLK
  5
76
330
73
100
AcDbEntity
  8
0
100
AcDbBlockEnd
  0
BLOCK
  5
81
330
7F
100
AcDbEntity
  8
0
100
AcDbBlockBegin
  2
block 7
 70
     0
 10
0.0
 20
0.0
 30
0.0
  3
block 7
  1

  0
SPLINE
  5
83
330
7F
100
AcDbEntity
  8
0
370
     0
100
AcDbSpline
210
0.0
220
0.0
230
1.0
 70
    11
 71
     3
 72
   191
 73
   187
 74
     0
 42
0.0000000001
 43
0.0000000001
 12
1.0
 22
0.0
 32
0.0
 13
1.0
 23
0.0
 33
0.0
 40
0.0
 40
0.0
 40
0.0
 40
0.0
 40
1.0
 40
1.0
 40
1.0
 40
2.0
 40
2.0
 40
2.0
 40
3.0
 40
3.0
 40
3.0
 40
4.0
 40
4.0
 40
4.0
 40
5.0
 40
5.0
 40
5.0
 40
6.0
 40
6.0
 40
6.0
 40
7.0
 40
7.0
 40
7.0
 40
8.0
 40
8.0
 40
8.0
 40
9.0
 40
9.0
 40
9.0
 40
10.0
 40
10.0
 40
10.0
 40
11.0
 40
11.0
 40
11.0
 40
12.0
 40
12.0
 40
12.0
 40
13.0
 40
13.0
 40
13.0
 40
14.0
 40
14.0
 40
14.0
 40
15.0
 40
15.0
 40
15.0
 40
16.0
 40
16.0
 40
16.0
 40
17.0
 40
17.0
 40
17.0
 40
18.0
 40
18.0
 40
18.0
 40
19.0
 40
19.0
 40
19.0
 40
20.0
 40
20.0
 40
20.0
 40
21.0
 40
21.0
 40
21.0
 40
22.0
 40
22.0
 40
22.0
 40
23.0
 40
23.0
 40
23.0
 40
24.0
 40
24.0
 40
24.0
 40
25.0
 40
25.0
 40
25.0
 40
26.0
 40
26.0
 40
26.0
 40
27.0
 40
27.0
 40
27.0
 40
28.0
 40
28.0
 40
28.0
 40
29.0
 40
29.0
 40
29.0
 40
30.0
 40
30.0
 40
30.0
 40
31.0
 40
31.0
 40
31.0
 40
32.0
 40
32.0
 40
32.0
 40
33.0
 40
33.0
 40
33.0
 40
34.0
 40
34.0
 40
34.0
 40
35.0
 40
35.0
 40
35.0
 40
36.0
 40
36.0
 40
36.0
 40
37.0
 40
37.0
 40
37.0
 40
38.0
 40
38.0
 40
38.0
 40
39.0
 40
39.0
 40
39.0
 40
40.0
 40
40.0
 40
40.0
 40
41.0
 40
41.0
 40
41.0
 40
42.0
 40
42.0
 40
42.0
 40
43.0
 40
43.0
 40
43.0
 40
44.0
 40
44.0
 40
44.0
 40
45.0
 40
45.0
 40
45.0
 40
46.0
 40
46.0
 40
46.0
 40
47.0
 40
47.0
 40
47.0
 40
48.0
 40
48.0
 40
48.0
 40
49.0
 40
49.0
 40
49.0
 40
50.0
 40
50.0
 40
50.0
 40
51.0
 40
51.0
 40
51.0
 40
52.0
 40
52.0
 40
52.0
 40
53.0
 40
53.0
 40
53.0
 40
54.0
 40
54.0
 40
54.0
 40
55.0
 40
55.0
 40
55.0
 40
56.0
 40
56.0
 40
56.0
 40
57.0
 40
57.0
 40
57.0
 40
58.0
 40
58.0
 40
58.0
 40
59.0
 40
59.0
 40
59.0
 40
60.0
 40
60.0
 40
60.0
 40
61.0
 40
61.0
 40
61.0
 40
62.0
 40
62.0
 40
62.0
 40
62.0
 10
521.7301570988802
 20
588.7875392235237
 30
0.0
 10
521.8971762767542
 20
587.9584446359713
 30
0.0
 10
522.0645012508412
 20
587.1295228433846
 30
0.0
 10
522.4678963424449
 20
586.4339961860915
 30
0.0
 10
522.8712914340449
 20
585.7384695288001
 30
0.0
 10
523.4993407989841
 20
585.1698873043824
 30
0.0
 10
524.1273901639306
 20
584.6013050799647
 30
0.0
 10
524.9655985852642
 20
584.0863796127178
 30
0.0
 10
525.804129025626
 20
583.5724728278037
 30
0.0
 10
526.7186925832102
 20
583.2990909377222
 30
0.0
 10
527.6332561407871
 20
583.0257090476407
 30
0.0
 10
528.6174769312947
 20
582.9726824347999
 30
0.0
 10
529.6016977217951
 20
582.9196558219592
 30
0.0
 10
530.5420217862593
 20
582.945074090072
 30
0.0
 10
531.4823458507235
 20
582.9704923581794
 30
0.0
 10
532.3740856045752
 20
583.179045128647
 30
0.0
 10
533.265825358425
 20
583.3875978991127
 30
0.0
 10
534.0998896234105
 20
583.8135536092723
 30
0.0
 10
534.9328932680801
 20
584.2435072391709
 30
0.0
 10
535.4685604720125
 20
584.6899012626563
 30
0.0
 10
536.0042276759432
 20
585.1362952861418
 30
0.0
 10
536.3248249759035
 20
585.7003234234853
 30
0.0
 10
536.6454222758621
 20
586.2643515608252
 30
0.0
 10
536.7375395942145
 20
586.9533485556058
 30
0.0
 10
536.8292105434684
 20
587.642589695346
 30
0.0
 10
536.7322473890363
 20
588.3524075309124
 30
0.0
 10
536.6350747370252
 20
589.0620928685257
 30
0.0
 10
536.2798766477936
 20
589.6085885244283
 30
0.0
 10
535.9246785585619
 20
590.155084180331
 30
0.0
 10
535.321440030084
 20
590.5447052243071
 30
0.0
 10
534.718201501606
 20
590.9343262682851
 30
0.0
 10
533.6316802680958
 20
591.4070459771865
 30
0.0
 10
532.5438390295076
 20
591.8761141156592
 30
0.0
 10
531.4263211740454
 20
592.2630869214208
 30
0.0
 10
530.3088033185777
 20
592.6500597271843
 30
0.0
 10
529.1681107073509
 20
592.9729234974438
 30
0.0
 10
528.027418096126
 20
593.295787267707
 30
0.0
 10
526.805886685006
 20
593.6380348607072
 30
0.0
 10
525.5843552738934
 20
593.980282453711
 30
0.0
 10
524.3787224175703
 20
594.3706876839042
 30
0.0
 10
523.1730895612491
 20
594.7610929140974
 30
0.0
 10
521.9863246202003
 20
595.2086501452122
 30
0.0
 10
520.7999052744508
 20
595.6572542043996
 30
0.0
 10
519.8899893613434
 20
596.0968751235832
 30
0.0
 10
518.9800895022272
 20
596.5365182069509
 30
0.0
 10
518.1756482945766
 20
597.1217577829575
 30
0.0
 10
517.371207086926
 20
597.7069973589623
 30
0.0
 10
516.6704163023733
 20
598.4353369827531
 30
0.0
 10
515.9696255178278
 20
599.1636766065421
 30
0.0
 10
515.3383553578569
 20
600.102350574336
 30
0.0
 10
514.7089362735096
 20
601.0416531331884
 30
0.0
 10
514.3792531426225
 20
602.082740479209
 30
0.0
 10
514.0495700117426
 20
603.1238278252295
 30
0.0
 10
513.98985937221
 20
604.2565928370641
 30
0.0
 10
513.9301487326702
 20
605.3893578489005
 30
0.0
 10
514.0095832664265
 20
606.4237457740546
 30
0.0
 10
514.089028898592
 20
607.4581301242633
 30
0.0
 10
514.3998706781058
 20
608.4179786455079
 30
0.0
 10
514.7107124576178
 20
609.3778271667525
 30
0.0
 10
515.250706168661
 20
610.2638627513043
 30
0.0
 10
515.7906998797025
 20
611.1498983358615
 30
0.0
 10
516.5335806564617
 20
612.0220606379235
 30
0.0
 10
517.2769816608507
 20
612.8935572315349
 30
0.0
 10
518.1694157912243
 20
613.5743438279405
 30
0.0
 10
519.061849921598
 20
614.2551304243425
 30
0.0
 10
520.0918726737891
 20
614.7598519646644
 30
0.0
 10
521.1218954259875
 20
615.2645735049864
 30
0.0
 10
522.411469137056
 20
615.7233573501162
 30
0.0
 10
523.7011976880185
 20
616.181339591757
 30
0.0
 10
525.0321287219685
 20
616.4260172779414
 30
0.0
 10
526.3630597559186
 20
616.670694964122
 30
0.0
 10
527.7319208440294
 20
616.7190094033585
 30
0.0
 10
529.1007819321403
 20
616.7673238425941
 30
0.0
 10
531.060883103155
 20
616.6710081806632
 30
0.0
 10
533.0209842741679
 20
616.5746925187323
 30
0.0
 10
534.8338463683558
 20
616.0265421189906
 30
0.0
 10
536.6467084625438
 20
615.478391719249
 30
0.0
 10
538.2949631258489
 20
614.4251080561098
 30
0.0
 10
539.9420511646476
 20
613.3682443550524
 30
0.0
 10
541.1891734871006
 20
612.071479488066
 30
0.0
 10
542.4355562596593
 20
610.7743579360722
 30
0.0
 10
543.1601385002778
 20
609.2255719214045
 30
0.0
 10
543.884720740889
 20
607.6767859067313
 30
0.0
 10
544.1138340646066
 20
605.8890351706596
 30
0.0
 10
544.3429473883243
 20
604.101284434586
 30
0.0
 10
544.3429473884007
 20
604.1012844347788
 30
0.0
 10
536.1851352442573
 20
604.1012844347788
 30
0.0
 10
536.185135244039
 20
604.101284434586
 30
0.0
 10
536.0504311254263
 20
604.9194620053822
 30
0.0
 10
535.9157270068117
 20
605.7376395761748
 30
0.0
 10
535.5605625138287
 20
606.442654884775
 30
0.0
 10
535.2053980208475
 20
607.1476701933752
 30
0.0
 10
534.6219743211714
 20
607.7355201008468
 30
0.0
 10
534.0384075720012
 20
608.3232965810457
 30
0.0
 10
533.2415009141678
 20
608.8191498248907
 30
0.0
 10
532.4438343569454
 20
609.3125969850953
 30
0.0
 10
531.5699586035789
 20
609.5647415434723
 30
0.0
 10
530.6960828502197
 20
609.8168861018494
 30
0.0
 10
529.7553203795906
 20
609.8572459974657
 30
0.0
 10
528.8145579089596
 20
609.8976058930803
 30
0.0
 10
527.9435688747799
 20
609.876370330092
 30
0.0
 10
527.0725798405983
 20
609.8551347671037
 30
0.0
 10
526.2464725348436
 20
609.664356530915
 30
0.0
 10
525.4203652290889
 20
609.4735782947264
 30
0.0
 10
524.6480834056965
 20
609.0794719674723
 30
0.0
 10
523.8769322690987
 20
608.6810944218378
 30
0.0
 10
523.3832592353338
 20
608.2540266416509
 30
0.0
 10
522.8895862015688
 20
607.8269588614621
 30
0.0
 10
522.6013622859355
 20
607.2913106810647
 30
0.0
 10
522.3131383703003
 20
606.7556625006655
 30
0.0
 10
522.2362720049787
 20
606.108311298085
 30
0.0
 10
522.1594931336531
 20
605.460913854693
 30
0.0
 10
522.2069816018466
 20
604.9576095573957
 30
0.0
 10
522.25447007004
 20
604.4543052600966
 30
0.0
 10
522.4452188406576
 20
604.0129855091254
 30
0.0
 10
522.6359676112734
 20
603.5716657581561
 30
0.0
 10
522.9702258085144
 20
603.1924383422756
 30
0.0
 10
523.3044842227373
 20
602.813211020275
 30
0.0
 10
523.7265860494499
 20
602.4619877243404
 30
0.0
 10
524.1487562260118
 20
602.1108771192885
 30
0.0
 10
524.6146719693479
 20
601.8318914141291
 30
0.0
 10
525.0805877126859
 20
601.5529057089661
 30
0.0
 10
525.5879374534397
 20
601.3422337356187
 30
0.0
 10
526.095287194199
 20
601.1315617622731
 30
0.0
 10
526.899419436837
 20
600.853618006322
 30
0.0
 10
527.7038282299818
 20
600.5765409657615
 30
0.0
 10
528.5153707907302
 20
600.3218213104592
 30
0.0
 10
529.3269133514823
 20
600.0671016551587
 30
0.0
 10
530.1440994662371
 20
599.8300690227788
 30
0.0
 10
530.9612855809974
 20
599.5930363904026
 30
0.0
 10
532.1560086309837
 20
599.2651985343018
 30
0.0
 10
533.3507316809646
 20
598.9373606781955
 30
0.0
 10
534.526666522137
 20
598.5532286779344
 30
0.0
 10
535.7026013633094
 20
598.1690966776714
 30
0.0
 10
536.8564396440106
 20
597.7187578892481
 30
0.0
 10
538.009920262728
 20
597.2673474566091
 30
0.0
 10
538.9017349982114
 20
596.8243520825072
 30
0.0
 10
539.7935467557072
 20
596.3813526213489
 30
0.0
 10
540.5864169371489
 20
595.8025637313804
 30
0.0
 10
541.3792871185924
 20
595.2237748414154
 30
0.0
 10
542.0739774406193
 20
594.5102419180257
 30
0.0
 10
542.7686677626461
 20
593.796708994636
 30
0.0
 10
543.3937279354122
 20
592.8816021524672
 30
0.0
 10
544.0169193731981
 20
591.9658349900383
 30
0.0
 10
544.3527423561809
 20
590.9485257606939
 30
0.0
 10
544.6885653391673
 20
589.9312165313513
 30
0.0
 10
544.7662142585705
 20
588.8226811162476
 30
0.0
 10
544.8438631779773
 20
587.7141457011421
 30
0.0
 10
544.7703728518882
 20
586.6386583456297
 30
0.0
 10
544.6968825257973
 20
585.563170990119
 30
0.0
 10
544.3884109188821
 20
584.5608354969409
 30
0.0
 10
544.0799393119651
 20
583.5585000037663
 30
0.0
 10
543.5316745720684
 20
582.6308143473343
 30
0.0
 10
542.9833595291202
 20
581.7031443507167
 30
0.0
 10
542.2530075102222
 20
580.8279682120301
 30
0.0
 10
541.5222841228879
 20
579.9532578334856
 30
0.0
 10
540.6423435344586
 20
579.2656915887055
 30
0.0
 10
539.7624029460294
 20
578.5781253439236
 30
0.0
 10
538.7430495927856
 20
578.0654067769883
 30
0.0
 10
537.7236962395418
 20
577.552688210053
 30
0.0
 10
536.4351276685393
 20
577.0898552653016
 30
0.0
 10
535.1463369946487
 20
576.628166148852
 30
0.0
 10
533.8151899972145
 20
576.3846117995108
 30
0.0
 10
532.484042999773
 20
576.1410574501733
 30
0.0
 10
531.1144501156687
 20
576.0954991456274
 30
0.0
 10
529.7448572315698
 20
576.0499408410815
 30
0.0
 10
528.3095573379887
 20
576.1073951673607
 30
0.0
 10
526.8742574444059
 20
576.1648494936435
 30
0.0
 10
525.4837538841584
 20
576.4400341986984
 30
0.0
 10
524.093250323911
 20
576.7152189037533
 30
0.0
 10
522.7506277783668
 20
577.2231269299627
 30
0.0
 10
521.4081194491682
 20
577.731590099087
 30
0.0
 10
520.2895129194858
 20
578.3097101493277
 30
0.0
 10
519.1709063898088
 20
578.8878301995683
 30
0.0
 10
518.1960242007335
 20
579.6475044898216
 30
0.0
 10
517.2211420116582
 20
580.4071787800767
 30
0.0
 10
516.3984657038854
 20
581.3591212900974
 30
0.0
 10
515.5760556114092
 20
582.3114000863388
 30
0.0
 10
514.9451905961814
 20
583.3027203773527
 30
0.0
 10
514.3143255809537
 20
584.2940406683629
 30
0.0
 10
513.932350847117
 20
585.3732845168561
 30
0.0
 10
513.550376113275
 20
586.4525283653493
 30
0.0
 10
513.41824760091
 20
587.6200334689256
 30
0.0
 10
513.2861209312559
 20
588.7875392236965
 30
0.0
 10
513.2861209312559
 20
588.7875392236965
 30
0.0
 10
521.7301570990458
 20
588.7875392236965
 30
0.0
 10
521.7301570988802
 20
588.7875392235237
 30
0.0
  0
HATCH
  5
84
330
7F
100
AcDbEntity
  8
0
 62
     7
420
 16777215
100
AcDbHatch
 10
0.0
 20
0.0
 30
0.0
210
0.0
220
0.0
230
1.0
  2
SOLID
 70
     1
 71
     0
 91
        1
 92
        1
 93
        1
 72
     4
 94
        3
 73
     0
 74
     1
 95
      191
 96
      187
 40
0.0
 40
0.0
 40
0.0
 40
0.0
 40
1.0
 40
1.0
 40
1.0
 40
2.0
 40
2.0
 40
2.0
 40
3.0
 40
3.0
 40
3.0
 40
4.0
 40
4.0
 40
4.0
 40
5.0
 40
5.0
 40
5.0
 40
6.0
 40
6.0
 40
6.0
 40
7.0
 40
7.0
 40
7.0
 40
8.0
 40
8.0
 40
8.0
 40
9.0
 40
9.0
 40
9.0
 40
10.0
 40
10.0
 40
10.0
 40
11.0
 40
11.0
 40
11.0
 40
12.0
 40
12.0
 40
12.0
 40
13.0
 40
13.0
 40
13.0
 40
14.0
 40
14.0
 40
14.0
 40
15.0
 40
15.0
 40
15.0
 40
16.0
 40
16.0
 40
16.0
 40
17.0
 40
17.0
 40
17.0
 40
18.0
 40
18.0
 40
18.0
 40
19.0
 40
19.0
 40
19.0
 40
20.0
 40
20.0
 40
20.0
 40
21.0
 40
21.0
 40
21.0
 40
22.0
 40
22.0
 40
22.0
 40
23.0
 40
23.0
 40
23.0
 40
24.0
 40
24.0
 40
24.0
 40
25.0
 40
25.0
 40
25.0
 40
26.0
 40
26.0
 40
26.0
 40
27.0
 40
27.0
 40
27.0
 40
28.0
 40
28.0
 40
28.0
 40
29.0
 40
29.0
 40
29.0
 40
30.0
 40
30.0
 40
30.0
 40
31.0
 40
31.0
 40
31.0
 40
32.0
 40
32.0
 40
32.0
 40
33.0
 40
33.0
 40
33.0
 40
34.0
 40
34.0
 40
34.0
 40
35.0
 40
35.0
 40
35.0
 40
36.0
 40
36.0
 40
36.0
 40
37.0
 40
37.0
 40
37.0
 40
38.0
 40
38.0
 40
38.0
 40
39.0
 40
39.0
 40
39.0
 40
40.0
 40
40.0
 40
40.0
 40
41.0
 40
41.0
 40
41.0
 40
42.0
 40
42.0
 40
42.0
 40
43.0
 40
43.0
 40
43.0
 40
44.0
 40
44.0
 40
44.0
 40
45.0
 40
45.0
 40
45.0
 40
46.0
 40
46.0
 40
46.0
 40
47.0
 40
47.0
 40
47.0
 40
48.0
 40
48.0
 40
48.0
 40
49.0
 40
49.0
 40
49.0
 40
50.0
 40
50.0
 40
50.0
 40
51.0
 40
51.0
 40
51.0
 40
52.0
 40
52.0
 40
52.0
 40
53.0
 40
53.0
 40
53.0
 40
54.0
 40
54.0
 40
54.0
 40
55.0
 40
55.0
 40
55.0
 40
56.0
 40
56.0
 40
56.0
 40
57.0
 40
57.0
 40
57.0
 40
58.0
 40
58.0
 40
58.0
 40
59.0
 40
59.0
 40
59.0
 40
60.0
 40
60.0
 40
60.0
 40
61.0
 40
61.0
 40
61.0
 40
62.0
 40
62.0
 40
62.0
 40
62.0
 10
521.7301570988802
 20
588.7875392235237
 10
521.8971762767542
 20
587.9584446359713
 10
522.0645012508412
 20
587.1295228433846
 10
522.4678963424449
 20
586.4339961860915
 10
522.8712914340449
 20
585.7384695288001
 10
523.4993407989841
 20
585.1698873043824
 10
524.1273901639306
 20
584.6013050799647
 10
524.9655985852642
 20
584.0863796127178
 10
525.804129025626
 20
583.5724728278037
 10
526.7186925832102
 20
583.2990909377222
 10
527.6332561407871
 20
583.0257090476407
 10
528.6174769312947
 20
582.9726824347999
 10
529.6016977217951
 20
582.9196558219592
 10
530.5420217862593
 20
582.945074090072
 10
531.4823458507235
 20
582.9704923581794
 10
532.3740856045752
 20
583.179045128647
 10
533.265825358425
 20
583.3875978991127
 10
534.0998896234105
 20
583.8135536092723
 10
534.9328932680801
 20
584.2435072391709
 10
535.4685604720125
 20
584.6899012626563
 10
536.0042276759432
 20
585.1362952861418
 10
536.3248249759035
 20
585.7003234234853
 10
536.6454222758621
 20
586.2643515608252
 10
536.7375395942145
 20
586.9533485556058
 10
536.8292105434684
 20
587.642589695346
 10
536.7322473890363
 20
588.3524075309124
 10
536.6350747370252
 20
589.0620928685257
 10
536.2798766477936
 20
589.6085885244283
 10
535.9246785585619
 20
590.155084180331
 10
535.321440030084
 20
590.5447052243071
 10
534.718201501606
 20
590.9343262682851
 10
533.6316802680958
 20
591.4070459771865
 10
532.5438390295076
 20
591.8761141156592
 10
531.4263211740454
 20
592.2630869214208
 10
530.3088033185777
 20
592.6500597271843
 10
529.1681107073509
 20
592.9729234974438
 10
528.027418096126
 20
593.295787267707
 10
526.805886685006
 20
593.6380348607072
 10
525.5843552738934
 20
593.980282453711
 10
524.3787224175703
 20
594.3706876839042
 10
523.1730895612491
 20
594.7610929140974
 10
521.9863246202003
 20
595.2086501452122
 10
520.7999052744508
 20
595.6572542043996
 10
519.8899893613434
 20
596.0968751235832
 10
518.9800895022272
 20
596.5365182069509
 10
518.1756482945766
 20
597.1217577829575
 10
517.371207086926
 20
597.7069973589623
 10
516.6704163023733
 20
598.4353369827531
 10
515.9696255178278
 20
599.1636766065421
 10
515.3383553578569
 20
600.102350574336
 10
514.7089362735096
 20
601.0416531331884
 10
514.3792531426225
 20
602.082740479209
 10
514.0495700117426
 20
603.1238278252295
 10
513.98985937221
 20
604.2565928370641
 10
513.9301487326702
 20
605.3893578489005
 10
514.0095832664265
 20
606.4237457740546
 10
514.089028898592
 20
607.4581301242633
 10
514.3998706781058
 20
608.4179786455079
 10
514.7107124576178
 20
609.3778271667525
 10
515.250706168661
 20
610.2638627513043
 10
515.7906998797025
 20
611.1498983358615
 10
516.5335806564617
 20
612.0220606379235
 10
517.2769816608507
 20
612.8935572315349
 10
518.1694157912243
 20
613.5743438279405
 10
519.061849921598
 20
614.2551304243425
 10
520.0918726737891
 20
614.7598519646644
 10
521.1218954259875
 20
615.2645735049864
 10
522.411469137056
 20
615.7233573501162
 10
523.7011976880185
 20
616.181339591757
 10
525.0321287219685
 20
616.4260172779414
 10
526.3630597559186
 20
616.670694964122
 10
527.7319208440294
 20
616.7190094033585
 10
529.1007819321403
 20
616.7673238425941
 10
531.060883103155
 20
616.6710081806632
 10
533.0209842741679
 20
616.5746925187323
 10
534.8338463683558
 20
616.0265421189906
 10
536.6467084625438
 20
615.478391719249
 10
538.2949631258489
 20
614.4251080561098
 10
539.9420511646476
 20
613.3682443550524
 10
541.1891734871006
 20
612.071479488066
 10
542.4355562596593
 20
610.7743579360722
 10
543.1601385002778
 20
609.2255719214045
 10
543.884720740889
 20
607.6767859067313
 10
544.1138340646066
 20
605.8890351706596
 10
544.3429473883243
 20
604.101284434586
 10
544.3429473884007
 20
604.1012844347788
 10
536.1851352442573
 20
604.1012844347788
 10
536.185135244039
 20
604.101284434586
 10
536.0504311254263
 20
604.9194620053822
 10
535.9157270068117
 20
605.7376395761748
 10
535.5605625138287
 20
606.442654884775
 10
535.2053980208475
 20
607.1476701933752
 10
534.6219743211714
 20
607.7355201008468
 10
534.0384075720012
 20
608.3232965810457
 10
533.2415009141678
 20
608.8191498248907
 10
532.4438343569454
 20
609.3125969850953
 10
531.5699586035789
 20
609.5647415434723
 10
530.6960828502197
 20
609.8168861018494
 10
529.7553203795906
 20
609.8572459974657
 10
528.8145579089596
 20
609.8976058930803
 10
527.9435688747799
 20
609.876370330092
 10
527.0725798405983
 20
609.8551347671037
 10
526.2464725348436
 20
609.664356530915
 10
525.4203652290889
 20
609.4735782947264
 10
524.6480834056965
 20
609.0794719674723
 10
523.8769322690987
 20
608.6810944218378
 10
523.3832592353338
 20
608.2540266416509
 10
522.8895862015688
 20
607.8269588614621
 10
522.6013622859355
 20
607.2913106810647
 10
522.3131383703003
 20
606.7556625006655
 10
522.2362720049787
 20
606.108311298085
 10
522.1594931336531
 20
605.460913854693
 10
522.2069816018466
 20
604.9576095573957
 10
522.25447007004
 20
604.4543052600966
 10
522.4452188406576
 20
604.0129855091254
 10
522.6359676112734
 20
603.5716657581561
 10
522.9702258085144
 20
603.1924383422756
 10
523.3044842227373
 20
602.813211020275
 10
523.7265860494499
 20
602.4619877243404
 10
524.1487562260118
 20
602.1108771192885
 10
524.6146719693479
 20
601.8318914141291
 10
525.0805877126859
 20
601.5529057089661
 10
525.5879374534397
 20
601.3422337356187
 10
526.095287194199
 20
601.1315617622731
 10
526.899419436837
 20
600.853618006322
 10
527.7038282299818
 20
600.5765409657615
 10
528.5153707907302
 20
600.3218213104592
 10
529.3269133514823
 20
600.0671016551587
 10
530.1440994662371
 20
599.8300690227788
 10
530.9612855809974
 20
599.5930363904026
 10
532.1560086309837
 20
599.2651985343018
 10
533.3507316809646
 20
598.9373606781955
 10
534.526666522137
 20
598.5532286779344
 10
535.7026013633094
 20
598.1690966776714
 10
536.8564396440106
 20
597.7187578892481
 10
538.009920262728
 20
597.2673474566091
 10
538.9017349982114
 20
596.8243520825072
 10
539.7935467557072
 20
596.3813526213489
 10
540.5864169371489
 20
595.8025637313804
 10
541.3792871185924
 20
595.2237748414154
 10
542.0739774406193
 20
594.5102419180257
 10
542.7686677626461
 20
593.796708994636
 10
543.3937279354122
 20
592.8816021524672
 10
544.0169193731981
 20
591.9658349900383
 10
544.3527423561809
 20
590.9485257606939
 10
544.6885653391673
 20
589.9312165313513
 10
544.7662142585705
 20
588.8226811162476
 10
544.8438631779773
 20
587.7141457011421
 10
544.7703728518882
 20
586.6386583456297
 10
544.6968825257973
 20
585.563170990119
 10
544.3884109188821
 20
584.5608354969409
 10
544.0799393119651
 20
583.5585000037663
 10
543.5316745720684
 20
582.6308143473343
 10
542.9833595291202
 20
581.7031443507167
 10
542.2530075102222
 20
580.8279682120301
 10
541.5222841228879
 20
579.9532578334856
 10
540.6423435344586
 20
579.2656915887055
 10
539.7624029460294
 20
578.5781253439236
 10
538.7430495927856
 20
578.0654067769883
 10
537.7236962395418
 20
577.552688210053
 10
536.4351276685393
 20
577.0898552653016
 10
535.1463369946487
 20
576.628166148852
 10
533.8151899972145
 20
576.3846117995108
 10
532.484042999773
 20
576.1410574501733
 10
531.1144501156687
 20
576.0954991456274
 10
529.7448572315698
 20
576.0499408410815
 10
528.3095573379887
 20
576.1073951673607
 10
526.8742574444059
 20
576.1648494936435
 10
525.4837538841584
 20
576.4400341986984
 10
524.093250323911
 20
576.7152189037533
 10
522.7506277783668
 20
577.2231269299627
 10
521.4081194491682
 20
577.731590099087
 10
520.2895129194858
 20
578.3097101493277
 10
519.1709063898088
 20
578.8878301995683
 10
518.1960242007335
 20
579.6475044898216
 10
517.2211420116582
 20
580.4071787800767
 10
516.3984657038854
 20
581.3591212900974
 10
515.5760556114092
 20
582.3114000863388
 10
514.9451905961814
 20
583.3027203773527
 10
514.3143255809537
 20
584.2940406683629
 10
513.932350847117
 20
585.3732845168561
 10
513.550376113275
 20
586.4525283653493
 10
513.41824760091
 20
587.6200334689256
 10
513.2861209312559
 20
588.7875392236965
 10
513.2861209312559
 20
588.7875392236965
 10
521.7301570990458
 20
588.7875392236965
 10
521.7301570988802
 20
588.7875392235237
 97
        0
 97
        0
 75
     2
 76
     1
 98
        0
  0
ENDBLK
  5
82
330
7F
100
AcDbEntity
  8
0
100
AcDbBlockEnd
  0
BLOCK
  5
8D
330
8B
100
AcDbEntity
  8
0
100
AcDbBlockBegin
  2
block 8
 70
     0
 10
0.0
 20
0.0
 30
0.0
  3
block 8
  1

  0
POLYLINE
  5
8F
330
8B
100
AcDbEntity
  8
0
370
     0
100
AcDb2dPolyline
 66
     1
 10
0.0
 20
0.0
 30
0.0
  0
VERTEX
  5
90
330
8F
100
AcDbEntity
  8
0
370
     0
100
AcDbVertex
100
AcDb2dVertex
 10
391.2054952775597
 20
576.693974579468
 30
0.0
  0
VERTEX
  5
91
330
8F
100
AcDbEntity
  8
0
370
     0
100
AcDbVertex
100
AcDb2dVertex
 10
383.0477068826513
 20
576.693974579468
 30
0.0
  0
VERTEX
  5
92
330
8F
100
AcDbEntity
  8
0
370
     0
100
AcDbVertex
100
AcDb2dVertex
 10
358.5027856910165
 20
613.8333821417546
 30
0.0
  0
VERTEX
  5
93
330
8F
100
AcDbEntity
  8
0
370
     0
100
AcDbVertex
100
AcDb2dVertex
 10
358.5027856910165
 20
576.693974579468
 30
0.0
  0
VERTEX
  5
94
330
8F
100
AcDbEntity
  8
0
370
     0
100
AcDbVertex
100
AcDb2dVertex
 10
350.344997296108
 20
576.693974579468
 30
0.0
  0
VERTEX
  5
95
330
8F
100
AcDbEntity
  8
0
370
     0
100
AcDbVertex
100
AcDb2dVertex
 10
350.344997296108
 20
626.4994245183225
 30
0.0
  0
VERTEX
  5
96
330
8F
100
AcDbEntity
  8
0
370
     0
100
AcDbVertex
100
AcDb2dVertex
 10
358.5027856910165
 20
626.4994245183225
 30
0.0
  0
VERTEX
  5
97
330
8F
100
AcDbEntity
  8
0
370
     0
100
AcDbVertex
100
AcDb2dVertex
 10
383.0477068826513
 20
589.431572961943
 30
0.0
  0
VERTEX
  5
98
330
8F
100
AcDbEntity
  8
0
370
     0
100
AcDbVertex
100
AcDb2dVertex
 10
383.0477068826513
 20
626.4994245183225
 30
0.0
  0
VERTEX
  5
99
330
8F
100
AcDbEntity
  8
0
370
     0
100
AcDbVertex
100
AcDb2dVertex
 10
391.2054952775597
 20
626.4994245183225
 30
0.0
  0
VERTEX
  5
9A
330
8F
100
AcDbEntity
  8
0
370
     0
100
AcDbVertex
100
AcDb2dVertex
 10
391.2054952775597
 20
576.693974579468
 30
0.0
  0
SEQEND
  5
9C
330
8F
100
AcDbEntity
  8
0
370
     0
  0
HATCH
  5
9B
330
8B
100
AcDbEntity
  8
0
 62
     7
420
 16777215
100
AcDbHatch
 10
0.0
 20
0.0
 30
0.0
210
0.0
220
0.0
230
1.0
  2
SOLID
 70
     1
 71
     0
 91
        1
 92
        1
 93
       10
 72
     1
 10
391.2054952775597
 20
576.693974579468
 11
383.0477068826513
 21
576.693974579468
 72
     1
 10
383.0477068826513
 20
576.693974579468
 11
358.5027856910165
 21
613.8333821417546
 72
     1
 10
358.5027856910165
 20
613.8333821417546
 11
358.5027856910165
 21
576.693974579468
 72
     1
 10
358.5027856910165
 20
576.693974579468
 11
350.344997296108
 21
576.693974579468
 72
     1
 10
350.344997296108
 20
576.693974579468
 11
350.344997296108
 21
626.4994245183225
 72
     1
 10
350.344997296108
 20
626.4994245183225
 11
358.5027856910165
 21
626.4994245183225
 72
     1
 10
358.5027856910165
 20
626.4994245183225
 11
383.0477068826513
 21
589.431572961943
 72
     1
 10
383.0477068826513
 20
589.431572961943
 11
383.0477068826513
 21
626.4994245183225
 72
     1
 10
383.0477068826513
 20
626.4994245183225
 11
391.2054952775597
 21
626.4994245183225
 72
     1
 10
391.2054952775597
 20
626.4994245183225
 11
391.2054952775597
 21
576.693974579468
 97
        0
 75
     2
 76
     1
 98
        0
  0
ENDBLK
  5
8E
330
8B
100
AcDbEntity
  8
0
100
AcDbBlockEnd
  0
BLOCK
  5
9F
330
9D
100
AcDbEntity
  8
0
100
AcDbBlockBegin
  2
block 9
 70
     0
 10
0.0
 20
0.0
 30
0.0
  3
block 9
  1

  0
POLYLINE
  5
A1
330
9D
100
AcDbEntity
  8
0
370
     0
100
AcDb2dPolyline
 66
     1
 10
0.0
 20
0.0
 30
0.0
  0
VERTEX
  5
A2
330
A1
100
AcDbEntity
  8
0
370
     0
100
AcDbVertex
100
AcDb2dVertex
 10
275.2790186095399
 20
626.4278655440039
 30
0.0
  0
VERTEX
  5
A3
330
A1
100
AcDbEntity
  8
0
370
     0
100
AcDbVertex
100
AcDb2dVertex
 10
275.2790186095399
 20
576.693974579468
 30
0.0
  0
VERTEX
  5
A4
330
A1
100
AcDbEntity
  8
0
370
     0
100
AcDbVertex
100
AcDb2dVertex
 10
300.253299584876
 20
576.693974579468
 30
0.0
  0
VERTEX
  5
A5
330
A1
100
AcDbEntity
  8
0
370
     0
100
AcDbVertex
100
AcDb2dVertex
 10
300.253299584876
 20
583.2774536628076
 30
0.0
  0
VERTEX
  5
A6
330
A1
100
AcDbEntity
  8
0
370
     0
100
AcDbVertex
100
AcDb2dVertex
 10
283.4368070049441
 20
583.2774536628076
 30
0.0
  0
VERTEX
  5
A7
330
A1
100
AcDbEntity
  8
0
370
     0
100
AcDbVertex
100
AcDb2dVertex
 10
283.4368070049441
 20
626.4278655440039
 30
0.0
  0
VERTEX
  5
A8
330
A1
100
AcDbEntity
  8
0
370
     0
100
AcDbVertex
100
AcDb2dVertex
 10
275.2790186095399
 20
626.4278655440039
 30
0.0
  0
SEQEND
  5
AA
330
A1
100
AcDbEntity
  8
0
370
     0
  0
HATCH
  5
A9
330
9D
100
AcDbEntity
  8
0
 62
     7
420
 16777215
100
AcDbHatch
 10
0.0
 20
0.0
 30
0.0
210
0.0
220
0.0
230
1.0
  2
SOLID
 70
     1
 71
     0
 91
        1
 92
        1
 93
        6
 72
     1
 10
275.2790186095399
 20
626.4278655440039
 11
275.2790186095399
 21
576.693974579468
 72
     1
 10
275.2790186095399
 20
576.693974579468
 11
300.253299584876
 21
576.693974579468
 72
     1
 10
300.253299584876
 20
576.693974579468
 11
300.253299584876
 21
583.2774536628076
 72
     1
 10
300.253299584876
 20
583.2774536628076
 11
283.4368070049441
 21
583.2774536628076
 72
     1
 10
283.4368070049441
 20
583.2774536628076
 11
283.4368070049441
 21
626.4278655440039
 72
     1
 10
283.4368070049441
 20
626.4278655440039
 11
275.2790186095399
 21
626.4278655440039
 97
        0
 75
     2
 76
     1
 98
        0
  0
ENDBLK
  5
A0
330
9D
100
AcDbEntity
  8
0
100
AcDbBlockEnd
  0
BLOCK
  5
B4
330
B2
100
AcDbEntity
  8
0
100
AcDbBlockBegin
  2
block 10
 70
     0
 10
0.0
 20
0.0
 30
0.0
  3
block 10
  1

  0
SPLINE
  5
B6
330
B2
100
AcDbEntity
  8
0
370
     0
100
AcDbSpline
210
0.0
220
0.0
230
1.0
 70
    11
 71
     3
 72
    35
 73
    31
 74
     0
 42
0.0000000001
 43
0.0000000001
 12
1.0
 22
0.0
 32
0.0
 13
1.0
 23
0.0
 33
0.0
 40
0.0
 40
0.0
 40
0.0
 40
0.0
 40
1.0
 40
1.0
 40
1.0
 40
2.0
 40
2.0
 40
2.0
 40
3.0
 40
3.0
 40
3.0
 40
4.0
 40
4.0
 40
4.0
 40
5.0
 40
5.0
 40
5.0
 40
6.0
 40
6.0
 40
6.0
 40
7.0
 40
7.0
 40
7.0
 40
8.0
 40
8.0
 40
8.0
 40
9.0
 40
9.0
 40
9.0
 40
10.0
 40
10.0
 40
10.0
 40
10.0
 10
366.820794205054
 20
700.1187916681247
 30
0.0
 10
366.820794205054
 20
700.1187916681247
 30
0.0
 10
417.622353142684
 20
700.1187916681247
 30
0.0
 10
417.622353142684
 20
700.1187916681247
 30
0.0
 10
421.7483717116393
 20
700.1187916681247
 30
0.0
 10
425.0931706335141
 20
696.773992746249
 30
0.0
 10
425.0931706335141
 20
692.6479741772964
 30
0.0
 10
425.0931706335141
 20
688.521955608343
 30
0.0
 10
421.7483717116393
 20
685.1771566864682
 30
0.0
 10
417.622353142684
 20
685.1771566864682
 30
0.0
 10
417.622353142684
 20
685.1771566864682
 30
0.0
 10
357.8558132160615
 20
685.1771566864682
 30
0.0
 10
357.8558132160615
 20
685.1771566864682
 30
0.0
 10
353.7297946471081
 20
685.1771566864682
 30
0.0
 10
350.3849957252332
 20
688.521955608343
 30
0.0
 10
350.3849957252332
 20
692.6479741772964
 30
0.0
 10
350.3849957252332
 20
692.6479741772964
 30
0.0
 10
350.3849957252332
 20
796.2433100501112
 30
0.0
 10
350.3849957252332
 20
796.2433100501112
 30
0.0
 10
350.3849957252332
 20
800.3693286190646
 30
0.0
 10
353.7297946471081
 20
803.7141275409394
 30
0.0
 10
357.8558132160615
 20
803.7141275409394
 30
0.0
 10
361.9818317850131
 20
803.7141275409394
 30
0.0
 10
365.3266307068898
 20
800.3693286190646
 30
0.0
 10
365.3266307068898
 20
796.2433100501112
 30
0.0
 10
365.3266307068898
 20
796.2433100501112
 30
0.0
 10
365.3266307068898
 20
701.6129551662898
 30
0.0
 10
365.3266307068898
 20
701.6129551662898
 30
0.0
 10
365.3266307068898
 20
700.7877514524989
 30
0.0
 10
365.995590491264
 20
700.1187916681247
 30
0.0
 10
366.820794205054
 20
700.1187916681247
 30
0.0
  0
HATCH
  5
B7
330
B2
100
AcDbEntity
  8
0
 62
     7
420
 16777215
100
AcDbHatch
 10
0.0
 20
0.0
 30
0.0
210
0.0
220
0.0
230
1.0
  2
SOLID
 70
     1
 71
     0
 91
        1
 92
        1
 93
        1
 72
     4
 94
        3
 73
     0
 74
     1
 95
       35
 96
       31
 40
0.0
 40
0.0
 40
0.0
 40
0.0
 40
1.0
 40
1.0
 40
1.0
 40
2.0
 40
2.0
 40
2.0
 40
3.0
 40
3.0
 40
3.0
 40
4.0
 40
4.0
 40
4.0
 40
5.0
 40
5.0
 40
5.0
 40
6.0
 40
6.0
 40
6.0
 40
7.0
 40
7.0
 40
7.0
 40
8.0
 40
8.0
 40
8.0
 40
9.0
 40
9.0
 40
9.0
 40
10.0
 40
10.0
 40
10.0
 40
10.0
 10
366.820794205054
 20
700.1187916681247
 10
366.820794205054
 20
700.1187916681247
 10
417.622353142684
 20
700.1187916681247
 10
417.622353142684
 20
700.1187916681247
 10
421.7483717116393
 20
700.1187916681247
 10
425.0931706335141
 20
696.773992746249
 10
425.0931706335141
 20
692.6479741772964
 10
425.0931706335141
 20
688.521955608343
 10
421.7483717116393
 20
685.1771566864682
 10
417.622353142684
 20
685.1771566864682
 10
417.622353142684
 20
685.1771566864682
 10
357.8558132160615
 20
685.1771566864682
 10
357.8558132160615
 20
685.1771566864682
 10
353.7297946471081
 20
685.1771566864682
 10
350.3849957252332
 20
688.521955608343
 10
350.3849957252332
 20
692.6479741772964
 10
350.3849957252332
 20
692.6479741772964
 10
350.3849957252332
 20
796.2433100501112
 10
350.3849957252332
 20
796.2433100501112
 10
350.3849957252332
 20
800.3693286190646
 10
353.7297946471081
 20
803.7141275409394
 10
357.8558132160615
 20
803.7141275409394
 10
361.9818317850131
 20
803.7141275409394
 10
365.3266307068898
 20
800.3693286190646
 10
365.3266307068898
 20
796.2433100501112
 10
365.3266307068898
 20
796.2433100501112
 10
365.3266307068898
 20
701.6129551662898
 10
365.3266307068898
 20
701.6129551662898
 10
365.3266307068898
 20
700.7877514524989
 10
365.995590491264
 20
700.1187916681247
 10
366.820794205054
 20
700.1187916681247
 97
        0
 97
        0
 75
     2
 76
     1
 98
        0
  0
ENDBLK
  5
B5
330
B2
100
AcDbEntity
  8
0
100
AcDbBlockEnd
  0
ENDSEC
  0
SECTION
  2
ENTITIES
  0
INSERT
  5
41
330
1F
100
AcDbEntity
  8
0
100
AcDbBlockReference
  2
block 2
 10
0.0
 20
0.0
 30
0.0
  0
INSERT
  5
47
330
1F
100
AcDbEntity
  8
0
100
AcDbBlockReference
  2
block 3
 10
0.0
 20
0.0
 30
0.0
  0
INSERT
  5
5A
330
1F
100
AcDbEntity
  8
0
100
AcDbBlockReference
  2
block 4
 10
0.0
 20
0.0
 30
0.0
  0
INSERT
  5
6B
330
1F
100
AcDbEntity
  8
0
100
AcDbBlockReference
  2
block 5
 10
0.0
 20
0.0
 30
0.0
  0
SPLINE
  5
70
330
1F
100
AcDbEntity
  8
0
370
     0
100
AcDbSpline
210
0.0
220
0.0
230
1.0
 70
    11
 71
     3
 72
   101
 73
    97
 74
     0
 42
0.0000000001
 43
0.0000000001
 12
1.0
 22
0.0
 32
0.0
 13
1.0
 23
0.0
 33
0.0
 40
0.0
 40
0.0
 40
0.0
 40
0.0
 40
1.0
 40
1.0
 40
1.0
 40
2.0
 40
2.0
 40
2.0
 40
3.0
 40
3.0
 40
3.0
 40
4.0
 40
4.0
 40
4.0
 40
5.0
 40
5.0
 40
5.0
 40
6.0
 40
6.0
 40
6.0
 40
7.0
 40
7.0
 40
7.0
 40
8.0
 40
8.0
 40
8.0
 40
9.0
 40
9.0
 40
9.0
 40
10.0
 40
10.0
 40
10.0
 40
11.0
 40
11.0
 40
11.0
 40
12.0
 40
12.0
 40
12.0
 40
13.0
 40
13.0
 40
13.0
 40
14.0
 40
14.0
 40
14.0
 40
15.0
 40
15.0
 40
15.0
 40
16.0
 40
16.0
 40
16.0
 40
17.0
 40
17.0
 40
17.0
 40
18.0
 40
18.0
 40
18.0
 40
19.0
 40
19.0
 40
19.0
 40
20.0
 40
20.0
 40
20.0
 40
21.0
 40
21.0
 40
21.0
 40
22.0
 40
22.0
 40
22.0
 40
23.0
 40
23.0
 40
23.0
 40
24.0
 40
24.0
 40
24.0
 40
25.0
 40
25.0
 40
25.0
 40
26.0
 40
26.0
 40
26.0
 40
27.0
 40
27.0
 40
27.0
 40
28.0
 40
28.0
 40
28.0
 40
29.0
 40
29.0
 40
29.0
 40
30.0
 40
30.0
 40
30.0
 40
31.0
 40
31.0
 40
31.0
 40
32.0
 40
32.0
 40
32.0
 40
32.0
 10
506.8516887626956
 20
602.5967046672158
 30
0.0
 10
506.453183690086
 20
604.2860616125381
 30
0.0
 10
505.7195525809038
 20
605.8932724637743
 30
0.0
 10
504.9851707893995
 20
607.5003760746786
 30
0.0
 10
504.0963629202433
 20
608.882382229338
 30
0.0
 10
503.2075550510872
 20
610.2643883839992
 30
0.0
 10
502.0747754273052
 20
611.4036024276811
 30
0.0
 10
500.9419958035251
 20
612.5429237116969
 30
0.0
 10
499.5644937427969
 20
613.4385949620828
 30
0.0
 10
498.1870989224008
 20
614.3342662124678
 30
0.0
 10
496.6101298447047
 20
615.0648945923622
 30
0.0
 10
495.0329462863447
 20
615.7950940109295
 30
0.0
 10
493.3737238742324
 20
616.1945642465234
 30
0.0
 10
491.7143942217881
 20
616.5941417224503
 30
0.0
 10
489.9773153288588
 20
616.6806846701347
 30
0.0
 10
488.2402364359295
 20
616.7673348581511
 30
0.0
 10
486.446856368857
 20
616.6799339878125
 30
0.0
 10
484.6534763017826
 20
616.5925331174749
 30
0.0
 10
482.9403120028237
 20
616.181909887383
 30
0.0
 10
481.2271477038648
 20
615.7712866572911
 30
0.0
 10
479.5992394686091
 20
615.0173871254174
 30
0.0
 10
477.9714384736872
 20
614.2627369112215
 30
0.0
 10
476.5539357692323
 20
613.3304967077256
 30
0.0
 10
475.1365403051113
 20
612.3982565042297
 30
0.0
 10
473.980596769683
 20
611.210677070947
 30
0.0
 10
472.8246532342528
 20
610.0229903973341
 30
0.0
 10
471.9274806192243
 20
608.5827527425608
 30
0.0
 10
471.030200763862
 20
607.1425150877858
 30
0.0
 10
470.2810198065836
 20
605.4392168993436
 30
0.0
 10
469.5329112526215
 20
603.7355969899054
 30
0.0
 10
469.1296876054184
 20
601.9506889090371
 30
0.0
 10
468.7263567178816
 20
600.1656735878369
 30
0.0
 10
468.6438889028013
 20
598.3050538327843
 30
0.0
 10
468.5614210877229
 20
596.4444340777336
 30
0.0
 10
468.647106112754
 20
594.5795247094138
 30
0.0
 10
468.7328983781154
 20
592.7146153410959
 30
0.0
 10
469.1482401828016
 20
590.9296000198956
 30
0.0
 10
469.5634747471577
 20
589.1445846986935
 30
0.0
 10
470.3321734448054
 20
587.4453616428564
 30
0.0
 10
471.1017300651092
 20
585.7462458273512
 30
0.0
 10
472.0184204205088
 20
584.3061154129082
 30
0.0
 10
472.9351107759067
 20
582.8658777581331
 30
0.0
 10
474.102850747824
 20
581.6721856259446
 30
0.0
 10
475.2705907197396
 20
580.4784934937561
 30
0.0
 10
476.6925975181257
 20
579.534349613441
 30
0.0
 10
478.1146043165099
 20
578.5903129734561
 30
0.0
 10
479.7166676318247
 20
577.8306224636708
 30
0.0
 10
481.3188381874716
 20
577.0713609152117
 30
0.0
 10
483.0077661714658
 20
576.6533381022327
 30
0.0
 10
484.6968013957921
 20
576.2352080489218
 30
0.0
 10
486.4685189158608
 20
576.1425524023307
 30
0.0
 10
488.2402364359295
 20
576.0498967557396
 30
0.0
 10
490.3219857549539
 20
576.1602470570615
 30
0.0
 10
492.4037350739763
 20
576.2705973583834
 30
0.0
 10
494.3459647214531
 20
576.8352177048018
 30
0.0
 10
496.2883016092619
 20
577.3998380512185
 30
0.0
 10
498.0787861873796
 20
578.4591580477845
 30
0.0
 10
499.8687345638391
 20
579.5206228509833
 30
0.0
 10
501.3016798760582
 20
580.7488463699792
 30
0.0
 10
502.7346251882755
 20
581.977069888977
 30
0.0
 10
503.8151787705174
 20
583.461061599086
 30
0.0
 10
504.8957323527593
 20
584.9450533091949
 30
0.0
 10
505.620248033747
 20
586.6873869783776
 30
0.0
 10
506.3448709550667
 20
588.4297206475603
 30
0.0
 10
506.3448709550667
 20
588.4297206475603
 30
0.0
 10
497.5430134901908
 20
588.4297206475603
 30
0.0
 10
497.5430134901908
 20
588.4297206475603
 30
0.0
 10
496.4282502421356
 20
586.7870132465305
 30
0.0
 10
495.3130580327543
 20
585.1450565278228
 30
0.0
 10
493.7565718584137
 20
584.2367309182955
 30
0.0
 10
492.1999784437412
 20
583.3285125491002
 30
0.0
 10
490.2201074398345
 20
583.1241124768749
 30
0.0
 10
488.2402364359295
 20
582.9196051643157
 30
0.0
 10
486.8135110629501
 20
583.0267382556885
 30
0.0
 10
485.3867856899706
 20
583.1337641067275
 30
0.0
 10
484.0968989802441
 20
583.6059432872171
 30
0.0
 10
482.8069050301856
 20
584.0781224677066
 30
0.0
 10
481.6593262406295
 20
584.9299324224248
 30
0.0
 10
480.5118546914036
 20
585.782064098139
 30
0.0
 10
479.5484075513832
 20
586.8683014179624
 30
0.0
 10
478.5856038533511
 20
587.9548604587781
 30
0.0
 10
478.0083291477931
 20
589.2224411795105
 30
0.0
 10
477.4310544422333
 20
590.4900219002429
 30
0.0
 10
477.2182896241338
 20
591.9286509500416
 30
0.0
 10
477.0054175657042
 20
593.3673872401723
 30
0.0
 10
477.0054175657042
 20
593.3673872401723
 30
0.0
 10
507.1320149897674
 20
593.3673872401723
 30
0.0
 10
507.1320149897674
 20
593.3673872401723
 30
0.0
 10
507.2199520617633
 20
594.0322772967338
 30
0.0
 10
507.3075674127649
 20
594.6972745936255
 30
0.0
 10
507.3541097167254
 20
595.365274619804
 30
0.0
 10
507.400544780352
 20
596.0331674056524
 30
0.0
 10
507.4093384875523
 20
596.7039556804557
 30
0.0
 10
507.4182394350828
 20
597.374636714927
 30
0.0
 10
507.334163015028
 20
599.1409922184121
 30
0.0
 10
507.2501938353034
 20
600.9073477218953
 30
0.0
 10
506.8516887626956
 20
602.5967046672158
 30
0.0
  0
SPLINE
  5
71
330
1F
100
AcDbEntity
  8
0
370
     0
100
AcDbSpline
210
0.0
220
0.0
230
1.0
 70
    11
 71
     3
 72
    32
 73
    28
 74
     0
 42
0.0000000001
 43
0.0000000001
 12
1.0
 22
0.0
 32
0.0
 13
1.0
 23
0.0
 33
0.0
 40
0.0
 40
0.0
 40
0.0
 40
0.0
 40
1.0
 40
1.0
 40
1.0
 40
2.0
 40
2.0
 40
2.0
 40
3.0
 40
3.0
 40
3.0
 40
4.0
 40
4.0
 40
4.0
 40
5.0
 40
5.0
 40
5.0
 40
6.0
 40
6.0
 40
6.0
 40
7.0
 40
7.0
 40
7.0
 40
8.0
 40
8.0
 40
8.0
 40
9.0
 40
9.0
 40
9.0
 40
9.0
 10
477.0769468669496
 20
599.9508712034349
 30
0.0
 10
477.3394711989586
 20
601.3286949851572
 30
0.0
 10
477.6019955309694
 20
602.7066260072133
 30
0.0
 10
478.1904232310244
 20
603.9211227637516
 30
0.0
 10
478.7787436907493
 20
605.1357267606218
 30
0.0
 10
479.7163459108306
 20
606.1751000554905
 30
0.0
 10
480.6549132938962
 20
607.2141516293632
 30
0.0
 10
481.7302120998847
 20
608.0069794016454
 30
0.0
 10
482.8055109058732
 20
608.7998071739275
 30
0.0
 10
484.011213955213
 20
609.2441038681736
 30
0.0
 10
485.2169170045527
 20
609.6885078027517
 30
0.0
 10
486.5496998469607
 20
609.793067126162
 30
0.0
 10
487.8824826893688
 20
609.8976264495723
 30
0.0
 10
489.3093153026803
 20
609.8017535930303
 30
0.0
 10
490.7362551563219
 20
609.7059879768203
 30
0.0
 10
492.0386889848578
 20
609.2597609566019
 30
0.0
 10
493.3412300537257
 20
608.8136411767173
 30
0.0
 10
494.51197275493
 20
607.9963626088065
 30
0.0
 10
495.6825009754721
 20
607.1783333585736
 30
0.0
 10
496.625572452469
 20
606.1572981604277
 30
0.0
 10
497.5683222084717
 20
605.1361557219498
 30
0.0
 10
498.0990546100711
 20
603.9288440676337
 30
0.0
 10
498.6297870116705
 20
602.7216396536514
 30
0.0
 10
498.7661967135973
 20
601.3362018083772
 30
0.0
 10
498.9026064155241
 20
599.9508712034349
 30
0.0
 10
498.9026064155241
 20
599.9508712034349
 30
0.0
 10
477.0769468669496
 20
599.9508712034349
 30
0.0
 10
477.0769468669496
 20
599.9508712034349
 30
0.0
  0
HATCH
  5
72
330
1F
100
AcDbEntity
  8
0
 62
     7
420
 16777215
100
AcDbHatch
 10
0.0
 20
0.0
 30
0.0
210
0.0
220
0.0
230
1.0
  2
SOLID
 70
     1
 71
     0
 91
        2
 92
        1
 93
        1
 72
     4
 94
        3
 73
     0
 74
     1
 95
      101
 96
       97
 40
0.0
 40
0.0
 40
0.0
 40
0.0
 40
1.0
 40
1.0
 40
1.0
 40
2.0
 40
2.0
 40
2.0
 40
3.0
 40
3.0
 40
3.0
 40
4.0
 40
4.0
 40
4.0
 40
5.0
 40
5.0
 40
5.0
 40
6.0
 40
6.0
 40
6.0
 40
7.0
 40
7.0
 40
7.0
 40
8.0
 40
8.0
 40
8.0
 40
9.0
 40
9.0
 40
9.0
 40
10.0
 40
10.0
 40
10.0
 40
11.0
 40
11.0
 40
11.0
 40
12.0
 40
12.0
 40
12.0
 40
13.0
 40
13.0
 40
13.0
 40
14.0
 40
14.0
 40
14.0
 40
15.0
 40
15.0
 40
15.0
 40
16.0
 40
16.0
 40
16.0
 40
17.0
 40
17.0
 40
17.0
 40
18.0
 40
18.0
 40
18.0
 40
19.0
 40
19.0
 40
19.0
 40
20.0
 40
20.0
 40
20.0
 40
21.0
 40
21.0
 40
21.0
 40
22.0
 40
22.0
 40
22.0
 40
23.0
 40
23.0
 40
23.0
 40
24.0
 40
24.0
 40
24.0
 40
25.0
 40
25.0
 40
25.0
 40
26.0
 40
26.0
 40
26.0
 40
27.0
 40
27.0
 40
27.0
 40
28.0
 40
28.0
 40
28.0
 40
29.0
 40
29.0
 40
29.0
 40
30.0
 40
30.0
 40
30.0
 40
31.0
 40
31.0
 40
31.0
 40
32.0
 40
32.0
 40
32.0
 40
32.0
 10
506.8516887626956
 20
602.5967046672158
 10
506.453183690086
 20
604.2860616125381
 10
505.7195525809038
 20
605.8932724637743
 10
504.9851707893995
 20
607.5003760746786
 10
504.0963629202433
 20
608.882382229338
 10
503.2075550510872
 20
610.2643883839992
 10
502.0747754273052
 20
611.4036024276811
 10
500.9419958035251
 20
612.5429237116969
 10
499.5644937427969
 20
613.4385949620828
 10
498.1870989224008
 20
614.3342662124678
 10
496.6101298447047
 20
615.0648945923622
 10
495.0329462863447
 20
615.7950940109295
 10
493.3737238742324
 20
616.1945642465234
 10
491.7143942217881
 20
616.5941417224503
 10
489.9773153288588
 20
616.6806846701347
 10
488.2402364359295
 20
616.7673348581511
 10
486.446856368857
 20
616.6799339878125
 10
484.6534763017826
 20
616.5925331174749
 10
482.9403120028237
 20
616.181909887383
 10
481.2271477038648
 20
615.7712866572911
 10
479.5992394686091
 20
615.0173871254174
 10
477.9714384736872
 20
614.2627369112215
 10
476.5539357692323
 20
613.3304967077256
 10
475.1365403051113
 20
612.3982565042297
 10
473.980596769683
 20
611.210677070947
 10
472.8246532342528
 20
610.0229903973341
 10
471.9274806192243
 20
608.5827527425608
 10
471.030200763862
 20
607.1425150877858
 10
470.2810198065836
 20
605.4392168993436
 10
469.5329112526215
 20
603.7355969899054
 10
469.1296876054184
 20
601.9506889090371
 10
468.7263567178816
 20
600.1656735878369
 10
468.6438889028013
 20
598.3050538327843
 10
468.5614210877229
 20
596.4444340777336
 10
468.647106112754
 20
594.5795247094138
 10
468.7328983781154
 20
592.7146153410959
 10
469.1482401828016
 20
590.9296000198956
 10
469.5634747471577
 20
589.1445846986935
 10
470.3321734448054
 20
587.4453616428564
 10
471.1017300651092
 20
585.7462458273512
 10
472.0184204205088
 20
584.3061154129082
 10
472.9351107759067
 20
582.8658777581331
 10
474.102850747824
 20
581.6721856259446
 10
475.2705907197396
 20
580.4784934937561
 10
476.6925975181257
 20
579.534349613441
 10
478.1146043165099
 20
578.5903129734561
 10
479.7166676318247
 20
577.8306224636708
 10
481.3188381874716
 20
577.0713609152117
 10
483.0077661714658
 20
576.6533381022327
 10
484.6968013957921
 20
576.2352080489218
 10
486.4685189158608
 20
576.1425524023307
 10
488.2402364359295
 20
576.0498967557396
 10
490.3219857549539
 20
576.1602470570615
 10
492.4037350739763
 20
576.2705973583834
 10
494.3459647214531
 20
576.8352177048018
 10
496.2883016092619
 20
577.3998380512185
 10
498.0787861873796
 20
578.4591580477845
 10
499.8687345638391
 20
579.5206228509833
 10
501.3016798760582
 20
580.7488463699792
 10
502.7346251882755
 20
581.977069888977
 10
503.8151787705174
 20
583.461061599086
 10
504.8957323527593
 20
584.9450533091949
 10
505.620248033747
 20
586.6873869783776
 10
506.3448709550667
 20
588.4297206475603
 10
506.3448709550667
 20
588.4297206475603
 10
497.5430134901908
 20
588.4297206475603
 10
497.5430134901908
 20
588.4297206475603
 10
496.4282502421356
 20
586.7870132465305
 10
495.3130580327543
 20
585.1450565278228
 10
493.7565718584137
 20
584.2367309182955
 10
492.1999784437412
 20
583.3285125491002
 10
490.2201074398345
 20
583.1241124768749
 10
488.2402364359295
 20
582.9196051643157
 10
486.8135110629501
 20
583.0267382556885
 10
485.3867856899706
 20
583.1337641067275
 10
484.0968989802441
 20
583.6059432872171
 10
482.8069050301856
 20
584.0781224677066
 10
481.6593262406295
 20
584.9299324224248
 10
480.5118546914036
 20
585.782064098139
 10
479.5484075513832
 20
586.8683014179624
 10
478.5856038533511
 20
587.9548604587781
 10
478.0083291477931
 20
589.2224411795105
 10
477.4310544422333
 20
590.4900219002429
 10
477.2182896241338
 20
591.9286509500416
 10
477.0054175657042
 20
593.3673872401723
 10
477.0054175657042
 20
593.3673872401723
 10
507.1320149897674
 20
593.3673872401723
 10
507.1320149897674
 20
593.3673872401723
 10
507.2199520617633
 20
594.0322772967338
 10
507.3075674127649
 20
594.6972745936255
 10
507.3541097167254
 20
595.365274619804
 10
507.400544780352
 20
596.0331674056524
 10
507.4093384875523
 20
596.7039556804557
 10
507.4182394350828
 20
597.374636714927
 10
507.334163015028
 20
599.1409922184121
 10
507.2501938353034
 20
600.9073477218953
 10
506.8516887626956
 20
602.5967046672158
 97
        0
 97
        0
 92
        1
 93
        1
 72
     4
 94
        3
 73
     0
 74
     1
 95
       32
 96
       28
 40
0.0
 40
0.0
 40
0.0
 40
0.0
 40
1.0
 40
1.0
 40
1.0
 40
2.0
 40
2.0
 40
2.0
 40
3.0
 40
3.0
 40
3.0
 40
4.0
 40
4.0
 40
4.0
 40
5.0
 40
5.0
 40
5.0
 40
6.0
 40
6.0
 40
6.0
 40
7.0
 40
7.0
 40
7.0
 40
8.0
 40
8.0
 40
8.0
 40
9.0
 40
9.0
 40
9.0
 40
9.0
 10
477.0769468669496
 20
599.9508712034349
 10
477.3394711989586
 20
601.3286949851572
 10
477.6019955309694
 20
602.7066260072133
 10
478.1904232310244
 20
603.9211227637516
 10
478.7787436907493
 20
605.1357267606218
 10
479.7163459108306
 20
606.1751000554905
 10
480.6549132938962
 20
607.2141516293632
 10
481.7302120998847
 20
608.0069794016454
 10
482.8055109058732
 20
608.7998071739275
 10
484.011213955213
 20
609.2441038681736
 10
485.2169170045527
 20
609.6885078027517
 10
486.5496998469607
 20
609.793067126162
 10
487.8824826893688
 20
609.8976264495723
 10
489.3093153026803
 20
609.8017535930303
 10
490.7362551563219
 20
609.7059879768203
 10
492.0386889848578
 20
609.2597609566019
 10
493.3412300537257
 20
608.8136411767173
 10
494.51197275493
 20
607.9963626088065
 10
495.6825009754721
 20
607.1783333585736
 10
496.625572452469
 20
606.1572981604277
 10
497.5683222084717
 20
605.1361557219498
 10
498.0990546100711
 20
603.9288440676337
 10
498.6297870116705
 20
602.7216396536514
 10
498.7661967135973
 20
601.3362018083772
 10
498.9026064155241
 20
599.9508712034349
 10
498.9026064155241
 20
599.9508712034349
 10
477.0769468669496
 20
599.9508712034349
 10
477.0769468669496
 20
599.9508712034349
 97
        0
 97
        0
 75
     2
 76
     1
 98
        0
  0
INSERT
  5
74
330
1F
100
AcDbEntity
  8
0
100
AcDbBlockReference
  2
block 6
 10
0.0
 20
0.0
 30
0.0
  0
INSERT
  5
80
330
1F
100
AcDbEntity
  8
0
100
AcDbBlockReference
  2
block 7
 10
0.0
 20
0.0
 30
0.0
  0
SPLINE
  5
85
330
1F
100
AcDbEntity
  8
0
370
     0
100
AcDbSpline
210
0.0
220
0.0
230
1.0
 70
    11
 71
     3
 72
   134
 73
   130
 74
     0
 42
0.0000000001
 43
0.0000000001
 12
1.0
 22
0.0
 32
0.0
 13
1.0
 23
0.0
 33
0.0
 40
0.0
 40
0.0
 40
0.0
 40
0.0
 40
1.0
 40
1.0
 40
1.0
 40
2.0
 40
2.0
 40
2.0
 40
3.0
 40
3.0
 40
3.0
 40
4.0
 40
4.0
 40
4.0
 40
5.0
 40
5.0
 40
5.0
 40
6.0
 40
6.0
 40
6.0
 40
7.0
 40
7.0
 40
7.0
 40
8.0
 40
8.0
 40
8.0
 40
9.0
 40
9.0
 40
9.0
 40
10.0
 40
10.0
 40
10.0
 40
11.0
 40
11.0
 40
11.0
 40
12.0
 40
12.0
 40
12.0
 40
13.0
 40
13.0
 40
13.0
 40
14.0
 40
14.0
 40
14.0
 40
15.0
 40
15.0
 40
15.0
 40
16.0
 40
16.0
 40
16.0
 40
17.0
 40
17.0
 40
17.0
 40
18.0
 40
18.0
 40
18.0
 40
19.0
 40
19.0
 40
19.0
 40
20.0
 40
20.0
 40
20.0
 40
21.0
 40
21.0
 40
21.0
 40
22.0
 40
22.0
 40
22.0
 40
23.0
 40
23.0
 40
23.0
 40
24.0
 40
24.0
 40
24.0
 40
25.0
 40
25.0
 40
25.0
 40
26.0
 40
26.0
 40
26.0
 40
27.0
 40
27.0
 40
27.0
 40
28.0
 40
28.0
 40
28.0
 40
29.0
 40
29.0
 40
29.0
 40
30.0
 40
30.0
 40
30.0
 40
31.0
 40
31.0
 40
31.0
 40
32.0
 40
32.0
 40
32.0
 40
33.0
 40
33.0
 40
33.0
 40
34.0
 40
34.0
 40
34.0
 40
35.0
 40
35.0
 40
35.0
 40
36.0
 40
36.0
 40
36.0
 40
37.0
 40
37.0
 40
37.0
 40
38.0
 40
38.0
 40
38.0
 40
39.0
 40
39.0
 40
39.0
 40
40.0
 40
40.0
 40
40.0
 40
41.0
 40
41.0
 40
41.0
 40
42.0
 40
42.0
 40
42.0
 40
43.0
 40
43.0
 40
43.0
 40
43.0
 10
602.0915056273461
 20
616.1232494259411
 30
0.0
 10
602.0915056273461
 20
616.1232494259411
 30
0.0
 10
602.0915056273461
 20
610.3985460389595
 30
0.0
 10
602.0915056273461
 20
610.3985460389595
 30
0.0
 10
601.302216786009
 20
611.3189898059682
 30
0.0
 10
600.5124989833475
 20
612.2388973713187
 30
0.0
 10
599.5845483931189
 20
612.9919389805382
 30
0.0
 10
598.6567050432222
 20
613.7448733494266
 30
0.0
 10
597.6011384582671
 20
614.3437033616574
 30
0.0
 10
596.5456791136439
 20
614.9425333738891
 30
0.0
 10
595.2488217823575
 20
615.4946066014973
 30
0.0
 10
593.9518572107372
 20
616.0460363871152
 30
0.0
 10
592.5968756196671
 20
616.3445934705769
 30
0.0
 10
591.241894028597
 20
616.6430433137066
 30
0.0
 10
589.8327560700163
 20
616.7052427060953
 30
0.0
 10
588.4236181114356
 20
616.7673348581511
 30
0.0
 10
586.7676129092742
 20
616.666850667345
 30
0.0
 10
585.1116077071129
 20
616.5663664765389
 30
0.0
 10
583.5426816542949
 20
616.145126453609
 30
0.0
 10
581.973755601477
 20
615.7238864306782
 30
0.0
 10
580.4936245433091
 20
614.975456155722
 30
0.0
 10
579.0136007254714
 20
614.2269186404328
 30
0.0
 10
577.6463937365879
 20
613.2735520915912
 30
0.0
 10
576.2792939880346
 20
612.3201855427496
 30
0.0
 10
575.1601338863802
 20
611.1315337061515
 30
0.0
 10
574.041081025056
 20
609.9428818695524
 30
0.0
 10
573.164069592387
 20
608.5248429634394
 30
0.0
 10
572.2869509193861
 20
607.1068040573282
 30
0.0
 10
571.5413088930545
 20
605.4335331617622
 30
0.0
 10
570.7964175490433
 20
603.760155025866
 30
0.0
 10
570.3922287388541
 20
602.0051669975419
 30
0.0
 10
569.9879326883329
 20
600.2502862095498
 30
0.0
 10
569.9029983456239
 20
598.4188358247229
 30
0.0
 10
569.818171243247
 20
596.5874926802262
 30
0.0
 10
569.9055721135846
 20
594.739849005311
 30
0.0
 10
569.9929729839223
 20
592.8922053303959
 30
0.0
 10
570.3981269570977
 20
591.119629887673
 30
0.0
 10
570.8033881706033
 20
589.3470544449501
 30
0.0
 10
571.5449550643316
 20
587.6539440880188
 30
0.0
 10
572.2869509193861
 20
585.9609409714212
 30
0.0
 10
573.1595654984558
 20
584.5144833774066
 30
0.0
 10
574.0321800775255
 20
583.0679185430618
 30
0.0
 10
575.1508039775217
 20
581.8491321732545
 30
0.0
 10
576.269320637186
 20
580.6302385631152
 30
0.0
 10
577.6414606813287
 20
579.6459867987433
 30
0.0
 10
579.0136007254714
 20
578.6618422747033
 30
0.0
 10
580.4891204493779
 20
577.8937870190439
 30
0.0
 10
581.9647474136127
 20
577.1257317633863
 30
0.0
 10
583.5335662261004
 20
576.6921591023092
 30
0.0
 10
585.1023850385864
 20
576.2586936815642
 30
0.0
 10
586.763001575011
 20
576.1543488388179
 30
0.0
 10
588.4236181114356
 20
576.0498967557396
 30
0.0
 10
589.8250347661342
 20
576.1170292033858
 30
0.0
 10
591.2264514208309
 20
576.1840544106999
 30
0.0
 10
592.5693148544196
 20
576.495265853302
 30
0.0
 10
593.9121782880084
 20
576.806477295906
 30
0.0
 10
595.1931640502025
 20
577.3761379379121
 30
0.0
 10
596.4741498123985
 20
577.9462275412479
 30
0.0
 10
597.5397969885325
 20
578.5735834817115
 30
0.0
 10
598.6055514050004
 20
579.200939422175
 30
0.0
 10
599.5448694703882
 20
579.9784318270231
 30
0.0
 10
600.4841875357779
 20
580.7560314722032
 30
0.0
 10
601.2880610622251
 20
581.6944916149387
 30
0.0
 10
602.0915056273461
 20
582.6333807190003
 30
0.0
 10
602.0915056273461
 20
582.6333807190003
 30
0.0
 10
602.0915056273461
 20
576.0498967557396
 30
0.0
 10
602.0915056273461
 20
576.0498967557396
 30
0.0
 10
602.0175097984702
 20
574.4359297636056
 30
0.0
 10
601.9435139695943
 20
572.8219627714716
 30
0.0
 10
601.458036987975
 20
571.3589901663763
 30
0.0
 10
600.9725600063539
 20
569.8961248016112
 30
0.0
 10
600.0141531619211
 20
568.6068815338749
 30
0.0
 10
599.0501698202406
 20
567.3196758324411
 30
0.0
 10
597.8795343593683
 20
566.4067388886524
 30
0.0
 10
596.7082554565059
 20
565.494981588512
 30
0.0
 10
595.3745074511135
 20
565.0043570709695
 30
0.0
 10
594.0407594457192
 20
564.513732553427
 30
0.0
 10
592.5560170532881
 20
564.4139990449421
 30
0.0
 10
591.0713819011889
 20
564.3141582961271
 30
0.0
 10
589.7927554262915
 20
564.3759287271878
 30
0.0
 10
588.514128951394
 20
564.4375919179165
 30
0.0
 10
587.3016697611565
 20
564.7466585538859
 30
0.0
 10
586.089210570919
 20
565.0557251898554
 30
0.0
 10
584.9484951625927
 20
565.6326781744174
 30
0.0
 10
583.8079942349286
 20
566.2104890816354
 30
0.0
 10
582.914146070183
 20
566.8562903591519
 30
0.0
 10
582.0201906651037
 20
567.5019843963364
 30
0.0
 10
581.3537992438996
 20
568.3274132294573
 30
0.0
 10
580.6873005823636
 20
569.1527348222444
 30
0.0
 10
580.2616637058345
 20
570.1681935231427
 30
0.0
 10
579.8364557906316
 20
571.183866704705
 30
0.0
 10
579.8364557906316
 20
571.183866704705
 30
0.0
 10
571.7502130592111
 20
571.183866704705
 30
0.0
 10
571.7502130592111
 20
571.183866704705
 30
0.0
 10
572.1803540296733
 20
569.1473728056608
 30
0.0
 10
572.6103877598034
 20
567.1109861469467
 30
0.0
 10
573.6124414192382
 20
565.4115486104456
 30
0.0
 10
574.6144950786729
 20
563.7121110739445
 30
0.0
 10
576.1879252254239
 20
562.3494081789922
 30
0.0
 10
577.7612481318411
 20
560.9867052840382
 30
0.0
 10
579.8236941911582
 20
559.8264721353407
 30
0.0
 10
581.8871054134597
 20
558.669456196596
 30
0.0
 10
584.1107336913265
 20
558.0614035158378
 30
0.0
 10
586.3343619691932
 20
557.4534580754116
 30
0.0
 10
588.7028719351911
 20
557.3416064094454
 30
0.0
 10
591.0713819011889
 20
557.2297547434791
 30
0.0
 10
592.87462807878
 20
557.3054664176616
 30
0.0
 10
594.6778742563693
 20
557.381285332176
 30
0.0
 10
596.4038001548015
 20
557.7763587141708
 30
0.0
 10
598.1297260532319
 20
558.1715393364975
 30
0.0
 10
599.7709320896192
 20
558.9163234401767
 30
0.0
 10
601.4117091646785
 20
559.6628233891624
 30
0.0
 10
602.7574680872222
 20
560.538440697519
 30
0.0
 10
604.1032270097658
 20
561.4141652462076
 30
0.0
 10
605.2075879456461
 20
562.5281778119406
 30
0.0
 10
606.3119488815264
 20
563.6421903776736
 30
0.0
 10
607.1714801401286
 20
564.9979226510659
 30
0.0
 10
608.0310113987289
 20
566.3536549244582
 30
0.0
 10
608.719923289591
 20
567.8958781346828
 30
0.0
 10
609.4082989787948
 20
569.4382085852394
 30
0.0
 10
609.7839618607504
 20
571.0557145083185
 30
0.0
 10
610.159624742706
 20
572.6732204313994
 30
0.0
 10
610.2402694721477
 20
574.3616122137355
 30
0.0
 10
610.3209142015894
 20
576.0498967557396
 30
0.0
 10
610.3209142015894
 20
576.0498967557396
 30
0.0
 10
610.3209142015894
 20
616.1232494259411
 30
0.0
 10
610.3209142015894
 20
616.1232494259411
 30
0.0
 10
610.3209142015894
 20
616.1232494259411
 30
0.0
 10
602.0915056273461
 20
616.1232494259411
 30
0.0
 10
602.0915056273461
 20
616.1232494259411
 30
0.0
  0
SPLINE
  5
86
330
1F
100
AcDbEntity
  8
0
370
     0
100
AcDbSpline
210
0.0
220
0.0
230
1.0
 70
    11
 71
     3
 72
    83
 73
    79
 74
     0
 42
0.0000000001
 43
0.0000000001
 12
1.0
 22
0.0
 32
0.0
 13
1.0
 23
0.0
 33
0.0
 40
0.0
 40
0.0
 40
0.0
 40
0.0
 40
1.0
 40
1.0
 40
1.0
 40
2.0
 40
2.0
 40
2.0
 40
3.0
 40
3.0
 40
3.0
 40
4.0
 40
4.0
 40
4.0
 40
5.0
 40
5.0
 40
5.0
 40
6.0
 40
6.0
 40
6.0
 40
7.0
 40
7.0
 40
7.0
 40
8.0
 40
8.0
 40
8.0
 40
9.0
 40
9.0
 40
9.0
 40
10.0
 40
10.0
 40
10.0
 40
11.0
 40
11.0
 40
11.0
 40
12.0
 40
12.0
 40
12.0
 40
13.0
 40
13.0
 40
13.0
 40
14.0
 40
14.0
 40
14.0
 40
15.0
 40
15.0
 40
15.0
 40
16.0
 40
16.0
 40
16.0
 40
17.0
 40
17.0
 40
17.0
 40
18.0
 40
18.0
 40
18.0
 40
19.0
 40
19.0
 40
19.0
 40
20.0
 40
20.0
 40
20.0
 40
21.0
 40
21.0
 40
21.0
 40
22.0
 40
22.0
 40
22.0
 40
23.0
 40
23.0
 40
23.0
 40
24.0
 40
24.0
 40
24.0
 40
25.0
 40
25.0
 40
25.0
 40
26.0
 40
26.0
 40
26.0
 40
26.0
 10
601.7067273171942
 20
592.774026484858
 30
0.0
 10
601.4325137890282
 20
591.585910849919
 30
0.0
 10
600.9216208487942
 20
590.4549543117755
 30
0.0
 10
600.4098699859078
 20
589.3242122542979
 30
0.0
 10
599.8340966449923
 20
588.4035540066252
 30
0.0
 10
599.2582160637467
 20
587.4827885186205
 30
0.0
 10
598.5273732031874
 20
586.710979851352
 30
0.0
 10
597.7966375829619
 20
585.9390639437534
 30
0.0
 10
596.9028966585483
 20
585.3237189204392
 30
0.0
 10
596.008941253469
 20
584.708695618121
 30
0.0
 10
595.083778911865
 20
584.2492780371049
 30
0.0
 10
594.1587238105931
 20
583.7898604560887
 30
0.0
 10
593.1806919854607
 20
583.5274433644099
 30
0.0
 10
592.2027674006586
 20
583.2651335130649
 30
0.0
 10
591.171866091996
 20
583.1997169107253
 30
0.0
 10
590.1410720236636
 20
583.1343003083857
 30
0.0
 10
589.1146748089323
 20
583.2046499659846
 30
0.0
 10
588.0882775941991
 20
583.2749996235816
 30
0.0
 10
587.1165729486365
 20
583.5446018174825
 30
0.0
 10
586.144868303074
 20
583.8140967710533
 30
0.0
 10
585.226891063694
 20
584.2793053299811
 30
0.0
 10
584.308913824314
 20
584.7444066485787
 30
0.0
 10
583.4062719523681
 20
585.3700467437357
 30
0.0
 10
582.5037373207542
 20
585.9957940792247
 30
0.0
 10
581.7668890016212
 20
586.7795064233105
 30
0.0
 10
581.0300406824881
 20
587.5631115270662
 30
0.0
 10
580.4511573719537
 20
588.4973892968646
 30
0.0
 10
579.8722740614194
 20
589.4315598263329
 30
0.0
 10
579.3618100825133
 20
590.5689507843763
 30
0.0
 10
578.8520967859276
 20
591.7064489827535
 30
0.0
 10
578.5774542964355
 20
592.9004628359362
 30
0.0
 10
578.3028118069433
 20
594.0944766891207
 30
0.0
 10
578.2467251134622
 20
595.3410383048395
 30
0.0
 10
578.190638419981
 20
596.5874926802262
 30
0.0
 10
578.2441513455015
 20
597.8178610058567
 30
0.0
 10
578.2976642710219
 20
599.048229331489
 30
0.0
 10
578.5712343571959
 20
600.2246557702729
 30
0.0
 10
578.8448044433717
 20
601.4009749687248
 30
0.0
 10
579.3580566709024
 20
602.5187409460686
 30
0.0
 10
579.8722740614194
 20
603.6361852024165
 30
0.0
 10
579.8722740614194
 20
603.6361852024165
 30
0.0
 10
579.8722740614194
 20
603.5355937712793
 30
0.0
 10
579.8722740614194
 20
603.5355937712793
 30
0.0
 10
580.4707823526551
 20
604.4684774167654
 30
0.0
 10
581.0692906438908
 20
605.4014683025835
 30
0.0
 10
581.8247987807408
 20
606.1801403510799
 30
0.0
 10
582.5801996772589
 20
606.9589196399102
 30
0.0
 10
583.4997855216134
 20
607.576409469857
 30
0.0
 10
584.4194786062999
 20
608.1937920594719
 30
0.0
 10
585.3776709700687
 20
608.6583571764113
 30
0.0
 10
586.3357560935056
 20
609.1230295336809
 30
0.0
 10
587.3463889794766
 20
609.3876986723244
 30
0.0
 10
588.3569146251157
 20
609.6523678109679
 30
0.0
 10
589.4197735526268
 20
609.7178916536395
 30
0.0
 10
590.4826324801379
 20
609.7835227366413
 30
0.0
 10
591.5477434546156
 20
609.715854087337
 30
0.0
 10
592.6128544290914
 20
609.6482926783628
 30
0.0
 10
593.6233800747304
 20
609.3772963601496
 30
0.0
 10
594.6339057203713
 20
609.1061928016024
 30
0.0
 10
595.5897387968416
 20
608.6315470934842
 30
0.0
 10
596.5456791136439
 20
608.1567941450339
 30
0.0
 10
596.5456791136439
 20
608.1567941450339
 30
0.0
 10
596.008941253469
 20
608.1086432361008
 30
0.0
 10
596.008941253469
 20
608.1086432361008
 30
0.0
 10
596.9001084099236
 20
607.4978023067179
 30
0.0
 10
597.7910610857143
 20
606.8868541370048
 30
0.0
 10
598.522118426934
 20
606.1212654089759
 30
0.0
 10
599.2531757681554
 20
605.355569440615
 30
0.0
 10
599.8315228770316
 20
604.4422035354983
 30
0.0
 10
600.4098699859078
 20
603.5288376303815
 30
0.0
 10
600.9228004924425
 20
602.4047444734679
 30
0.0
 10
601.4348730763268
 20
601.280436835892
 30
0.0
 10
601.7088721238288
 20
600.0981121788627
 30
0.0
 10
601.9827639309988
 20
598.9158947621672
 30
0.0
 10
602.0371347791715
 20
597.6801644199495
 30
0.0
 10
602.0915056273461
 20
596.4444340777336
 30
0.0
 10
602.0362768565192
 20
595.2033417189323
 30
0.0
 10
601.9810480856904
 20
593.962142119799
 30
0.0
 10
601.7067273171942
 20
592.774026484858
 30
0.0
  0
HATCH
  5
87
330
1F
100
AcDbEntity
  8
0
 62
     7
420
 16777215
100
AcDbHatch
 10
0.0
 20
0.0
 30
0.0
210
0.0
220
0.0
230
1.0
  2
SOLID
 70
     1
 71
     0
 91
        2
 92
        1
 93
        1
 72
     4
 94
        3
 73
     0
 74
     1
 95
      134
 96
      130
 40
0.0
 40
0.0
 40
0.0
 40
0.0
 40
1.0
 40
1.0
 40
1.0
 40
2.0
 40
2.0
 40
2.0
 40
3.0
 40
3.0
 40
3.0
 40
4.0
 40
4.0
 40
4.0
 40
5.0
 40
5.0
 40
5.0
 40
6.0
 40
6.0
 40
6.0
 40
7.0
 40
7.0
 40
7.0
 40
8.0
 40
8.0
 40
8.0
 40
9.0
 40
9.0
 40
9.0
 40
10.0
 40
10.0
 40
10.0
 40
11.0
 40
11.0
 40
11.0
 40
12.0
 40
12.0
 40
12.0
 40
13.0
 40
13.0
 40
13.0
 40
14.0
 40
14.0
 40
14.0
 40
15.0
 40
15.0
 40
15.0
 40
16.0
 40
16.0
 40
16.0
 40
17.0
 40
17.0
 40
17.0
 40
18.0
 40
18.0
 40
18.0
 40
19.0
 40
19.0
 40
19.0
 40
20.0
 40
20.0
 40
20.0
 40
21.0
 40
21.0
 40
21.0
 40
22.0
 40
22.0
 40
22.0
 40
23.0
 40
23.0
 40
23.0
 40
24.0
 40
24.0
 40
24.0
 40
25.0
 40
25.0
 40
25.0
 40
26.0
 40
26.0
 40
26.0
 40
27.0
 40
27.0
 40
27.0
 40
28.0
 40
28.0
 40
28.0
 40
29.0
 40
29.0
 40
29.0
 40
30.0
 40
30.0
 40
30.0
 40
31.0
 40
31.0
 40
31.0
 40
32.0
 40
32.0
 40
32.0
 40
33.0
 40
33.0
 40
33.0
 40
34.0
 40
34.0
 40
34.0
 40
35.0
 40
35.0
 40
35.0
 40
36.0
 40
36.0
 40
36.0
 40
37.0
 40
37.0
 40
37.0
 40
38.0
 40
38.0
 40
38.0
 40
39.0
 40
39.0
 40
39.0
 40
40.0
 40
40.0
 40
40.0
 40
41.0
 40
41.0
 40
41.0
 40
42.0
 40
42.0
 40
42.0
 40
43.0
 40
43.0
 40
43.0
 40
43.0
 10
602.0915056273461
 20
616.1232494259411
 10
602.0915056273461
 20
616.1232494259411
 10
602.0915056273461
 20
610.3985460389595
 10
602.0915056273461
 20
610.3985460389595
 10
601.302216786009
 20
611.3189898059682
 10
600.5124989833475
 20
612.2388973713187
 10
599.5845483931189
 20
612.9919389805382
 10
598.6567050432222
 20
613.7448733494266
 10
597.6011384582671
 20
614.3437033616574
 10
596.5456791136439
 20
614.9425333738891
 10
595.2488217823575
 20
615.4946066014973
 10
593.9518572107372
 20
616.0460363871152
 10
592.5968756196671
 20
616.3445934705769
 10
591.241894028597
 20
616.6430433137066
 10
589.8327560700163
 20
616.7052427060953
 10
588.4236181114356
 20
616.7673348581511
 10
586.7676129092742
 20
616.666850667345
 10
585.1116077071129
 20
616.5663664765389
 10
583.5426816542949
 20
616.145126453609
 10
581.973755601477
 20
615.7238864306782
 10
580.4936245433091
 20
614.975456155722
 10
579.0136007254714
 20
614.2269186404328
 10
577.6463937365879
 20
613.2735520915912
 10
576.2792939880346
 20
612.3201855427496
 10
575.1601338863802
 20
611.1315337061515
 10
574.041081025056
 20
609.9428818695524
 10
573.164069592387
 20
608.5248429634394
 10
572.2869509193861
 20
607.1068040573282
 10
571.5413088930545
 20
605.4335331617622
 10
570.7964175490433
 20
603.760155025866
 10
570.3922287388541
 20
602.0051669975419
 10
569.9879326883329
 20
600.2502862095498
 10
569.9029983456239
 20
598.4188358247229
 10
569.818171243247
 20
596.5874926802262
 10
569.9055721135846
 20
594.739849005311
 10
569.9929729839223
 20
592.8922053303959
 10
570.3981269570977
 20
591.119629887673
 10
570.8033881706033
 20
589.3470544449501
 10
571.5449550643316
 20
587.6539440880188
 10
572.2869509193861
 20
585.9609409714212
 10
573.1595654984558
 20
584.5144833774066
 10
574.0321800775255
 20
583.0679185430618
 10
575.1508039775217
 20
581.8491321732545
 10
576.269320637186
 20
580.6302385631152
 10
577.6414606813287
 20
579.6459867987433
 10
579.0136007254714
 20
578.6618422747033
 10
580.4891204493779
 20
577.8937870190439
 10
581.9647474136127
 20
577.1257317633863
 10
583.5335662261004
 20
576.6921591023092
 10
585.1023850385864
 20
576.2586936815642
 10
586.763001575011
 20
576.1543488388179
 10
588.4236181114356
 20
576.0498967557396
 10
589.8250347661342
 20
576.1170292033858
 10
591.2264514208309
 20
576.1840544106999
 10
592.5693148544196
 20
576.495265853302
 10
593.9121782880084
 20
576.806477295906
 10
595.1931640502025
 20
577.3761379379121
 10
596.4741498123985
 20
577.9462275412479
 10
597.5397969885325
 20
578.5735834817115
 10
598.6055514050004
 20
579.200939422175
 10
599.5448694703882
 20
579.9784318270231
 10
600.4841875357779
 20
580.7560314722032
 10
601.2880610622251
 20
581.6944916149387
 10
602.0915056273461
 20
582.6333807190003
 10
602.0915056273461
 20
582.6333807190003
 10
602.0915056273461
 20
576.0498967557396
 10
602.0915056273461
 20
576.0498967557396
 10
602.0175097984702
 20
574.4359297636056
 10
601.9435139695943
 20
572.8219627714716
 10
601.458036987975
 20
571.3589901663763
 10
600.9725600063539
 20
569.8961248016112
 10
600.0141531619211
 20
568.6068815338749
 10
599.0501698202406
 20
567.3196758324411
 10
597.8795343593683
 20
566.4067388886524
 10
596.7082554565059
 20
565.494981588512
 10
595.3745074511135
 20
565.0043570709695
 10
594.0407594457192
 20
564.513732553427
 10
592.5560170532881
 20
564.4139990449421
 10
591.0713819011889
 20
564.3141582961271
 10
589.7927554262915
 20
564.3759287271878
 10
588.514128951394
 20
564.4375919179165
 10
587.3016697611565
 20
564.7466585538859
 10
586.089210570919
 20
565.0557251898554
 10
584.9484951625927
 20
565.6326781744174
 10
583.8079942349286
 20
566.2104890816354
 10
582.914146070183
 20
566.8562903591519
 10
582.0201906651037
 20
567.5019843963364
 10
581.3537992438996
 20
568.3274132294573
 10
580.6873005823636
 20
569.1527348222444
 10
580.2616637058345
 20
570.1681935231427
 10
579.8364557906316
 20
571.183866704705
 10
579.8364557906316
 20
571.183866704705
 10
571.7502130592111
 20
571.183866704705
 10
571.7502130592111
 20
571.183866704705
 10
572.1803540296733
 20
569.1473728056608
 10
572.6103877598034
 20
567.1109861469467
 10
573.6124414192382
 20
565.4115486104456
 10
574.6144950786729
 20
563.7121110739445
 10
576.1879252254239
 20
562.3494081789922
 10
577.7612481318411
 20
560.9867052840382
 10
579.8236941911582
 20
559.8264721353407
 10
581.8871054134597
 20
558.669456196596
 10
584.1107336913265
 20
558.0614035158378
 10
586.3343619691932
 20
557.4534580754116
 10
588.7028719351911
 20
557.3416064094454
 10
591.0713819011889
 20
557.2297547434791
 10
592.87462807878
 20
557.3054664176616
 10
594.6778742563693
 20
557.381285332176
 10
596.4038001548015
 20
557.7763587141708
 10
598.1297260532319
 20
558.1715393364975
 10
599.7709320896192
 20
558.9163234401767
 10
601.4117091646785
 20
559.6628233891624
 10
602.7574680872222
 20
560.538440697519
 10
604.1032270097658
 20
561.4141652462076
 10
605.2075879456461
 20
562.5281778119406
 10
606.3119488815264
 20
563.6421903776736
 10
607.1714801401286
 20
564.9979226510659
 10
608.0310113987289
 20
566.3536549244582
 10
608.719923289591
 20
567.8958781346828
 10
609.4082989787948
 20
569.4382085852394
 10
609.7839618607504
 20
571.0557145083185
 10
610.159624742706
 20
572.6732204313994
 10
610.2402694721477
 20
574.3616122137355
 10
610.3209142015894
 20
576.0498967557396
 10
610.3209142015894
 20
576.0498967557396
 10
610.3209142015894
 20
616.1232494259411
 10
610.3209142015894
 20
616.1232494259411
 10
610.3209142015894
 20
616.1232494259411
 10
602.0915056273461
 20
616.1232494259411
 10
602.0915056273461
 20
616.1232494259411
 97
        0
 97
        0
 92
        1
 93
        1
 72
     4
 94
        3
 73
     0
 74
     1
 95
       83
 96
       79
 40
0.0
 40
0.0
 40
0.0
 40
0.0
 40
1.0
 40
1.0
 40
1.0
 40
2.0
 40
2.0
 40
2.0
 40
3.0
 40
3.0
 40
3.0
 40
4.0
 40
4.0
 40
4.0
 40
5.0
 40
5.0
 40
5.0
 40
6.0
 40
6.0
 40
6.0
 40
7.0
 40
7.0
 40
7.0
 40
8.0
 40
8.0
 40
8.0
 40
9.0
 40
9.0
 40
9.0
 40
10.0
 40
10.0
 40
10.0
 40
11.0
 40
11.0
 40
11.0
 40
12.0
 40
12.0
 40
12.0
 40
13.0
 40
13.0
 40
13.0
 40
14.0
 40
14.0
 40
14.0
 40
15.0
 40
15.0
 40
15.0
 40
16.0
 40
16.0
 40
16.0
 40
17.0
 40
17.0
 40
17.0
 40
18.0
 40
18.0
 40
18.0
 40
19.0
 40
19.0
 40
19.0
 40
20.0
 40
20.0
 40
20.0
 40
21.0
 40
21.0
 40
21.0
 40
22.0
 40
22.0
 40
22.0
 40
23.0
 40
23.0
 40
23.0
 40
24.0
 40
24.0
 40
24.0
 40
25.0
 40
25.0
 40
25.0
 40
26.0
 40
26.0
 40
26.0
 40
26.0
 10
601.7067273171942
 20
592.774026484858
 10
601.4325137890282
 20
591.585910849919
 10
600.9216208487942
 20
590.4549543117755
 10
600.4098699859078
 20
589.3242122542979
 10
599.8340966449923
 20
588.4035540066252
 10
599.2582160637467
 20
587.4827885186205
 10
598.5273732031874
 20
586.710979851352
 10
597.7966375829619
 20
585.9390639437534
 10
596.9028966585483
 20
585.3237189204392
 10
596.008941253469
 20
584.708695618121
 10
595.083778911865
 20
584.2492780371049
 10
594.1587238105931
 20
583.7898604560887
 10
593.1806919854607
 20
583.5274433644099
 10
592.2027674006586
 20
583.2651335130649
 10
591.171866091996
 20
583.1997169107253
 10
590.1410720236636
 20
583.1343003083857
 10
589.1146748089323
 20
583.2046499659846
 10
588.0882775941991
 20
583.2749996235816
 10
587.1165729486365
 20
583.5446018174825
 10
586.144868303074
 20
583.8140967710533
 10
585.226891063694
 20
584.2793053299811
 10
584.308913824314
 20
584.7444066485787
 10
583.4062719523681
 20
585.3700467437357
 10
582.5037373207542
 20
585.9957940792247
 10
581.7668890016212
 20
586.7795064233105
 10
581.0300406824881
 20
587.5631115270662
 10
580.4511573719537
 20
588.4973892968646
 10
579.8722740614194
 20
589.4315598263329
 10
579.3618100825133
 20
590.5689507843763
 10
578.8520967859276
 20
591.7064489827535
 10
578.5774542964355
 20
592.9004628359362
 10
578.3028118069433
 20
594.0944766891207
 10
578.2467251134622
 20
595.3410383048395
 10
578.190638419981
 20
596.5874926802262
 10
578.2441513455015
 20
597.8178610058567
 10
578.2976642710219
 20
599.048229331489
 10
578.5712343571959
 20
600.2246557702729
 10
578.8448044433717
 20
601.4009749687248
 10
579.3580566709024
 20
602.5187409460686
 10
579.8722740614194
 20
603.6361852024165
 10
579.8722740614194
 20
603.6361852024165
 10
579.8722740614194
 20
603.5355937712793
 10
579.8722740614194
 20
603.5355937712793
 10
580.4707823526551
 20
604.4684774167654
 10
581.0692906438908
 20
605.4014683025835
 10
581.8247987807408
 20
606.1801403510799
 10
582.5801996772589
 20
606.9589196399102
 10
583.4997855216134
 20
607.576409469857
 10
584.4194786062999
 20
608.1937920594719
 10
585.3776709700687
 20
608.6583571764113
 10
586.3357560935056
 20
609.1230295336809
 10
587.3463889794766
 20
609.3876986723244
 10
588.3569146251157
 20
609.6523678109679
 10
589.4197735526268
 20
609.7178916536395
 10
590.4826324801379
 20
609.7835227366413
 10
591.5477434546156
 20
609.715854087337
 10
592.6128544290914
 20
609.6482926783628
 10
593.6233800747304
 20
609.3772963601496
 10
594.6339057203713
 20
609.1061928016024
 10
595.5897387968416
 20
608.6315470934842
 10
596.5456791136439
 20
608.1567941450339
 10
596.5456791136439
 20
608.1567941450339
 10
596.008941253469
 20
608.1086432361008
 10
596.008941253469
 20
608.1086432361008
 10
596.9001084099236
 20
607.4978023067179
 10
597.7910610857143
 20
606.8868541370048
 10
598.522118426934
 20
606.1212654089759
 10
599.2531757681554
 20
605.355569440615
 10
599.8315228770316
 20
604.4422035354983
 10
600.4098699859078
 20
603.5288376303815
 10
600.9228004924425
 20
602.4047444734679
 10
601.4348730763268
 20
601.280436835892
 10
601.7088721238288
 20
600.0981121788627
 10
601.9827639309988
 20
598.9158947621672
 10
602.0371347791715
 20
597.6801644199495
 10
602.0915056273461
 20
596.4444340777336
 10
602.0362768565192
 20
595.2033417189323
 10
601.9810480856904
 20
593.962142119799
 10
601.7067273171942
 20
592.774026484858
 97
        0
 97
        0
 75
     2
 76
     1
 98
        0
  0
SPLINE
  5
88
330
1F
100
AcDbEntity
  8
0
370
     0
100
AcDbSpline
210
0.0
220
0.0
230
1.0
 70
    11
 71
     3
 72
    50
 73
    46
 74
     0
 42
0.0000000001
 43
0.0000000001
 12
1.0
 22
0.0
 32
0.0
 13
1.0
 23
0.0
 33
0.0
 40
0.0
 40
0.0
 40
0.0
 40
0.0
 40
1.0
 40
1.0
 40
1.0
 40
2.0
 40
2.0
 40
2.0
 40
3.0
 40
3.0
 40
3.0
 40
4.0
 40
4.0
 40
4.0
 40
5.0
 40
5.0
 40
5.0
 40
6.0
 40
6.0
 40
6.0
 40
7.0
 40
7.0
 40
7.0
 40
8.0
 40
8.0
 40
8.0
 40
9.0
 40
9.0
 40
9.0
 40
10.0
 40
10.0
 40
10.0
 40
11.0
 40
11.0
 40
11.0
 40
12.0
 40
12.0
 40
12.0
 40
13.0
 40
13.0
 40
13.0
 40
14.0
 40
14.0
 40
14.0
 40
15.0
 40
15.0
 40
15.0
 40
15.0
 10
462.4434674043841
 20
608.239047479452
 30
0.0
 10
461.9114481188044
 20
610.4540965307806
 30
0.0
 10
460.9255877494561
 20
612.5553635901742
 30
0.0
 10
459.9384404961293
 20
614.6563089285728
 30
0.0
 10
458.7266247478819
 20
616.4561234155481
 30
0.0
 10
457.5147017593044
 20
618.2559379025233
 30
0.0
 10
455.9748378363765
 20
619.709687839093
 30
0.0
 10
454.4350811537824
 20
621.1633305353298
 30
0.0
 10
452.571136948447
 20
622.2749838137661
 30
0.0
 10
450.7072999834454
 20
623.3866370922015
 30
0.0
 10
448.4817413796081
 20
624.314051480771
 30
0.0
 10
446.2558610547767
 20
625.2398572643651
 30
0.0
 10
443.9335716717414
 20
625.735414837166
 30
0.0
 10
441.61138952904
 20
626.2308651696349
 30
0.0
 10
439.2000906706926
 20
626.3293117941384
 30
0.0
 10
436.7888990526772
 20
626.427865658974
 30
0.0
 10
436.7888990526772
 20
626.427865658974
 30
0.0
 10
420.5448842885926
 20
626.427865658974
 30
0.0
 10
420.5448842885926
 20
626.427865658974
 30
0.0
 10
420.5448842885926
 20
626.427865658974
 30
0.0
 10
420.5448842885926
 20
576.6939821879478
 30
0.0
 10
420.5448842885926
 20
576.6939821879478
 30
0.0
 10
420.5448842885926
 20
576.6939821879478
 30
0.0
 10
436.7888990526772
 20
576.6939821879478
 30
0.0
 10
436.7888990526772
 20
576.6939821879478
 30
0.0
 10
439.1961227784195
 20
576.7894260831636
 30
0.0
 10
441.6032392638317
 20
576.8848699783812
 30
0.0
 10
443.9255286468651
 20
577.3684166340299
 30
0.0
 10
446.2477107895666
 20
577.8518560493485
 30
0.0
 10
448.4776662470031
 20
578.7569644489231
 30
0.0
 10
450.7072999834454
 20
579.663681453474
 30
0.0
 10
452.5651314898732
 20
580.7450929583702
 30
0.0
 10
454.4229629962992
 20
581.8265044632662
 30
0.0
 10
455.9632558805533
 20
583.2497981456308
 30
0.0
 10
457.5035487648074
 20
584.6730918279954
 30
0.0
 10
458.7210482506325
 20
586.4440586657438
 30
0.0
 10
459.9384404961293
 20
588.2150255034903
 30
0.0
 10
460.929341161067
 20
590.2960241401925
 30
0.0
 10
461.9188477016924
 20
592.3773444978888
 30
0.0
 10
462.4497945839557
 20
594.5748061348204
 30
0.0
 10
462.9808487065493
 20
596.7722677717502
 30
0.0
 10
463.0876600769261
 20
599.0770769807168
 30
0.0
 10
463.1943642069709
 20
601.3819934300136
 30
0.0
 10
463.0849790686334
 20
603.7029959290667
 30
0.0
 10
462.9754866899639
 20
606.0239984281216
 30
0.0
 10
462.4434674043841
 20
608.239047479452
 30
0.0
  0
SPLINE
  5
89
330
1F
100
AcDbEntity
  8
0
370
     0
100
AcDbSpline
210
0.0
220
0.0
230
1.0
 70
    11
 71
     3
 72
    38
 73
    34
 74
     0
 42
0.0000000001
 43
0.0000000001
 12
1.0
 22
0.0
 32
0.0
 13
1.0
 23
0.0
 33
0.0
 40
0.0
 40
0.0
 40
0.0
 40
0.0
 40
1.0
 40
1.0
 40
1.0
 40
2.0
 40
2.0
 40
2.0
 40
3.0
 40
3.0
 40
3.0
 40
4.0
 40
4.0
 40
4.0
 40
5.0
 40
5.0
 40
5.0
 40
6.0
 40
6.0
 40
6.0
 40
7.0
 40
7.0
 40
7.0
 40
8.0
 40
8.0
 40
8.0
 40
9.0
 40
9.0
 40
9.0
 40
10.0
 40
10.0
 40
10.0
 40
11.0
 40
11.0
 40
11.0
 40
11.0
 10
453.8302456829751
 20
594.2389294159257
 30
0.0
 10
453.0839602146534
 20
592.0099391214735
 30
0.0
 10
451.6305319990788
 20
590.0398269877533
 30
0.0
 10
450.1705621232704
 20
588.0719669009995
 30
0.0
 10
448.2008789508782
 20
586.5819697323132
 30
0.0
 10
446.2285147701914
 20
585.0995866271805
 30
0.0
 10
443.9865483956037
 20
584.3438640096665
 30
0.0
 10
441.744689261348
 20
583.5880341518223
 30
0.0
 10
439.2667941570126
 20
583.4685684223059
 30
0.0
 10
436.7888990526772
 20
583.3489954524557
 30
0.0
 10
436.7888990526772
 20
583.3489954524557
 30
0.0
 10
428.7026563212585
 20
583.3489954524557
 30
0.0
 10
428.7026563212585
 20
583.3489954524557
 30
0.0
 10
428.7026563212585
 20
583.3489954524557
 30
0.0
 10
428.7026563212585
 20
619.7728523944661
 30
0.0
 10
428.7026563212585
 20
619.7728523944661
 30
0.0
 10
428.7026563212585
 20
619.7728523944661
 30
0.0
 10
436.7888990526772
 20
619.7728523944661
 30
0.0
 10
436.7888990526772
 20
619.7728523944661
 30
0.0
 10
439.2797702371481
 20
619.6455581207338
 30
0.0
 10
441.7706414216191
 20
619.5182638470023
 30
0.0
 10
444.0126077962068
 20
618.7378759531985
 30
0.0
 10
446.2545741707963
 20
617.9574880593937
 30
0.0
 10
448.2138550310137
 20
616.4356405121925
 30
0.0
 10
450.1705621232704
 20
614.9068223434315
 30
0.0
 10
451.6271003084639
 20
612.8975674886397
 30
0.0
 10
453.0775257947498
 20
610.8860605868813
 30
0.0
 10
453.8248836663897
 20
608.6218954636315
 30
0.0
 10
454.5721342976994
 20
606.3577303403817
 30
0.0
 10
454.6970692841332
 20
603.8698618851977
 30
0.0
 10
454.821897030235
 20
601.3819934300136
 30
0.0
 10
454.699321331098
 20
598.9249029500297
 30
0.0
 10
454.5766383916307
 20
596.4678124700458
 30
0.0
 10
453.8302456829751
 20
594.2389294159257
 30
0.0
  0
HATCH
  5
8A
330
1F
100
AcDbEntity
  8
0
 62
     7
420
 16777215
100
AcDbHatch
 10
0.0
 20
0.0
 30
0.0
210
0.0
220
0.0
230
1.0
  2
SOLID
 70
     1
 71
     0
 91
        2
 92
        1
 93
        1
 72
     4
 94
        3
 73
     0
 74
     1
 95
       50
 96
       46
 40
0.0
 40
0.0
 40
0.0
 40
0.0
 40
1.0
 40
1.0
 40
1.0
 40
2.0
 40
2.0
 40
2.0
 40
3.0
 40
3.0
 40
3.0
 40
4.0
 40
4.0
 40
4.0
 40
5.0
 40
5.0
 40
5.0
 40
6.0
 40
6.0
 40
6.0
 40
7.0
 40
7.0
 40
7.0
 40
8.0
 40
8.0
 40
8.0
 40
9.0
 40
9.0
 40
9.0
 40
10.0
 40
10.0
 40
10.0
 40
11.0
 40
11.0
 40
11.0
 40
12.0
 40
12.0
 40
12.0
 40
13.0
 40
13.0
 40
13.0
 40
14.0
 40
14.0
 40
14.0
 40
15.0
 40
15.0
 40
15.0
 40
15.0
 10
462.4434674043841
 20
608.239047479452
 10
461.9114481188044
 20
610.4540965307806
 10
460.9255877494561
 20
612.5553635901742
 10
459.9384404961293
 20
614.6563089285728
 10
458.7266247478819
 20
616.4561234155481
 10
457.5147017593044
 20
618.2559379025233
 10
455.9748378363765
 20
619.709687839093
 10
454.4350811537824
 20
621.1633305353298
 10
452.571136948447
 20
622.2749838137661
 10
450.7072999834454
 20
623.3866370922015
 10
448.4817413796081
 20
624.314051480771
 10
446.2558610547767
 20
625.2398572643651
 10
443.9335716717414
 20
625.735414837166
 10
441.61138952904
 20
626.2308651696349
 10
439.2000906706926
 20
626.3293117941384
 10
436.7888990526772
 20
626.427865658974
 10
436.7888990526772
 20
626.427865658974
 10
420.5448842885926
 20
626.427865658974
 10
420.5448842885926
 20
626.427865658974
 10
420.5448842885926
 20
626.427865658974
 10
420.5448842885926
 20
576.6939821879478
 10
420.5448842885926
 20
576.6939821879478
 10
420.5448842885926
 20
576.6939821879478
 10
436.7888990526772
 20
576.6939821879478
 10
436.7888990526772
 20
576.6939821879478
 10
439.1961227784195
 20
576.7894260831636
 10
441.6032392638317
 20
576.8848699783812
 10
443.9255286468651
 20
577.3684166340299
 10
446.2477107895666
 20
577.8518560493485
 10
448.4776662470031
 20
578.7569644489231
 10
450.7072999834454
 20
579.663681453474
 10
452.5651314898732
 20
580.7450929583702
 10
454.4229629962992
 20
581.8265044632662
 10
455.9632558805533
 20
583.2497981456308
 10
457.5035487648074
 20
584.6730918279954
 10
458.7210482506325
 20
586.4440586657438
 10
459.9384404961293
 20
588.2150255034903
 10
460.929341161067
 20
590.2960241401925
 10
461.9188477016924
 20
592.3773444978888
 10
462.4497945839557
 20
594.5748061348204
 10
462.9808487065493
 20
596.7722677717502
 10
463.0876600769261
 20
599.0770769807168
 10
463.1943642069709
 20
601.3819934300136
 10
463.0849790686334
 20
603.7029959290667
 10
462.9754866899639
 20
606.0239984281216
 10
462.4434674043841
 20
608.239047479452
 97
        0
 97
        0
 92
        1
 93
        1
 72
     4
 94
        3
 73
     0
 74
     1
 95
       38
 96
       34
 40
0.0
 40
0.0
 40
0.0
 40
0.0
 40
1.0
 40
1.0
 40
1.0
 40
2.0
 40
2.0
 40
2.0
 40
3.0
 40
3.0
 40
3.0
 40
4.0
 40
4.0
 40
4.0
 40
5.0
 40
5.0
 40
5.0
 40
6.0
 40
6.0
 40
6.0
 40
7.0
 40
7.0
 40
7.0
 40
8.0
 40
8.0
 40
8.0
 40
9.0
 40
9.0
 40
9.0
 40
10.0
 40
10.0
 40
10.0
 40
11.0
 40
11.0
 40
11.0
 40
11.0
 10
453.8302456829751
 20
594.2389294159257
 10
453.0839602146534
 20
592.0099391214735
 10
451.6305319990788
 20
590.0398269877533
 10
450.1705621232704
 20
588.0719669009995
 10
448.2008789508782
 20
586.5819697323132
 10
446.2285147701914
 20
585.0995866271805
 10
443.9865483956037
 20
584.3438640096665
 10
441.744689261348
 20
583.5880341518223
 10
439.2667941570126
 20
583.4685684223059
 10
436.7888990526772
 20
583.3489954524557
 10
436.7888990526772
 20
583.3489954524557
 10
428.7026563212585
 20
583.3489954524557
 10
428.7026563212585
 20
583.3489954524557
 10
428.7026563212585
 20
583.3489954524557
 10
428.7026563212585
 20
619.7728523944661
 10
428.7026563212585
 20
619.7728523944661
 10
428.7026563212585
 20
619.7728523944661
 10
436.7888990526772
 20
619.7728523944661
 10
436.7888990526772
 20
619.7728523944661
 10
439.2797702371481
 20
619.6455581207338
 10
441.7706414216191
 20
619.5182638470023
 10
444.0126077962068
 20
618.7378759531985
 10
446.2545741707963
 20
617.9574880593937
 10
448.2138550310137
 20
616.4356405121925
 10
450.1705621232704
 20
614.9068223434315
 10
451.6271003084639
 20
612.8975674886397
 10
453.0775257947498
 20
610.8860605868813
 10
453.8248836663897
 20
608.6218954636315
 10
454.5721342976994
 20
606.3577303403817
 10
454.6970692841332
 20
603.8698618851977
 10
454.821897030235
 20
601.3819934300136
 10
454.699321331098
 20
598.9249029500297
 10
454.5766383916307
 20
596.4678124700458
 10
453.8302456829751
 20
594.2389294159257
 97
        0
 97
        0
 75
     2
 76
     1
 98
        0
  0
INSERT
  5
8C
330
1F
100
AcDbEntity
  8
0
100
AcDbBlockReference
  2
block 8
 10
0.0
 20
0.0
 30
0.0
  0
INSERT
  5
9E
330
1F
100
AcDbEntity
  8
0
100
AcDbBlockReference
  2
block 9
 10
0.0
 20
0.0
 30
0.0
  0
SPLINE
  5
AB
330
1F
100
AcDbEntity
  8
0
370
     0
100
AcDbSpline
210
0.0
220
0.0
230
1.0
 70
    11
 71
     3
 72
    59
 73
    55
 74
     0
 42
0.0000000001
 43
0.0000000001
 12
1.0
 22
0.0
 32
0.0
 13
1.0
 23
0.0
 33
0.0
 40
0.0
 40
0.0
 40
0.0
 40
0.0
 40
1.0
 40
1.0
 40
1.0
 40
2.0
 40
2.0
 40
2.0
 40
3.0
 40
3.0
 40
3.0
 40
4.0
 40
4.0
 40
4.0
 40
5.0
 40
5.0
 40
5.0
 40
6.0
 40
6.0
 40
6.0
 40
7.0
 40
7.0
 40
7.0
 40
8.0
 40
8.0
 40
8.0
 40
9.0
 40
9.0
 40
9.0
 40
10.0
 40
10.0
 40
10.0
 40
11.0
 40
11.0
 40
11.0
 40
12.0
 40
12.0
 40
12.0
 40
13.0
 40
13.0
 40
13.0
 40
14.0
 40
14.0
 40
14.0
 40
15.0
 40
15.0
 40
15.0
 40
16.0
 40
16.0
 40
16.0
 40
17.0
 40
17.0
 40
17.0
 40
18.0
 40
18.0
 40
18.0
 40
18.0
 10
203.4331865841104
 20
597.3031074136816
 30
0.0
 10
205.130801034973
 20
597.8131424312614
 30
0.0
 10
206.8284154858347
 20
598.3231774488431
 30
0.0
 10
208.2865622760037
 20
599.2094115500386
 30
0.0
 10
209.7447090661726
 20
600.095538410902
 30
0.0
 10
210.9370070740497
 20
601.3994736040822
 30
0.0
 10
212.1276964769504
 20
602.7058753248912
 30
0.0
 10
212.951731185758
 20
604.0660044518827
 30
0.0
 10
213.7757658945657
 20
605.426026338544
 30
0.0
 10
214.2469799120699
 20
606.898972294488
 30
0.0
 10
214.7181939295742
 20
608.3718110100999
 30
0.0
 10
214.8362655347792
 20
609.9576810353265
 30
0.0
 10
214.9543371399841
 20
611.5434438202228
 30
0.0
 10
214.8791616674607
 20
612.8626071405042
 30
0.0
 10
214.8039861949364
 20
614.1816632204536
 30
0.0
 10
214.4788335092126
 20
615.4347664964062
 30
0.0
 10
214.1535735831567
 20
616.6877625320267
 30
0.0
 10
213.5700789383591
 20
617.8725537166847
 30
0.0
 10
212.9864770532304
 20
619.0572376610107
 30
0.0
 10
212.1974026925573
 20
620.1716791880699
 30
0.0
 10
211.4077921302269
 20
621.2855845134718
 30
0.0
 10
210.4134597746743
 20
622.1752503052821
 30
0.0
 10
209.4191274191217
 20
623.0649160970916
 30
0.0
 10
208.2330493504842
 20
623.7444980790951
 30
0.0
 10
207.0469712818458
 20
624.4241873014307
 30
0.0
 10
205.49327335613
 20
625.0487549932695
 30
0.0
 10
203.9391464690862
 20
625.6709633978126
 30
0.0
 10
202.3206753830209
 20
625.9936495559068
 30
0.0
 10
200.7022042969556
 20
626.316335714002
 30
0.0
 10
199.0264668737609
 20
626.372100686488
 30
0.0
 10
197.3506222102342
 20
626.427865658974
 30
0.0
 10
197.3506222102342
 20
626.427865658974
 30
0.0
 10
180.1764048089562
 20
626.427865658974
 30
0.0
 10
180.1764048089562
 20
626.427865658974
 30
0.0
 10
180.1764048089562
 20
626.427865658974
 30
0.0
 10
180.1764048089562
 20
576.6939821879478
 30
0.0
 10
180.1764048089562
 20
576.6939821879478
 30
0.0
 10
180.1764048089562
 20
576.6939821879478
 30
0.0
 10
188.3341768416212
 20
576.6939821879478
 30
0.0
 10
188.3341768416212
 20
576.6939821879478
 30
0.0
 10
188.3341768416212
 20
576.6939821879478
 30
0.0
 10
188.3341768416212
 20
596.5874926802262
 30
0.0
 10
188.3341768416212
 20
596.5874926802262
 30
0.0
 10
188.3341768416212
 20
596.5874926802262
 30
0.0
 10
194.5599070583212
 20
596.5874926802262
 30
0.0
 10
194.5599070583212
 20
596.5874926802262
 30
0.0
 10
194.5599070583212
 20
596.5874926802262
 30
0.0
 10
206.0094210726174
 20
576.6939821879478
 30
0.0
 10
206.0094210726174
 20
576.6939821879478
 30
0.0
 10
206.0094210726174
 20
576.6939821879478
 30
0.0
 10
215.7414811746858
 20
576.6939821879478
 30
0.0
 10
215.7414811746858
 20
576.6939821879478
 30
0.0
 10
215.7414811746858
 20
576.6939821879478
 30
0.0
 10
203.4331865841104
 20
597.3031074136816
 30
0.0
 10
203.4331865841104
 20
597.3031074136816
 30
0.0
  0
SPLINE
  5
AC
330
1F
100
AcDbEntity
  8
0
370
     0
100
AcDbSpline
210
0.0
220
0.0
230
1.0
 70
    11
 71
     3
 72
    38
 73
    34
 74
     0
 42
0.0000000001
 43
0.0000000001
 12
1.0
 22
0.0
 32
0.0
 13
1.0
 23
0.0
 33
0.0
 40
0.0
 40
0.0
 40
0.0
 40
0.0
 40
1.0
 40
1.0
 40
1.0
 40
2.0
 40
2.0
 40
2.0
 40
3.0
 40
3.0
 40
3.0
 40
4.0
 40
4.0
 40
4.0
 40
5.0
 40
5.0
 40
5.0
 40
6.0
 40
6.0
 40
6.0
 40
7.0
 40
7.0
 40
7.0
 40
8.0
 40
8.0
 40
8.0
 40
9.0
 40
9.0
 40
9.0
 40
10.0
 40
10.0
 40
10.0
 40
11.0
 40
11.0
 40
11.0
 40
11.0
 10
197.3506222102342
 20
603.0994473422415
 30
0.0
 10
197.3506222102342
 20
603.0994473422415
 30
0.0
 10
188.3341768416212
 20
603.0994473422415
 30
0.0
 10
188.3341768416212
 20
603.0994473422415
 30
0.0
 10
188.3341768416212
 20
603.0994473422415
 30
0.0
 10
188.3341768416212
 20
619.7728523944661
 30
0.0
 10
188.3341768416212
 20
619.7728523944661
 30
0.0
 10
188.3341768416212
 20
619.7728523944661
 30
0.0
 10
197.3506222102342
 20
619.7728523944661
 30
0.0
 10
197.3506222102342
 20
619.7728523944661
 30
0.0
 10
198.6162726049961
 20
619.73156486676
 30
0.0
 10
199.881922999758
 20
619.6903845793859
 30
0.0
 10
201.0455878390694
 20
619.346786556609
 30
0.0
 10
202.2092526783817
 20
619.0032957741632
 30
0.0
 10
203.2517359428684
 20
618.3001209191852
 30
0.0
 10
204.2919671603904
 20
617.5902971636415
 30
0.0
 10
204.9991099076415
 20
616.7101757613527
 30
0.0
 10
205.7044295692531
 20
615.8294109170747
 30
0.0
 10
206.0749449152881
 20
614.8172766664593
 30
0.0
 10
206.4455675016543
 20
613.8051424158439
 30
0.0
 10
206.5137723526177
 20
612.6742931180333
 30
0.0
 10
206.5818699632491
 20
611.5434438202228
 30
0.0
 10
206.5081958553692
 20
610.3956505500028
 30
0.0
 10
206.4345217474893
 20
609.2477500394525
 30
0.0
 10
206.0562850975712
 20
608.2183500954325
 30
0.0
 10
205.678048447654
 20
607.1890573917444
 30
0.0
 10
204.967795730784
 20
606.2888820474273
 30
0.0
 10
204.2561488896008
 20
605.3893501451003
 30
0.0
 10
203.2299661555326
 20
604.6540031906115
 30
0.0
 10
202.2017458551618
 20
603.9242327333704
 30
0.0
 10
201.0443009550891
 20
603.5612242105562
 30
0.0
 10
199.8867488146843
 20
603.1983229280722
 30
0.0
 10
198.6187391326257
 20
603.1488851351569
 30
0.0
 10
197.3506222102342
 20
603.0994473422415
 30
0.0
  0
HATCH
  5
AD
330
1F
100
AcDbEntity
  8
0
 62
     7
420
 16777215
100
AcDbHatch
 10
0.0
 20
0.0
 30
0.0
210
0.0
220
0.0
230
1.0
  2
SOLID
 70
     1
 71
     0
 91
        2
 92
        1
 93
        1
 72
     4
 94
        3
 73
     0
 74
     1
 95
       59
 96
       55
 40
0.0
 40
0.0
 40
0.0
 40
0.0
 40
1.0
 40
1.0
 40
1.0
 40
2.0
 40
2.0
 40
2.0
 40
3.0
 40
3.0
 40
3.0
 40
4.0
 40
4.0
 40
4.0
 40
5.0
 40
5.0
 40
5.0
 40
6.0
 40
6.0
 40
6.0
 40
7.0
 40
7.0
 40
7.0
 40
8.0
 40
8.0
 40
8.0
 40
9.0
 40
9.0
 40
9.0
 40
10.0
 40
10.0
 40
10.0
 40
11.0
 40
11.0
 40
11.0
 40
12.0
 40
12.0
 40
12.0
 40
13.0
 40
13.0
 40
13.0
 40
14.0
 40
14.0
 40
14.0
 40
15.0
 40
15.0
 40
15.0
 40
16.0
 40
16.0
 40
16.0
 40
17.0
 40
17.0
 40
17.0
 40
18.0
 40
18.0
 40
18.0
 40
18.0
 10
203.4331865841104
 20
597.3031074136816
 10
205.130801034973
 20
597.8131424312614
 10
206.8284154858347
 20
598.3231774488431
 10
208.2865622760037
 20
599.2094115500386
 10
209.7447090661726
 20
600.095538410902
 10
210.9370070740497
 20
601.3994736040822
 10
212.1276964769504
 20
602.7058753248912
 10
212.951731185758
 20
604.0660044518827
 10
213.7757658945657
 20
605.426026338544
 10
214.2469799120699
 20
606.898972294488
 10
214.7181939295742
 20
608.3718110100999
 10
214.8362655347792
 20
609.9576810353265
 10
214.9543371399841
 20
611.5434438202228
 10
214.8791616674607
 20
612.8626071405042
 10
214.8039861949364
 20
614.1816632204536
 10
214.4788335092126
 20
615.4347664964062
 10
214.1535735831567
 20
616.6877625320267
 10
213.5700789383591
 20
617.8725537166847
 10
212.9864770532304
 20
619.0572376610107
 10
212.1974026925573
 20
620.1716791880699
 10
211.4077921302269
 20
621.2855845134718
 10
210.4134597746743
 20
622.1752503052821
 10
209.4191274191217
 20
623.0649160970916
 10
208.2330493504842
 20
623.7444980790951
 10
207.0469712818458
 20
624.4241873014307
 10
205.49327335613
 20
625.0487549932695
 10
203.9391464690862
 20
625.6709633978126
 10
202.3206753830209
 20
625.9936495559068
 10
200.7022042969556
 20
626.316335714002
 10
199.0264668737609
 20
626.372100686488
 10
197.3506222102342
 20
626.427865658974
 10
197.3506222102342
 20
626.427865658974
 10
180.1764048089562
 20
626.427865658974
 10
180.1764048089562
 20
626.427865658974
 10
180.1764048089562
 20
626.427865658974
 10
180.1764048089562
 20
576.6939821879478
 10
180.1764048089562
 20
576.6939821879478
 10
180.1764048089562
 20
576.6939821879478
 10
188.3341768416212
 20
576.6939821879478
 10
188.3341768416212
 20
576.6939821879478
 10
188.3341768416212
 20
576.6939821879478
 10
188.3341768416212
 20
596.5874926802262
 10
188.3341768416212
 20
596.5874926802262
 10
188.3341768416212
 20
596.5874926802262
 10
194.5599070583212
 20
596.5874926802262
 10
194.5599070583212
 20
596.5874926802262
 10
194.5599070583212
 20
596.5874926802262
 10
206.0094210726174
 20
576.6939821879478
 10
206.0094210726174
 20
576.6939821879478
 10
206.0094210726174
 20
576.6939821879478
 10
215.7414811746858
 20
576.6939821879478
 10
215.7414811746858
 20
576.6939821879478
 10
215.7414811746858
 20
576.6939821879478
 10
203.4331865841104
 20
597.3031074136816
 10
203.4331865841104
 20
597.3031074136816
 97
        0
 97
        0
 92
        1
 93
        1
 72
     4
 94
        3
 73
     0
 74
     1
 95
       38
 96
       34
 40
0.0
 40
0.0
 40
0.0
 40
0.0
 40
1.0
 40
1.0
 40
1.0
 40
2.0
 40
2.0
 40
2.0
 40
3.0
 40
3.0
 40
3.0
 40
4.0
 40
4.0
 40
4.0
 40
5.0
 40
5.0
 40
5.0
 40
6.0
 40
6.0
 40
6.0
 40
7.0
 40
7.0
 40
7.0
 40
8.0
 40
8.0
 40
8.0
 40
9.0
 40
9.0
 40
9.0
 40
10.0
 40
10.0
 40
10.0
 40
11.0
 40
11.0
 40
11.0
 40
11.0
 10
197.3506222102342
 20
603.0994473422415
 10
197.3506222102342
 20
603.0994473422415
 10
188.3341768416212
 20
603.0994473422415
 10
188.3341768416212
 20
603.0994473422415
 10
188.3341768416212
 20
603.0994473422415
 10
188.3341768416212
 20
619.7728523944661
 10
188.3341768416212
 20
619.7728523944661
 10
188.3341768416212
 20
619.7728523944661
 10
197.3506222102342
 20
619.7728523944661
 10
197.3506222102342
 20
619.7728523944661
 10
198.6162726049961
 20
619.73156486676
 10
199.881922999758
 20
619.6903845793859
 10
201.0455878390694
 20
619.346786556609
 10
202.2092526783817
 20
619.0032957741632
 10
203.2517359428684
 20
618.3001209191852
 10
204.2919671603904
 20
617.5902971636415
 10
204.9991099076415
 20
616.7101757613527
 10
205.7044295692531
 20
615.8294109170747
 10
206.0749449152881
 20
614.8172766664593
 10
206.4455675016543
 20
613.8051424158439
 10
206.5137723526177
 20
612.6742931180333
 10
206.5818699632491
 20
611.5434438202228
 10
206.5081958553692
 20
610.3956505500028
 10
206.4345217474893
 20
609.2477500394525
 10
206.0562850975712
 20
608.2183500954325
 10
205.678048447654
 20
607.1890573917444
 10
204.967795730784
 20
606.2888820474273
 10
204.2561488896008
 20
605.3893501451003
 10
203.2299661555326
 20
604.6540031906115
 10
202.2017458551618
 20
603.9242327333704
 10
201.0443009550891
 20
603.5612242105562
 10
199.8867488146843
 20
603.1983229280722
 10
198.6187391326257
 20
603.1488851351569
 10
197.3506222102342
 20
603.0994473422415
 97
        0
 97
        0
 75
     2
 76
     1
 98
        0
  0
SPLINE
  5
AE
330
1F
100
AcDbEntity
  8
0
370
     0
100
AcDbSpline
210
0.0
220
0.0
230
1.0
 70
    11
 71
     3
 72
    65
 73
    61
 74
     0
 42
0.0000000001
 43
0.0000000001
 12
1.0
 22
0.0
 32
0.0
 13
1.0
 23
0.0
 33
0.0
 40
0.0
 40
0.0
 40
0.0
 40
0.0
 40
1.0
 40
1.0
 40
1.0
 40
2.0
 40
2.0
 40
2.0
 40
3.0
 40
3.0
 40
3.0
 40
4.0
 40
4.0
 40
4.0
 40
5.0
 40
5.0
 40
5.0
 40
6.0
 40
6.0
 40
6.0
 40
7.0
 40
7.0
 40
7.0
 40
8.0
 40
8.0
 40
8.0
 40
9.0
 40
9.0
 40
9.0
 40
10.0
 40
10.0
 40
10.0
 40
11.0
 40
11.0
 40
11.0
 40
12.0
 40
12.0
 40
12.0
 40
13.0
 40
13.0
 40
13.0
 40
14.0
 40
14.0
 40
14.0
 40
15.0
 40
15.0
 40
15.0
 40
16.0
 40
16.0
 40
16.0
 40
17.0
 40
17.0
 40
17.0
 40
18.0
 40
18.0
 40
18.0
 40
19.0
 40
19.0
 40
19.0
 40
20.0
 40
20.0
 40
20.0
 40
20.0
 10
438.6154847332273
 20
836.0717432687215
 30
0.0
 10
388.8368820438809
 20
859.4938896353615
 30
0.0
 10
329.496087937885
 20
838.1277549081351
 30
0.0
 10
306.0740488115753
 20
788.3492594591216
 30
0.0
 10
282.6520096852673
 20
738.5707640101082
 30
0.0
 10
304.0180371721617
 20
679.2299699041114
 30
0.0
 10
353.7965326211761
 20
655.8078235374705
 30
0.0
 10
391.4271650158407
 20
638.1016940909449
 30
0.0
 10
436.0978034658292
 20
645.6374721997308
 30
0.0
 10
465.8370488117816
 20
674.7089320001669
 30
0.0
 10
468.7875520579328
 20
677.5930534809931
 30
0.0
 10
468.8412794641154
 20
682.323102791428
 30
0.0
 10
465.957050742958
 20
685.2734987972472
 30
0.0
 10
463.0728220217989
 20
688.2240020433983
 30
0.0
 10
458.3428799516969
 20
688.2777294495827
 30
0.0
 10
455.3923767055439
 20
685.3935007284235
 30
0.0
 10
444.7151003198433
 20
674.9560137244107
 30
0.0
 10
431.4674876638801
 20
667.5276904279908
 30
0.0
 10
416.9930456132297
 20
663.8618941693794
 30
0.0
 10
371.662664642603
 20
652.3814949395528
 30
0.0
 10
325.6085186733108
 20
679.8223654964404
 30
0.0
 10
314.128119443485
 20
725.1527464670671
 30
0.0
 10
302.6477202136575
 20
770.4831274376938
 30
0.0
 10
330.0885907705451
 20
816.5373806473181
 30
0.0
 10
375.4189717411718
 20
828.0176726368127
 30
0.0
 10
375.5388664320162
 20
828.048128891016
 30
0.0
 10
375.6620855731435
 20
828.06346425845
 30
0.0
 10
375.7857336755969
 20
828.06346425845
 30
0.0
 10
376.6109480280538
 20
828.06346425845
 30
0.0
 10
377.2799132172186
 20
827.3944990692853
 30
0.0
 10
377.2799132172186
 20
826.5692847168284
 30
0.0
 10
377.2799132172186
 20
826.5692847168284
 30
0.0
 10
377.2799132172186
 20
722.7802686087962
 30
0.0
 10
377.2799132172186
 20
722.7802686087962
 30
0.0
 10
377.2799132172186
 20
718.6543040868464
 30
0.0
 10
380.6247391630422
 20
715.3094781410218
 30
0.0
 10
384.7507036849929
 20
715.3094781410218
 30
0.0
 10
388.8767754472756
 20
715.3094781410218
 30
0.0
 10
392.2216013930993
 20
718.6543040868464
 30
0.0
 10
392.2216013930993
 20
722.7802686087962
 30
0.0
 10
392.2216013930993
 20
722.7802686087962
 30
0.0
 10
392.2216013930993
 20
760.1876266328563
 30
0.0
 10
392.2216013930993
 20
760.1876266328563
 30
0.0
 10
392.2216013930993
 20
760.512028636259
 30
0.0
 10
392.3272331198259
 20
760.8277441727932
 30
0.0
 10
392.5224105235266
 20
761.0868368141882
 30
0.0
 10
393.0190404996447
 20
761.7458286525043
 30
0.0
 10
393.9558920374038
 20
761.8775197798359
 30
0.0
 10
394.6149911160519
 20
761.3808898037187
 30
0.0
 10
394.6149911160519
 20
761.3808898037187
 30
0.0
 10
475.0820233272552
 20
700.7446324907469
 30
0.0
 10
475.0820233272552
 20
700.7446324907469
 30
0.0
 10
478.3771969994996
 20
698.261482610158
 30
0.0
 10
483.0614546882971
 20
698.9198310064849
 30
0.0
 10
485.5444973285539
 20
702.2150046787301
 30
0.0
 10
485.8535639645215
 20
702.6250917071629
 30
0.0
 10
486.1194127468152
 20
703.065849470464
 30
0.0
 10
486.3379685428263
 20
703.5304145874015
 30
0.0
 10
509.760007669136
 20
753.3089100364159
 30
0.0
 10
488.3939801822398
 20
812.6497041424118
 30
0.0
 10
438.6154847332273
 20
836.0717432687215
 30
0.0
  0
SPLINE
  5
AF
330
1F
100
AcDbEntity
  8
0
370
     0
100
AcDbSpline
210
0.0
220
0.0
230
1.0
 70
    11
 71
     3
 72
    29
 73
    25
 74
     0
 42
0.0000000001
 43
0.0000000001
 12
1.0
 22
0.0
 32
0.0
 13
1.0
 23
0.0
 33
0.0
 40
0.0
 40
0.0
 40
0.0
 40
0.0
 40
1.0
 40
1.0
 40
1.0
 40
2.0
 40
2.0
 40
2.0
 40
3.0
 40
3.0
 40
3.0
 40
4.0
 40
4.0
 40
4.0
 40
5.0
 40
5.0
 40
5.0
 40
6.0
 40
6.0
 40
6.0
 40
7.0
 40
7.0
 40
7.0
 40
8.0
 40
8.0
 40
8.0
 40
8.0
 10
393.7157809347209
 20
792.218705107638
 30
0.0
 10
392.890566582264
 20
792.218705107638
 30
0.0
 10
392.2216013930993
 20
792.8876702968028
 30
0.0
 10
392.2216013930993
 20
793.7128846492596
 30
0.0
 10
392.2216013930993
 20
793.7128846492596
 30
0.0
 10
392.2216013930993
 20
829.077636075368
 30
0.0
 10
392.2216013930993
 20
829.077636075368
 30
0.0
 10
392.2216013930993
 20
829.8853702537563
 30
0.0
 10
392.8635420186747
 20
830.546935860033
 30
0.0
 10
393.6709544760688
 20
830.5710649346665
 30
0.0
 10
405.0966611367257
 20
830.913376073464
 30
0.0
 10
416.4732517254652
 20
828.9385453651485
 30
0.0
 10
427.1151388017042
 20
824.7656095779121
 30
0.0
 10
427.2538005505958
 20
824.7112387297384
 30
0.0
 10
427.3785210563674
 20
824.6265188676934
 30
0.0
 10
427.480077650489
 20
824.5175626906821
 30
0.0
 10
427.8552043307882
 20
824.1153042064634
 30
0.0
 10
427.8332200627883
 20
823.4849455367121
 30
0.0
 10
427.4308543382376
 20
823.1097116160827
 30
0.0
 10
427.4308543382376
 20
823.1097116160827
 30
0.0
 10
394.7347785665643
 20
792.6201056692034
 30
0.0
 10
394.7347785665643
 20
792.6201056692034
 30
0.0
 10
394.4580985107696
 20
792.3621926714568
 30
0.0
 10
394.0940175846372
 20
792.218705107638
 30
0.0
 10
393.7157809347209
 20
792.218705107638
 30
0.0
  0
SPLINE
  5
B0
330
1F
100
AcDbEntity
  8
0
370
     0
100
AcDbSpline
210
0.0
220
0.0
230
1.0
 70
    11
 71
     3
 72
    29
 73
    25
 74
     0
 42
0.0000000001
 43
0.0000000001
 12
1.0
 22
0.0
 32
0.0
 13
1.0
 23
0.0
 33
0.0
 40
0.0
 40
0.0
 40
0.0
 40
0.0
 40
1.0
 40
1.0
 40
1.0
 40
2.0
 40
2.0
 40
2.0
 40
3.0
 40
3.0
 40
3.0
 40
4.0
 40
4.0
 40
4.0
 40
5.0
 40
5.0
 40
5.0
 40
6.0
 40
6.0
 40
6.0
 40
7.0
 40
7.0
 40
7.0
 40
8.0
 40
8.0
 40
8.0
 40
8.0
 10
476.9713834912018
 20
720.5262913170582
 30
0.0
 10
476.9202298529799
 20
720.3639294548593
 30
0.0
 10
476.8418371705047
 20
720.2115409435091
 30
0.0
 10
476.7393154133952
 20
720.0755602029094
 30
0.0
 10
476.2427926776109
 20
719.4165683645924
 30
0.0
 10
475.3059411398499
 20
719.2848772372608
 30
0.0
 10
474.6468420612018
 20
719.781507213379
 30
0.0
 10
474.6468420612018
 20
719.781507213379
 30
0.0
 10
400.7887097718758
 20
775.4376307623834
 30
0.0
 10
400.7887097718758
 20
775.4376307623834
 30
0.0
 10
400.7192180369311
 20
775.4899640442545
 30
0.0
 10
400.6544448765835
 20
775.5483027847013
 30
0.0
 10
400.5951409731515
 20
775.6118963014014
 30
0.0
 10
400.0323437123716
 20
776.2154448882275
 30
0.0
 10
400.0653737345365
 20
777.1608756525229
 30
0.0
 10
400.6689223213634
 20
777.7236729133019
 30
0.0
 10
400.6689223213634
 20
777.7236729133019
 30
0.0
 10
441.7003601150027
 20
815.9861653423632
 30
0.0
 10
441.7003601150027
 20
815.9861653423632
 30
0.0
 10
442.2092154889342
 20
816.4607038101494
 30
0.0
 10
442.978235907578
 20
816.5211873572307
 30
0.0
 10
443.5549744114778
 20
816.1321194338107
 30
0.0
 10
474.6266808788423
 20
795.172318323408
 30
0.0
 10
488.221001527203
 20
756.2783948212782
 30
0.0
 10
476.9713834912018
 20
720.5262913170582
 30
0.0
  0
HATCH
  5
B1
330
1F
100
AcDbEntity
  8
0
 62
     7
420
 16777215
100
AcDbHatch
 10
0.0
 20
0.0
 30
0.0
210
0.0
220
0.0
230
1.0
  2
SOLID
 70
     1
 71
     0
 91
        3
 92
        1
 93
        1
 72
     4
 94
        3
 73
     0
 74
     1
 95
       65
 96
       61
 40
0.0
 40
0.0
 40
0.0
 40
0.0
 40
1.0
 40
1.0
 40
1.0
 40
2.0
 40
2.0
 40
2.0
 40
3.0
 40
3.0
 40
3.0
 40
4.0
 40
4.0
 40
4.0
 40
5.0
 40
5.0
 40
5.0
 40
6.0
 40
6.0
 40
6.0
 40
7.0
 40
7.0
 40
7.0
 40
8.0
 40
8.0
 40
8.0
 40
9.0
 40
9.0
 40
9.0
 40
10.0
 40
10.0
 40
10.0
 40
11.0
 40
11.0
 40
11.0
 40
12.0
 40
12.0
 40
12.0
 40
13.0
 40
13.0
 40
13.0
 40
14.0
 40
14.0
 40
14.0
 40
15.0
 40
15.0
 40
15.0
 40
16.0
 40
16.0
 40
16.0
 40
17.0
 40
17.0
 40
17.0
 40
18.0
 40
18.0
 40
18.0
 40
19.0
 40
19.0
 40
19.0
 40
20.0
 40
20.0
 40
20.0
 40
20.0
 10
438.6154847332273
 20
836.0717432687215
 10
388.8368820438809
 20
859.4938896353615
 10
329.496087937885
 20
838.1277549081351
 10
306.0740488115753
 20
788.3492594591216
 10
282.6520096852673
 20
738.5707640101082
 10
304.0180371721617
 20
679.2299699041114
 10
353.7965326211761
 20
655.8078235374705
 10
391.4271650158407
 20
638.1016940909449
 10
436.0978034658292
 20
645.6374721997308
 10
465.8370488117816
 20
674.7089320001669
 10
468.7875520579328
 20
677.5930534809931
 10
468.8412794641154
 20
682.323102791428
 10
465.957050742958
 20
685.2734987972472
 10
463.0728220217989
 20
688.2240020433983
 10
458.3428799516969
 20
688.2777294495827
 10
455.3923767055439
 20
685.3935007284235
 10
444.7151003198433
 20
674.9560137244107
 10
431.4674876638801
 20
667.5276904279908
 10
416.9930456132297
 20
663.8618941693794
 10
371.662664642603
 20
652.3814949395528
 10
325.6085186733108
 20
679.8223654964404
 10
314.128119443485
 20
725.1527464670671
 10
302.6477202136575
 20
770.4831274376938
 10
330.0885907705451
 20
816.5373806473181
 10
375.4189717411718
 20
828.0176726368127
 10
375.5388664320162
 20
828.048128891016
 10
375.6620855731435
 20
828.06346425845
 10
375.7857336755969
 20
828.06346425845
 10
376.6109480280538
 20
828.06346425845
 10
377.2799132172186
 20
827.3944990692853
 10
377.2799132172186
 20
826.5692847168284
 10
377.2799132172186
 20
826.5692847168284
 10
377.2799132172186
 20
722.7802686087962
 10
377.2799132172186
 20
722.7802686087962
 10
377.2799132172186
 20
718.6543040868464
 10
380.6247391630422
 20
715.3094781410218
 10
384.7507036849929
 20
715.3094781410218
 10
388.8767754472756
 20
715.3094781410218
 10
392.2216013930993
 20
718.6543040868464
 10
392.2216013930993
 20
722.7802686087962
 10
392.2216013930993
 20
722.7802686087962
 10
392.2216013930993
 20
760.1876266328563
 10
392.2216013930993
 20
760.1876266328563
 10
392.2216013930993
 20
760.512028636259
 10
392.3272331198259
 20
760.8277441727932
 10
392.5224105235266
 20
761.0868368141882
 10
393.0190404996447
 20
761.7458286525043
 10
393.9558920374038
 20
761.8775197798359
 10
394.6149911160519
 20
761.3808898037187
 10
394.6149911160519
 20
761.3808898037187
 10
475.0820233272552
 20
700.7446324907469
 10
475.0820233272552
 20
700.7446324907469
 10
478.3771969994996
 20
698.261482610158
 10
483.0614546882971
 20
698.9198310064849
 10
485.5444973285539
 20
702.2150046787301
 10
485.8535639645215
 20
702.6250917071629
 10
486.1194127468152
 20
703.065849470464
 10
486.3379685428263
 20
703.5304145874015
 10
509.760007669136
 20
753.3089100364159
 10
488.3939801822398
 20
812.6497041424118
 10
438.6154847332273
 20
836.0717432687215
 97
        0
 97
        0
 92
        1
 93
        1
 72
     4
 94
        3
 73
     0
 74
     1
 95
       29
 96
       25
 40
0.0
 40
0.0
 40
0.0
 40
0.0
 40
1.0
 40
1.0
 40
1.0
 40
2.0
 40
2.0
 40
2.0
 40
3.0
 40
3.0
 40
3.0
 40
4.0
 40
4.0
 40
4.0
 40
5.0
 40
5.0
 40
5.0
 40
6.0
 40
6.0
 40
6.0
 40
7.0
 40
7.0
 40
7.0
 40
8.0
 40
8.0
 40
8.0
 40
8.0
 10
393.7157809347209
 20
792.218705107638
 10
392.890566582264
 20
792.218705107638
 10
392.2216013930993
 20
792.8876702968028
 10
392.2216013930993
 20
793.7128846492596
 10
392.2216013930993
 20
793.7128846492596
 10
392.2216013930993
 20
829.077636075368
 10
392.2216013930993
 20
829.077636075368
 10
392.2216013930993
 20
829.8853702537563
 10
392.8635420186747
 20
830.546935860033
 10
393.6709544760688
 20
830.5710649346665
 10
405.0966611367257
 20
830.913376073464
 10
416.4732517254652
 20
828.9385453651485
 10
427.1151388017042
 20
824.7656095779121
 10
427.2538005505958
 20
824.7112387297384
 10
427.3785210563674
 20
824.6265188676934
 10
427.480077650489
 20
824.5175626906821
 10
427.8552043307882
 20
824.1153042064634
 10
427.8332200627883
 20
823.4849455367121
 10
427.4308543382376
 20
823.1097116160827
 10
427.4308543382376
 20
823.1097116160827
 10
394.7347785665643
 20
792.6201056692034
 10
394.7347785665643
 20
792.6201056692034
 10
394.4580985107696
 20
792.3621926714568
 10
394.0940175846372
 20
792.218705107638
 10
393.7157809347209
 20
792.218705107638
 97
        0
 97
        0
 92
        1
 93
        1
 72
     4
 94
        3
 73
     0
 74
     1
 95
       29
 96
       25
 40
0.0
 40
0.0
 40
0.0
 40
0.0
 40
1.0
 40
1.0
 40
1.0
 40
2.0
 40
2.0
 40
2.0
 40
3.0
 40
3.0
 40
3.0
 40
4.0
 40
4.0
 40
4.0
 40
5.0
 40
5.0
 40
5.0
 40
6.0
 40
6.0
 40
6.0
 40
7.0
 40
7.0
 40
7.0
 40
8.0
 40
8.0
 40
8.0
 40
8.0
 10
476.9713834912018
 20
720.5262913170582
 10
476.9202298529799
 20
720.3639294548593
 10
476.8418371705047
 20
720.2115409435091
 10
476.7393154133952
 20
720.0755602029094
 10
476.2427926776109
 20
719.4165683645924
 10
475.3059411398499
 20
719.2848772372608
 10
474.6468420612018
 20
719.781507213379
 10
474.6468420612018
 20
719.781507213379
 10
400.7887097718758
 20
775.4376307623834
 10
400.7887097718758
 20
775.4376307623834
 10
400.7192180369311
 20
775.4899640442545
 10
400.6544448765835
 20
775.5483027847013
 10
400.5951409731515
 20
775.6118963014014
 10
400.0323437123716
 20
776.2154448882275
 10
400.0653737345365
 20
777.1608756525229
 10
400.6689223213634
 20
777.7236729133019
 10
400.6689223213634
 20
777.7236729133019
 10
441.7003601150027
 20
815.9861653423632
 10
441.7003601150027
 20
815.9861653423632
 10
442.2092154889342
 20
816.4607038101494
 10
442.978235907578
 20
816.5211873572307
 10
443.5549744114778
 20
816.1321194338107
 10
474.6266808788423
 20
795.172318323408
 10
488.221001527203
 20
756.2783948212782
 10
476.9713834912018
 20
720.5262913170582
 97
        0
 97
        0
 75
     2
 76
     1
 98
        0
  0
INSERT
  5
B3
330
1F
100
AcDbEntity
  8
0
100
AcDbBlockReference
  2
block 10
 10
0.0
 20
0.0
 30
0.0
  0
POLYLINE
  5
B8
330
1F
100
AcDbEntity
  8
0
370
     0
100
AcDb2dPolyline
 66
     1
 10
0.0
 20
0.0
 30
0.0
  0
VERTEX
  5
B9
330
B8
100
AcDbEntity
  8
0
370
     0
100
AcDbVertex
100
AcDb2dVertex
 10
249.7322694710128
 20
626.4993949602194
 30
0.0
  0
VERTEX
  5
BA
330
B8
100
AcDbEntity
  8
0
370
     0
100
AcDbVertex
100
AcDb2dVertex
 10
240.2864338142599
 20
626.4993949602194
 30
0.0
  0
VERTEX
  5
BB
330
B8
100
AcDbEntity
  8
0
370
     0
100
AcDbVertex
100
AcDb2dVertex
 10
222.46802374044
 20
576.6939821879478
 30
0.0
  0
VERTEX
  5
BC
330
B8
100
AcDbEntity
  8
0
370
     0
100
AcDbVertex
100
AcDb2dVertex
 10
230.9836567599987
 20
576.6939821879478
 30
0.0
  0
VERTEX
  5
BD
330
B8
100
AcDbEntity
  8
0
370
     0
100
AcDbVertex
100
AcDb2dVertex
 10
234.5616231869462
 20
586.855432578157
 30
0.0
  0
VERTEX
  5
BE
330
B8
100
AcDbEntity
  8
0
370
     0
100
AcDbVertex
100
AcDb2dVertex
 10
255.3854435567491
 20
586.855432578157
 30
0.0
  0
VERTEX
  5
BF
330
B8
100
AcDbEntity
  8
0
370
     0
100
AcDbVertex
100
AcDb2dVertex
 10
258.9634099836958
 20
576.6939821879478
 30
0.0
  0
VERTEX
  5
C0
330
B8
100
AcDbEntity
  8
0
370
     0
100
AcDbVertex
100
AcDb2dVertex
 10
267.5505723045007
 20
576.6939821879478
 30
0.0
  0
VERTEX
  5
C1
330
B8
100
AcDbEntity
  8
0
370
     0
100
AcDbVertex
100
AcDb2dVertex
 10
249.7322694710128
 20
626.4993949602194
 30
0.0
  0
SEQEND
  5
C2
330
B8
100
AcDbEntity
  8
0
370
     0
  0
POLYLINE
  5
C3
330
1F
100
AcDbEntity
  8
0
370
     0
100
AcDb2dPolyline
 66
     1
 10
0.0
 20
0.0
 30
0.0
  0
VERTEX
  5
C4
330
C3
100
AcDbEntity
  8
0
370
     0
100
AcDbVertex
100
AcDb2dVertex
 10
236.8515259898049
 20
593.3673872401723
 30
0.0
  0
VERTEX
  5
C5
330
C3
100
AcDbEntity
  8
0
370
     0
100
AcDbVertex
100
AcDb2dVertex
 10
245.0092980224699
 20
616.4811104128348
 30
0.0
  0
VERTEX
  5
C6
330
C3
100
AcDbEntity
  8
0
370
     0
100
AcDbVertex
100
AcDb2dVertex
 10
253.0955407538895
 20
593.3673872401723
 30
0.0
  0
VERTEX
  5
C7
330
C3
100
AcDbEntity
  8
0
370
     0
100
AcDbVertex
100
AcDb2dVertex
 10
236.8515259898049
 20
593.3673872401723
 30
0.0
  0
SEQEND
  5
C8
330
C3
100
AcDbEntity
  8
0
370
     0
  0
HATCH
  5
C9
330
1F
100
AcDbEntity
  8
0
 62
     7
420
 16777215
100
AcDbHatch
 10
0.0
 20
0.0
 30
0.0
210
0.0
220
0.0
230
1.0
  2
SOLID
 70
     1
 71
     0
 91
        2
 92
        1
 93
        8
 72
     1
 10
249.7322694710128
 20
626.4993949602194
 11
240.2864338142599
 21
626.4993949602194
 72
     1
 10
240.2864338142599
 20
626.4993949602194
 11
222.46802374044
 21
576.6939821879478
 72
     1
 10
222.46802374044
 20
576.6939821879478
 11
230.9836567599987
 21
576.6939821879478
 72
     1
 10
230.9836567599987
 20
576.6939821879478
 11
234.5616231869462
 21
586.855432578157
 72
     1
 10
234.5616231869462
 20
586.855432578157
 11
255.3854435567491
 21
586.855432578157
 72
     1
 10
255.3854435567491
 20
586.855432578157
 11
258.9634099836958
 21
576.6939821879478
 72
     1
 10
258.9634099836958
 20
576.6939821879478
 11
267.5505723045007
 21
576.6939821879478
 72
     1
 10
267.5505723045007
 20
576.6939821879478
 11
249.7322694710128
 21
626.4993949602194
 97
        0
 92
        1
 93
        3
 72
     1
 10
236.8515259898049
 20
593.3673872401723
 11
245.0092980224699
 21
616.4811104128348
 72
     1
 10
245.0092980224699
 20
616.4811104128348
 11
253.0955407538895
 21
593.3673872401723
 72
     1
 10
253.0955407538895
 20
593.3673872401723
 11
236.8515259898049
 21
593.3673872401723
 97
        0
 75
     2
 76
     1
 98
        0
  0
ENDSEC
  0
SECTION
  2
OBJECTS
  0
DICTIONARY
  5
C
330
0
100
AcDbDictionary
281
     1
  3
ACAD_GROUP
350
D
  3
ACAD_LAYOUT
350
1A
  3
ACAD_MATERIAL
350
3B
  3
ACAD_MLEADERSTYLE
350
CB
  3
ACAD_MLINESTYLE
350
17
  3
ACAD_PLOTSETTINGS
350
19
  3
ACAD_PLOTSTYLENAME
350
E
  3
ACAD_TABLESTYLE
350
CA
  3
ACAD_VISUALSTYLE
350
2A
  0
SUN
  5
3F
330
29
100
AcDbSun
 90
        1
290
     0
 63
     7
421
 16777215
 40
1.0
291
     1
 91
  2455826
 92
 54000000
292
     0
 70
     2
 71
   256
280
     1
  0
DICTIONARY
  5
D
102
{ACAD_REACTORS
330
C
102
}
330
C
100
AcDbDictionary
281
     1
  0
DICTIONARY
  5
1A
102
{ACAD_REACTORS
330
C
102
}
330
C
100
AcDbDictionary
281
     1
  3
Layout1
350
1E
  3
Layout2
350
26
  3
Model
350
22
  0
DICTIONARY
  5
3B
102
{ACAD_REACTORS
330
C
102
}
330
C
100
AcDbDictionary
281
     1
  3
ByBlock
350
3D
  3
ByLayer
350
3C
  3
Global
350
3E
  0
DICTIONARY
  5
CB
102
{ACAD_REACTORS
330
C
102
}
330
C
100
AcDbDictionary
281
     1
  0
DICTIONARY
  5
17
102
{ACAD_REACTORS
330
C
102
}
330
C
100
AcDbDictionary
281
     1
  3
Standard
350
18
  0
DICTIONARY
  5
19
102
{ACAD_REACTORS
330
C
102
}
330
C
100
AcDbDictionary
281
     1
  0
ACDBDICTIONARYWDFLT
  5
E
102
{ACAD_REACTORS
330
C
102
}
330
C
100
AcDbDictionary
281
     1
  3
Normal
350
F
100
AcDbDictionaryWithDefault
340
F
  0
DICTIONARY
  5
CA
102
{ACAD_REACTORS
330
C
102
}
330
C
100
AcDbDictionary
281
     1
  0
DICTIONARY
  5
2A
102
{ACAD_REACTORS
330
C
102
}
330
C
100
AcDbDictionary
281
     1
  3
2dWireframe
350
2F
  3
3D Hidden
350
31
  3
3dWireframe
350
30
  3
Basic
350
32
  3
Brighten
350
36
  3
ColorChange
350
3A
  3
Conceptual
350
34
  3
Dim
350
35
  3
Facepattern
350
39
  3
Flat
350
2B
  3
FlatWithEdges
350
2C
  3
Gouraud
350
2D
  3
GouraudWithEdges
350
2E
  3
Linepattern
350
38
  3
Realistic
350
33
  3
Thicken
350
37
  0
LAYOUT
  5
1E
102
{ACAD_REACTORS
330
1A
102
}
330
1A
100
AcDbPlotSettings
  1

  2
none_device
  4

  6

 40
0.0
 41
0.0
 42
0.0
 43
0.0
 44
0.0
 45
0.0
 46
0.0
 47
0.0
 48
0.0
 49
0.0
140
0.0
141
0.0
142
1.0
143
1.0
 70
   688
 72
     0
 73
     0
 74
     5
  7

 75
    16
 76
     0
 77
     2
 78
   300
147
1.0
148
0.0
149
0.0
100
AcDbLayout
  1
Layout1
 70
     1
 71
     1
 10
0.0
 20
0.0
 11
12.0
 21
9.0
 12
0.0
 22
0.0
 32
0.0
 14
1.000000000000000E+20
 24
1.000000000000000E+20
 34
1.000000000000000E+20
 15
-1.000000000000000E+20
 25
-1.000000000000000E+20
 35
-1.000000000000000E+20
146
0.0
 13
0.0
 23
0.0
 33
0.0
 16
1.0
 26
0.0
 36
0.0
 17
0.0
 27
1.0
 37
0.0
 76
     0
330
1B
  0
LAYOUT
  5
26
102
{ACAD_REACTORS
330
1A
102
}
330
1A
100
AcDbPlotSettings
  1

  2
none_device
  4

  6

 40
0.0
 41
0.0
 42
0.0
 43
0.0
 44
0.0
 45
0.0
 46
0.0
 47
0.0
 48
0.0
 49
0.0
140
0.0
141
0.0
142
1.0
143
1.0
 70
   688
 72
     0
 73
     0
 74
     5
  7

 75
    16
 76
     0
 77
     2
 78
   300
147
1.0
148
0.0
149
0.0
100
AcDbLayout
  1
Layout2
 70
     1
 71
     2
 10
0.0
 20
0.0
 11
0.0
 21
0.0
 12
0.0
 22
0.0
 32
0.0
 14
0.0
 24
0.0
 34
0.0
 15
0.0
 25
0.0
 35
0.0
146
0.0
 13
0.0
 23
0.0
 33
0.0
 16
1.0
 26
0.0
 36
0.0
 17
0.0
 27
1.0
 37
0.0
 76
     0
330
23
  0
LAYOUT
  5
22
102
{ACAD_REACTORS
330
1A
102
}
330
1A
100
AcDbPlotSettings
  1

  2
none_device
  4

  6

 40
0.0
 41
0.0
 42
0.0
 43
0.0
 44
0.0
 45
0.0
 46
0.0
 47
0.0
 48
0.0
 49
0.0
140
0.0
141
0.0
142
1.0
143
1.0
 70
  1712
 72
     0
 73
     0
 74
     0
  7

 75
     0
 76
     0
 77
     2
 78
   300
147
1.0
148
0.0
149
0.0
100
AcDbLayout
  1
Model
 70
     1
 71
     0
 10
0.0
 20
0.0
 11
12.0
 21
9.0
 12
0.0
 22
0.0
 32
0.0
 14
1.000000000000000E+20
 24
1.000000000000000E+20
 34
1.000000000000000E+20
 15
-1.000000000000000E+20
 25
-1.000000000000000E+20
 35
-1.000000000000000E+20
146
0.0
 13
0.0
 23
0.0
 33
0.0
 16
1.0
 26
0.0
 36
0.0
 17
0.0
 27
1.0
 37
0.0
 76
     0
330
1F
331
29
  0
MATERIAL
  5
3D
102
{ACAD_REACTORS
330
3B
102
}
330
3B
100
AcDbMaterial
  1
ByBlock
 72
     1
 94
      127
  0
MATERIAL
  5
3C
102
{ACAD_REACTORS
330
3B
102
}
330
3B
100
AcDbMaterial
  1
ByLayer
 72
     1
 94
      127
  0
MATERIAL
  5
3E
102
{ACAD_REACTORS
330
3B
102
}
330
3B
100
AcDbMaterial
  1
Global
 72
     1
 94
      127
  0
MLINESTYLE
  5
18
102
{ACAD_REACTORS
330
17
102
}
330
17
100
AcDbMlineStyle
  2
Standard
 70
     0
  3

 62
   256
 51
90.0
 52
90.0
 71
     2
 49
0.5
 62
   256
  6
BYLAYER
 49
-0.5
 62
   256
  6
BYLAYER
  0
ACDBPLACEHOLDER
  5
F
102
{ACAD_REACTORS
330
E
102
}
330
E
  0
VISUALSTYLE
  5
2F
102
{ACAD_REACTORS
330
2A
102
}
330
2A
100
AcDbVisualStyle
  2
2dWireframe
 70
     4
177
     2
291
     0
 71
     0
176
     1
 72
     2
176
     1
 73
     0
176
     1
 90
        0
176
     1
 40
-0.6
176
     1
 41
-30.0
176
     1
 62
     5
 63
     7
421
 16777215
176
     1
 74
     1
176
     1
 91
        4
176
     1
 64
     7
176
     1
 65
   257
176
     1
 75
     1
176
     1
175
     1
176
     1
 42
1.0
176
     1
 92
        0
176
     1
 66
   257
176
     1
 43
1.0
176
     1
 76
     1
176
     1
 77
     6
176
     1
 78
     2
176
     1
 67
     7
176
     1
 79
     5
176
     1
170
     0
176
     1
171
     0
176
     1
290
     0
176
     1
 93
        1
176
     1
 44
0.0
176
     1
173
     0
176
     1
  0
VISUALSTYLE
  5
31
102
{ACAD_REACTORS
330
2A
102
}
330
2A
100
AcDbVisualStyle
  2
3D Hidden
 70
     6
177
     2
291
     0
 71
     1
176
     1
 72
     2
176
     1
 73
     2
176
     1
 90
        0
176
     1
 40
-0.6
176
     1
 41
-30.0
176
     1
 62
     5
 63
     7
421
 16777215
176
     1
 74
     2
176
     1
 91
        2
176
     1
 64
     7
176
     1
 65
   257
176
     1
 75
     2
176
     1
175
     1
176
     1
 42
40.0
176
     1
 92
        0
176
     1
 66
   257
176
     1
 43
1.0
176
     1
 76
     1
176
     1
 77
     6
176
     1
 78
     2
176
     1
 67
     7
176
     1
 79
     3
176
     1
170
     0
176
     1
171
     0
176
     1
290
     0
176
     1
 93
        1
176
     1
 44
0.0
176
     1
173
     0
176
     1
  0
VISUALSTYLE
  5
30
102
{ACAD_REACTORS
330
2A
102
}
330
2A
100
AcDbVisualStyle
  2
3dWireframe
 70
     5
177
     2
291
     0
 71
     0
176
     1
 72
     2
176
     1
 73
     0
176
     1
 90
        0
176
     1
 40
-0.6
176
     1
 41
-30.0
176
     1
 62
     5
 63
     7
421
 16777215
176
     1
 74
     1
176
     1
 91
        4
176
     1
 64
     7
176
     1
 65
   257
176
     1
 75
     1
176
     1
175
     1
176
     1
 42
1.0
176
     1
 92
        0
176
     1
 66
   257
176
     1
 43
1.0
176
     1
 76
     1
176
     1
 77
     6
176
     1
 78
     2
176
     1
 67
     7
176
     1
 79
     5
176
     1
170
     0
176
     1
171
     0
176
     1
290
     0
176
     1
 93
        1
176
     1
 44
0.0
176
     1
173
     0
176
     1
  0
VISUALSTYLE
  5
32
102
{ACAD_REACTORS
330
2A
102
}
330
2A
100
AcDbVisualStyle
  2
Basic
 70
     7
177
     2
291
     1
 71
     1
176
     1
 72
     0
176
     1
 73
     1
176
     1
 90
        0
176
     1
 40
-0.6
176
     1
 41
-30.0
176
     1
 62
     5
 63
     7
421
 16777215
176
     1
 74
     0
176
     1
 91
        4
176
     1
 64
     7
176
     1
 65
   257
176
     1
 75
     1
176
     1
175
     1
176
     1
 42
1.0
176
     1
 92
        8
176
     1
 66
     7
176
     1
 43
1.0
176
     1
 76
     1
176
     1
 77
     6
176
     1
 78
     2
176
     1
 67
     7
176
     1
 79
     5
176
     1
170
     0
176
     1
171
     0
176
     1
290
     0
176
     1
 93
        1
176
     1
 44
0.0
176
     1
173
     0
176
     1
  0
VISUALSTYLE
  5
36
102
{ACAD_REACTORS
330
2A
102
}
330
2A
100
AcDbVisualStyle
  2
Brighten
 70
    12
177
     2
291
     1
 71
     2
176
     1
 72
     2
176
     1
 73
     0
176
     1
 90
        0
176
     1
 40
-0.6
176
     1
 41
-30.0
176
     1
 62
     5
 63
     7
421
 16777215
176
     1
 74
     1
176
     1
 91
        4
176
     1
 64
     7
176
     1
 65
   257
176
     1
 75
     1
176
     1
175
     1
176
     1
 42
1.0
176
     1
 92
        8
176
     1
 66
     7
176
     1
 43
1.0
176
     1
 76
     1
176
     1
 77
     6
176
     1
 78
     2
176
     1
 67
     7
176
     1
 79
     5
176
     1
170
     0
176
     1
171
     0
176
     1
290
     0
176
     1
 93
        1
176
     1
 44
50.0
176
     1
173
     0
176
     1
  0
VISUALSTYLE
  5
3A
102
{ACAD_REACTORS
330
2A
102
}
330
2A
100
AcDbVisualStyle
  2
ColorChange
 70
    16
177
     2
291
     1
 71
     2
176
     1
 72
     2
176
     1
 73
     3
176
     1
 90
        0
176
     1
 40
-0.6
176
     1
 41
-30.0
176
     1
 62
     5
 63
     8
421
  8421504
176
     1
 74
     1
176
     1
 91
        4
176
     1
 64
     7
176
     1
 65
   257
176
     1
 75
     1
176
     1
175
     1
176
     1
 42
1.0
176
     1
 92
        8
176
     1
 66
     8
424
  8421504
176
     1
 43
1.0
176
     1
 76
     1
176
     1
 77
     6
176
     1
 78
     2
176
     1
 67
     7
176
     1
 79
     5
176
     1
170
     0
176
     1
171
     0
176
     1
290
     0
176
     1
 93
        1
176
     1
 44
0.0
176
     1
173
     0
176
     1
  0
VISUALSTYLE
  5
34
102
{ACAD_REACTORS
330
2A
102
}
330
2A
100
AcDbVisualStyle
  2
Conceptual
 70
     9
177
     2
291
     0
 71
     3
176
     1
 72
     2
176
     1
 73
     0
176
     1
 90
        0
176
     1
 40
-0.6
176
     1
 41
-30.0
176
     1
 62
     5
 63
     7
421
 16777215
176
     1
 74
     2
176
     1
 91
        2
176
     1
 64
     7
176
     1
 65
   257
176
     1
 75
     1
176
     1
175
     1
176
     1
 42
40.0
176
     1
 92
        8
176
     1
 66
     7
176
     1
 43
1.0
176
     1
 76
     1
176
     1
 77
     6
176
     1
 78
     2
176
     1
 67
     7
176
     1
 79
     3
176
     1
170
     0
176
     1
171
     0
176
     1
290
     0
176
     1
 93
        1
176
     1
 44
0.0
176
     1
173
     0
176
     1
  0
VISUALSTYLE
  5
35
102
{ACAD_REACTORS
330
2A
102
}
330
2A
100
AcDbVisualStyle
  2
Dim
 70
    11
177
     2
291
     1
 71
     2
176
     1
 72
     2
176
     1
 73
     0
176
     1
 90
        0
176
     1
 40
-0.6
176
     1
 41
-30.0
176
     1
 62
     5
 63
     7
421
 16777215
176
     1
 74
     1
176
     1
 91
        4
176
     1
 64
     7
176
     1
 65
   257
176
     1
 75
     1
176
     1
175
     1
176
     1
 42
1.0
176
     1
 92
        8
176
     1
 66
     7
176
     1
 43
1.0
176
     1
 76
     1
176
     1
 77
     6
176
     1
 78
     2
176
     1
 67
     7
176
     1
 79
     5
176
     1
170
     0
176
     1
171
     0
176
     1
290
     0
176
     1
 93
        1
176
     1
 44
-50.0
176
     1
173
     0
176
     1
  0
VISUALSTYLE
  5
39
102
{ACAD_REACTORS
330
2A
102
}
330
2A
100
AcDbVisualStyle
  2
Facepattern
 70
    15
177
     2
291
     1
 71
     2
176
     1
 72
     2
176
     1
 73
     0
176
     1
 90
        0
176
     1
 40
-0.6
176
     1
 41
-30.0
176
     1
 62
     5
 63
     7
421
 16777215
176
     1
 74
     1
176
     1
 91
        4
176
     1
 64
     7
176
     1
 65
   257
176
     1
 75
     1
176
     1
175
     1
176
     1
 42
1.0
176
     1
 92
        8
176
     1
 66
     7
176
     1
 43
1.0
176
     1
 76
     1
176
     1
 77
     6
176
     1
 78
     2
176
     1
 67
     7
176
     1
 79
     5
176
     1
170
     0
176
     1
171
     0
176
     1
290
     0
176
     1
 93
        1
176
     1
 44
0.0
176
     1
173
     0
176
     1
  0
VISUALSTYLE
  5
2B
102
{ACAD_REACTORS
330
2A
102
}
330
2A
100
AcDbVisualStyle
  2
Flat
 70
     0
177
     2
291
     1
 71
     2
176
     1
 72
     1
176
     1
 73
     1
176
     1
 90
        2
176
     1
 40
-0.6
176
     1
 41
30.0
176
     1
 62
     5
 63
     7
421
 16777215
176
     1
 74
     0
176
     1
 91
        4
176
     1
 64
     7
176
     1
 65
   257
176
     1
 75
     1
176
     1
175
     1
176
     1
 42
1.0
176
     1
 92
        8
176
     1
 66
     7
176
     1
 43
1.0
176
     1
 76
     1
176
     1
 77
     6
176
     1
 78
     2
176
     1
 67
     7
176
     1
 79
     5
176
     1
170
     0
176
     1
171
     0
176
     1
290
     0
176
     1
 93
       13
176
     1
 44
0.0
176
     1
173
     0
176
     1
  0
VISUALSTYLE
  5
2C
102
{ACAD_REACTORS
330
2A
102
}
330
2A
100
AcDbVisualStyle
  2
FlatWithEdges
 70
     1
177
     2
291
     1
 71
     2
176
     1
 72
     1
176
     1
 73
     1
176
     1
 90
        2
176
     1
 40
-0.6
176
     1
 41
30.0
176
     1
 62
     5
 63
     7
421
 16777215
176
     1
 74
     1
176
     1
 91
        4
176
     1
 64
     7
176
     1
 65
   257
176
     1
 75
     1
176
     1
175
     1
176
     1
 42
1.0
176
     1
 92
        0
176
     1
 66
   257
176
     1
 43
1.0
176
     1
 76
     1
176
     1
 77
     6
176
     1
 78
     2
176
     1
 67
     7
176
     1
 79
     5
176
     1
170
     0
176
     1
171
     0
176
     1
290
     0
176
     1
 93
       13
176
     1
 44
0.0
176
     1
173
     0
176
     1
  0
VISUALSTYLE
  5
2D
102
{ACAD_REACTORS
330
2A
102
}
330
2A
100
AcDbVisualStyle
  2
Gouraud
 70
     2
177
     2
291
     1
 71
     2
176
     1
 72
     2
176
     1
 73
     1
176
     1
 90
        2
176
     1
 40
-0.6
176
     1
 41
30.0
176
     1
 62
     5
 63
     7
421
 16777215
176
     1
 74
     0
176
     1
 91
        4
176
     1
 64
     7
176
     1
 65
   257
176
     1
 75
     1
176
     1
175
     1
176
     1
 42
1.0
176
     1
 92
        0
176
     1
 66
     7
176
     1
 43
1.0
176
     1
 76
     1
176
     1
 77
     6
176
     1
 78
     2
176
     1
 67
     7
176
     1
 79
     5
176
     1
170
     0
176
     1
171
     0
176
     1
290
     0
176
     1
 93
       13
176
     1
 44
0.0
176
     1
173
     0
176
     1
  0
VISUALSTYLE
  5
2E
102
{ACAD_REACTORS
330
2A
102
}
330
2A
100
AcDbVisualStyle
  2
GouraudWithEdges
 70
     3
177
     2
291
     1
 71
     2
176
     1
 72
     2
176
     1
 73
     1
176
     1
 90
        2
176
     1
 40
-0.6
176
     1
 41
30.0
176
     1
 62
     5
 63
     7
421
 16777215
176
     1
 74
     1
176
     1
 91
        4
176
     1
 64
     7
176
     1
 65
   257
176
     1
 75
     1
176
     1
175
     1
176
     1
 42
1.0
176
     1
 92
        0
176
     1
 66
   257
176
     1
 43
1.0
176
     1
 76
     1
176
     1
 77
     6
176
     1
 78
     2
176
     1
 67
     7
176
     1
 79
     5
176
     1
170
     0
176
     1
171
     0
176
     1
290
     0
176
     1
 93
       13
176
     1
 44
0.0
176
     1
173
     0
176
     1
  0
VISUALSTYLE
  5
38
102
{ACAD_REACTORS
330
2A
102
}
330
2A
100
AcDbVisualStyle
  2
Linepattern
 70
    14
177
     2
291
     1
 71
     2
176
     1
 72
     2
176
     1
 73
     0
176
     1
 90
        0
176
     1
 40
-0.6
176
     1
 41
-30.0
176
     1
 62
     5
 63
     7
421
 16777215
176
     1
 74
     1
176
     1
 91
        4
176
     1
 64
     7
176
     1
 65
   257
176
     1
 75
     7
176
     1
175
     7
176
     1
 42
1.0
176
     1
 92
        8
176
     1
 66
     7
176
     1
 43
1.0
176
     1
 76
     1
176
     1
 77
     6
176
     1
 78
     2
176
     1
 67
     7
176
     1
 79
     5
176
     1
170
     0
176
     1
171
     0
176
     1
290
     0
176
     1
 93
        1
176
     1
 44
0.0
176
     1
173
     0
176
     1
  0
VISUALSTYLE
  5
33
102
{ACAD_REACTORS
330
2A
102
}
330
2A
100
AcDbVisualStyle
  2
Realistic
 70
     8
177
     2
291
     0
 71
     2
176
     1
 72
     2
176
     1
 73
     0
176
     1
 90
        0
176
     1
 40
-0.6
176
     1
 41
-30.0
176
     1
 62
     5
 63
     7
421
 16777215
176
     1
 74
     1
176
     1
 91
        0
176
     1
 64
     7
176
     1
 65
   257
176
     1
 75
     1
176
     1
175
     1
176
     1
 42
1.0
176
     1
 92
        8
176
     1
 66
     8
424
  7895160
176
     1
 43
1.0
176
     1
 76
     1
176
     1
 77
     6
176
     1
 78
     2
176
     1
 67
     7
176
     1
 79
     5
176
     1
170
     0
176
     1
171
     0
176
     1
290
     0
176
     1
 93
       13
176
     1
 44
0.0
176
     1
173
     0
176
     1
  0
VISUALSTYLE
  5
37
102
{ACAD_REACTORS
330
2A
102
}
330
2A
100
AcDbVisualStyle
  2
Thicken
 70
    13
177
     2
291
     1
 71
     2
176
     1
 72
     2
176
     1
 73
     0
176
     1
 90
        0
176
     1
 40
-0.6
176
     1
 41
-30.0
176
     1
 62
     5
 63
     7
421
 16777215
176
     1
 74
     1
176
     1
 91
        4
176
     1
 64
     7
176
     1
 65
   257
176
     1
 75
     1
176
     1
175
     1
176
     1
 42
1.0
176
     1
 92
       12
176
     1
 66
     7
176
     1
 43
1.0
176
     1
 76
     1
176
     1
 77
     6
176
     1
 78
     2
176
     1
 67
     7
176
     1
 79
     5
176
     1
170
     0
176
     1
171
     0
176
     1
290
     0
176
     1
 93
        1
176
     1
 44
0.0
176
     1
173
     0
176
     1
  0
ENDSEC
  0
EOF
