<?xml version="1.0" encoding="utf-8"?>
<!-- Generator: Adobe Illustrator 26.0.3, SVG Export Plug-In . SVG Version: 6.00 Build 0)  -->
<svg version="1.1" id="Layer_1" xmlns="http://www.w3.org/2000/svg" xmlns:xlink="http://www.w3.org/1999/xlink" x="0px" y="0px"
	 viewBox="0 0 1000 1000" style="enable-background:new 0 0 1000 1000;" xml:space="preserve">
<g>
	<path d="M395.05,512.35c0-63.35,0-126.36,0-189.81c1.51,0,2.83,0,4.15,0c20.73,0,41.45-0.06,62.18,0.05
		c2.61,0.01,4.06-0.76,5.19-3.07c1.51-3.09,3.39-5.99,4.85-9.45c-4.68,6.1-10.57,8.49-17.27,6.63
		c11.99-11.88,24.31-24.09,36.18-35.86c11.39,11.36,23.65,23.57,35.8,35.69c-7.14,2.03-13.08-0.17-17.41-7.01
		c-0.23,0.29-0.46,0.59-0.69,0.88c2.21,3.78,4.28,7.66,6.73,11.28c0.52,0.77,2.43,0.82,3.7,0.83c20.6,0.05,41.2,0.04,61.81,0.04
		c1.35,0,2.7,0,4.35,0c0,63.34,0,126.45,0,189.81C521.54,512.35,458.45,512.35,395.05,512.35z M566.03,427.18
		c-0.6-0.88-1.13-1.55-1.55-2.28c-17.54-30.38-35.1-60.75-52.57-91.18c-1.19-2.07-2.35-3-4.87-2.97c-11.42,0.16-22.84,0.16-34.25,0
		c-2.51-0.04-3.74,0.88-4.91,2.92c-12.69,22.16-25.44,44.29-38.2,66.41c-5.19,9-10.44,17.97-15.79,27.18
		c-2.44-1.42-4.65-2.7-7.05-4.1c17.78-30.82,35.39-61.35,53.12-92.09c-19.28,0-37.94,0-56.67,0c0,57.82,0,115.36,0,173.09
		c57.81,0,115.44,0,173.09,0c0-57.87,0-115.51,0-173.05c-18.89,0-37.5,0-56.51,0c17.85,30.94,35.46,61.46,53.15,92.12
		C570.42,424.7,568.28,425.91,566.03,427.18z M505.49,322.61c-5.38-9.29-10.4-17.97-15.61-26.96c-5.28,9.18-10.28,17.89-15.49,26.96
		C484.99,322.61,494.9,322.61,505.49,322.61z"/>
	<path d="M546.87,518.51c-19.15,19.15-38.07,38.06-56.78,56.77c-18.75-18.78-37.7-37.77-56.67-56.77
		C470.92,518.51,508.8,518.51,546.87,518.51z"/>
	<path d="M342.66,427.88c15.45-15.52,30.98-31.12,46.43-46.64c0,30.86,0,62.03,0,93.1C373.42,458.66,357.85,443.08,342.66,427.88z"
		/>
	<path d="M590.62,474.05c0-30.89,0-61.99,0-92.58c15.33,15.45,30.87,31.1,46.17,46.51C621.97,442.78,606.33,458.38,590.62,474.05z"
		/>
</g>
</svg>
