999
"DXF R12 Output" (www.mydxf.blogspot.com)
 0 
SECTION
 2 
HEADER
 9 
$ACADVER
 1 
AC1009
 9 
$EXTMIN
 10 
 0 
 20 
 0 
 9 
$EXTMAX
 10 
 8.5 
 20 
 11 
 0 
ENDSEC
 0 
SECTION
 2 
ENTITIES
0
LINE
8
Layer 1
10
0.846666
20
317.647000
11
-0.846666
21
315.953000
0
LINE
8
Layer 1
10
0.000000
20
318.211000
11
0.000000
21
315.389000
0
LINE
8
Layer 1
10
2.257780
20
315.671000
11
1.128890
21
314.542110
0
LINE
8
Layer 1
10
1.693330
20
316.236000
11
0.564440
21
315.107110
0
LINE
8
Layer 1
10
1.128890
20
316.800000
11
0.000000
21
315.671110
0
LINE
8
0
10
182.100000
20
158.568000
11
214.044000
21
190.511000
0
LINE
8
0
10
214.044000
20
190.511000
11
182.100000
21
222.455000
0
LINE
8
0
10
182.100000
20
222.455000
11
182.100000
21
158.568000
0
LINE
8
0
10
114.220000
20
90.687500
11
152.952000
21
129.419000
0
LINE
8
0
10
152.952000
20
129.419000
11
75.488800
21
129.419000
0
LINE
8
0
10
75.488800
20
129.419000
11
114.220000
21
90.687500
0
LINE
8
0
10
14.396700
20
190.511000
11
46.340300
21
158.568000
0
LINE
8
0
10
46.340300
20
158.568000
11
46.340300
21
222.455000
0
LINE
8
0
10
46.340300
20
222.455000
11
14.396700
21
190.511000
0
LINE
8
0
10
103.616000
20
261.186000
11
114.220500
21
279.553500
0
LINE
8
0
10
114.220500
20
279.553500
11
124.825000
21
261.186000
0
LINE
8
0
10
124.825000
20
261.186000
11
103.616000
21
261.186000
0
LINE
8
0
10
134.161000
20
255.796000
11
172.717000
21
255.796000
0
LINE
8
0
10
172.717000
20
255.796000
11
172.717000
21
138.802000
0
LINE
8
0
10
172.717000
20
138.802000
11
55.723700
21
138.802000
0
LINE
8
0
10
55.723700
20
138.802000
11
55.723700
21
255.796000
0
LINE
8
0
10
55.723700
20
255.796000
11
94.279200
21
255.796000
0
LINE
8
0
10
94.279200
20
255.796000
11
58.319100
21
193.511200
0
LINE
8
0
10
58.319100
20
193.511200
11
62.987380
21
190.815960
0
LINE
8
0
10
62.987380
20
190.815960
11
100.503580
21
255.795960
0
LINE
8
0
10
100.503580
20
255.795960
11
127.937000
21
255.796000
0
LINE
8
0
10
127.937000
20
255.796000
11
165.453200
21
190.816000
0
LINE
8
0
10
165.453200
20
190.816000
11
170.121500
21
193.511240
0
LINE
8
0
10
170.121500
20
193.511240
11
134.161000
21
255.796000
0
LINE
8
0
10
89.064800
20
265.179000
11
96.688100
21
265.179000
0
LINE
8
0
10
96.688100
20
265.179000
11
103.806770
21
272.297670
0
LINE
8
0
10
103.806770
20
272.297670
11
97.391470
21
261.186070
0
LINE
8
0
10
97.391470
20
261.186070
11
50.333200
21
261.186000
0
LINE
8
0
10
50.333200
20
261.186000
11
50.333200
21
133.412000
0
LINE
8
0
10
50.333200
20
133.412000
11
178.107000
21
133.412000
0
LINE
8
0
10
178.107000
20
133.412000
11
178.107000
21
261.186000
0
LINE
8
0
10
178.107000
20
261.186000
11
131.049000
21
261.186000
0
LINE
8
0
10
131.049000
20
261.186000
11
124.633700
21
272.297600
0
LINE
8
0
10
124.633700
20
272.297600
11
131.752370
21
265.178930
0
LINE
8
0
10
131.752370
20
265.178930
11
139.376000
21
265.179000
0
LINE
8
0
10
139.376000
20
265.179000
11
114.220000
21
290.335000
0
LINE
8
0
10
114.220000
20
290.335000
11
89.064800
21
265.179000
 0 
ENDSEC
 0 
EOF