<svg id="Layer_1" data-name="Layer 1" xmlns="http://www.w3.org/2000/svg" viewBox="0 0 751.25 430.47"><path d="M395.05,512.35V322.54h4.15c20.73,0,41.46-.07,62.18,0,2.61,0,4.06-.76,5.2-3.07,1.51-3.09,3.38-6,4.84-9.46-4.68,6.11-10.57,8.5-17.27,6.63l36.19-35.86,35.79,35.69c-7.14,2-13.08-.17-17.41-7l-.69.88c2.21,3.78,4.28,7.66,6.73,11.27.52.77,2.43.83,3.7.83q30.9.08,61.8,0h4.35V512.35Zm171-85.17c-.6-.88-1.13-1.55-1.55-2.28q-26.33-45.57-52.57-91.17c-1.18-2.07-2.35-3-4.87-3q-17.13.24-34.25,0c-2.51,0-3.75.88-4.91,2.92q-19,33.24-38.21,66.41c-5.19,9-10.44,18-15.79,27.18l-7.05-4.1c17.78-30.81,35.39-61.34,53.12-92.08H403.29V504.18H576.38v-173H519.86L573,423.25ZM505.49,322.61c-5.38-9.28-10.4-18-15.61-27l-15.49,27Z" transform="translate(-125.36 -280.83)"/><path d="M573.67,711V614.17a18.07,18.07,0,0,1,2.47-.34c19.6,0,39.2-.14,58.8,0a26.1,26.1,0,0,1,25,33.71c-2.66,9.08-8.79,15-17.91,17.79-1.06.32-2.14.59-3.21.89-.09,0-.15.15-.38.4L661,711.28c-6.53,0-12.42.1-18.29-.1-.86,0-2-1.36-2.45-2.34-5.35-10.34-10.73-20.67-15.84-31.13-3.72-7.62-9.48-11.44-18-11.18-5.06.15-10.13,0-15.51,0V711Zm17.25-62.09c15.27,0,30.37.23,45.46-.13,5.16-.12,8.47-6.17,6.91-11.08-1.33-4.23-4.65-6.56-9.69-6.57-13.28-.05-26.55,0-39.83,0-.94,0-1.89.17-2.85.26Z" transform="translate(-125.36 -280.83)"/><path d="M325.38,680.35c5.07,0,9.89-.12,14.7.11.87,0,2.13,1.42,2.43,2.41,2.17,7.35,6.44,10.76,14,10.79q14.5,0,29,0c8.13,0,14-5.55,14.07-13.2.1-7.46-5.78-13.32-13.89-13.43-11.54-.16-23.08,0-34.61-.1-10.67-.11-18.59-5.11-23.27-14.55s-3.86-19.07,2.3-27.79c4.78-6.77,11.53-10.56,19.87-10.67,14-.19,28.05-.24,42.06,0,13.75.25,25.23,12.7,24.48,26.74-5.08,0-10.23.06-15.36-.09-.6,0-1.53-1.13-1.7-1.88-1.06-4.64-4.07-7.25-8.62-7.32-13.28-.21-26.56-.26-39.83,0a8.67,8.67,0,0,0-8.79,9.15c.09,5.39,3.79,9,9.72,9,11.54.11,23.08-.1,34.61.09a30.64,30.64,0,0,1,26.7,45.06c-5.35,10-14,15.82-25.41,16.22-11.28.4-22.59.41-33.87,0C337.75,710.35,324.11,695.77,325.38,680.35Z" transform="translate(-125.36 -280.83)"/><path d="M859.37,675.79V614.13h17.24v97L797.23,649.8V711H779.7V614.3Z" transform="translate(-125.36 -280.83)"/><path d="M265.37,711.1c-26.08.33-48-21.59-48.29-48.34-.31-26.23,21.34-48.5,47.46-48.83,27.34-.35,49.54,21,49.81,48C314.62,689.15,293.13,710.74,265.37,711.1Zm.07-17.32a31.33,31.33,0,1,0-31-31.4A31.19,31.19,0,0,0,265.44,693.78Z" transform="translate(-125.36 -280.83)"/><path d="M720.06,711.05a48.57,48.57,0,1,1,48.74-48.27A48.35,48.35,0,0,1,720.06,711.05Zm.08-17.28A31.32,31.32,0,1,0,689,662.57,31.29,31.29,0,0,0,720.14,693.77Z" transform="translate(-125.36 -280.83)"/><path d="M142.41,666.3v44.46h-17v-96.6a16.72,16.72,0,0,1,2.4-.33c19.47,0,39-.12,58.43,0,16.1.13,27.35,12.51,26.29,28.58-.87,13.16-12.34,23.77-25.89,23.84-13.27.07-26.55,0-39.82,0Zm.13-17.42c15.29,0,30.39.19,45.48-.11,4.53-.09,7.76-5.12,7.2-9.71-.58-4.81-4.21-7.92-9.64-7.94-13.64-.07-27.3,0-41,0a13.88,13.88,0,0,0-2.09.31Z" transform="translate(-125.36 -280.83)"/><path d="M546.87,518.51l-56.78,56.77-56.67-56.77Z" transform="translate(-125.36 -280.83)"/><path d="M502.3,631.21H462.46V614.1h96.72V631c-1.24.06-2.55.18-3.86.18-10.67,0-21.35.13-32-.06-3.18-.06-3.92,1-3.9,4,.11,23.71.06,47.42.06,71.13V711H502.3Z" transform="translate(-125.36 -280.83)"/><path d="M342.66,427.88l46.42-46.64v93.09Z" transform="translate(-125.36 -280.83)"/><path d="M590.62,474.05V381.47L636.79,428C622,442.78,606.33,458.38,590.62,474.05Z" transform="translate(-125.36 -280.83)"/><path d="M431.15,614.07H448v96.7H431.15Z" transform="translate(-125.36 -280.83)"/></svg>